<svg width="22" height="23" viewBox="0 0 22 23" fill="none" xmlns="http://www.w3.org/2000/svg">
<path d="M3.66667 17.909C3.66667 15.4057 8.55556 14.0289 11 14.0289C13.4444 14.0289 18.3333 15.4057 18.3333 17.909V19.1607H3.66667V17.909ZM14.6667 7.89566C14.6667 8.89155 14.2804 9.84666 13.5927 10.5509C12.9051 11.2551 11.9725 11.6507 11 11.6507C10.0275 11.6507 9.09491 11.2551 8.40727 10.5509C7.71964 9.84666 7.33333 8.89155 7.33333 7.89566C7.33333 6.89977 7.71964 5.94466 8.40727 5.24046C9.09491 4.53626 10.0275 4.14064 11 4.14064C11.9725 4.14064 12.9051 4.53626 13.5927 5.24046C14.2804 5.94466 14.6667 6.89977 14.6667 7.89566ZM0 2.88897V20.4124C0 21.0763 0.257539 21.7131 0.715961 22.1825C1.17438 22.652 1.79614 22.9157 2.44444 22.9157H19.5556C20.2039 22.9157 20.8256 22.652 21.284 22.1825C21.7425 21.7131 22 21.0763 22 20.4124V2.88897C22 2.22504 21.7425 1.5883 21.284 1.11883C20.8256 0.649365 20.2039 0.38562 19.5556 0.38562H2.44444C1.08778 0.38562 0 1.51213 0 2.88897Z" fill="#007AFF"/>
</svg>
