<svg width="19" height="24" viewBox="0 0 19 24" fill="none" xmlns="http://www.w3.org/2000/svg">
<path d="M3.70654 0.115029C4.1628 -0.0486445 4.65381 0.0136387 5.12745 0.00349964C8.98898 0.00639651 12.8505 0.00494808 16.712 0.00349964C17.8925 -0.00229409 18.905 1.08693 18.8818 2.25437C18.8861 4.37777 18.8818 6.50262 18.8832 8.62748C18.9122 9.50957 18.369 10.3714 17.5652 10.732C16.9409 11.0377 16.2268 10.9203 15.5576 10.9406C13.9296 10.9566 12.2986 10.9073 10.6721 10.9652C10.7575 12.2123 10.7445 13.4623 10.8053 14.7094C10.8039 15.1078 10.869 15.5423 10.6576 15.903C10.4128 16.31 10.029 16.6054 9.71609 16.9574C9.28301 16.5272 9.29604 15.8696 9.20624 15.3077C9.08747 13.8534 8.93538 12.4035 8.84993 10.9479C8.56603 10.9464 8.28214 10.9377 7.99825 10.9377C8.24303 12.8641 8.14599 14.8543 8.71377 16.7271C9.1512 18.2842 10.3476 19.4951 10.7372 21.0695C10.9704 21.9241 10.9284 22.8525 10.5909 23.6738C10.5489 23.9505 10.2462 23.8462 10.0521 23.8708C7.83457 23.8636 5.61702 23.8708 3.39802 23.8665C2.45944 21.5562 1.54113 19.2373 0.599648 16.927C0.0955925 15.732 -0.29983 14.3082 0.308512 13.0742C0.968998 11.914 1.71639 10.803 2.38557 9.64717C2.27404 9.31548 2.17265 8.9722 2.18713 8.61878C2.19292 6.49393 2.18858 4.37053 2.19003 2.24568C2.16106 1.30274 2.82444 0.416303 3.70654 0.115029ZM3.13441 2.25147C3.12716 4.37922 3.13296 6.50842 3.13296 8.63617C3.11123 9.38356 3.79779 10.0252 4.53794 9.99769C4.54953 9.2474 4.61905 8.50146 4.65381 7.75262C4.68568 7.25001 4.69292 6.71844 4.95654 6.27377C5.12311 5.98264 5.48811 5.79868 5.46783 5.42354C6.63093 5.3714 7.79547 5.4134 8.95856 5.40181C8.96146 5.62922 8.96146 5.85662 8.96146 6.08547C8.41974 6.08982 7.87658 6.09706 7.33486 6.07099C7.45653 6.3375 7.59558 6.60401 7.63324 6.89949C7.7636 7.93657 7.77519 8.98669 7.949 10.018C10.8227 9.97017 13.6978 10.018 16.5715 9.9948C17.3117 10.0151 17.9635 9.35459 17.9374 8.61444C17.9432 6.49683 17.9461 4.37777 17.9374 2.26016C17.9302 1.55188 17.2943 0.901528 16.5744 0.94643C12.5652 0.94643 8.55589 0.947879 4.54808 0.944982C3.81227 0.878354 3.13151 1.51856 3.13441 2.25147ZM3.67902 10.819C3.57328 12.4513 3.48493 14.0852 3.38499 15.7176C3.38788 15.9145 3.34443 16.1767 3.57183 16.2694C3.80648 16.4678 4.1599 16.2129 4.15845 15.9392C4.27432 14.2807 4.35544 12.6194 4.46552 10.9609C4.2019 10.9189 3.93829 10.8754 3.67902 10.819Z" fill="white"/>
<path d="M5.42725 2.66725C6.60337 2.62525 7.7795 2.66001 8.95708 2.64842C8.95998 2.87727 8.96142 3.10468 8.96287 3.33498C7.80268 3.35091 6.64248 3.31181 5.48373 3.35671C5.46346 3.12641 5.44173 2.89755 5.42725 2.66725Z" fill="white"/>
<path d="M13.0128 2.77726C13.9717 2.33694 15.1985 3.0655 15.2593 4.11851C15.3998 5.13821 14.3787 6.08693 13.3735 5.87691C12.5725 5.7509 11.9323 4.94846 12.0366 4.133C12.0684 3.54203 12.474 3.00756 13.0128 2.77726Z" fill="white"/>
<path d="M5.45343 4.02284C6.62956 4.04312 7.80859 3.98518 8.98327 4.05326C8.97168 4.27197 8.96154 4.49213 8.9514 4.7123C7.78107 4.7065 6.60928 4.72533 5.4375 4.70216C5.44329 4.47475 5.44909 4.2488 5.45343 4.02284Z" fill="white"/>
<path d="M10.7429 7.30364C11.0557 6.54176 11.8509 6.03915 12.6621 5.9986C13.0184 6.35926 13.3037 6.7822 13.6021 7.18921C13.9599 6.89373 14.1902 6.48382 14.4914 6.13765C14.6261 5.9001 14.9028 6.0377 15.1056 6.07536C15.6733 6.23035 16.1861 6.60694 16.4642 7.13127C16.7061 7.56435 16.7408 8.07131 16.8205 8.55074C14.7174 8.6333 12.6085 8.56957 10.5024 8.5826C10.5242 8.14952 10.5633 7.70485 10.7429 7.30364Z" fill="white"/>
<path d="M11.5598 13.781C11.8292 13.0148 13.0256 12.9945 13.4051 13.6753C13.5615 13.9215 13.463 14.2199 13.4181 14.485C13.1704 15.5496 12.9677 16.6243 12.7113 17.686C12.4651 18.5 11.6177 18.8375 11.0586 19.3966C10.724 18.81 10.3025 18.2741 10.0273 17.6556C10.556 17.1515 11.2209 16.7069 11.4816 15.9971C11.6163 15.2671 11.4584 14.5154 11.5598 13.781Z" fill="white"/>
</svg>
