<svg width="34" height="34" viewBox="0 0 34 34" fill="none" xmlns="http://www.w3.org/2000/svg">
<rect width="34" height="34" rx="17" fill="#0087FB"/>
<path d="M17 8C19.21 8 21 9.79 21 12C21 14.21 19.21 16 17 16C14.79 16 13 14.21 13 12C13 9.79 14.79 8 17 8ZM21 18.54C21 19.6 20.72 22.07 18.81 24.83L18 20L18.94 18.12C18.32 18.05 17.67 18 17 18C16.33 18 15.68 18.05 15.06 18.12L16 20L15.19 24.83C13.28 22.07 13 19.6 13 18.54C10.61 19.24 9 20.5 9 22V26H25V22C25 20.5 23.4 19.24 21 18.54Z" fill="white"/>
</svg>
