<svg width="81" height="58" viewBox="0 0 81 58" fill="none" xmlns="http://www.w3.org/2000/svg">
<g filter="url(#filter0_bd)">
<path fill-rule="evenodd" clip-rule="evenodd" d="M0 6.00302C0 3.23993 2.23993 1 5.00302 1H75.8791C78.6422 1 80.8822 3.23993 80.8822 6.00302V52.6979C80.8822 55.461 78.6422 57.7009 75.8792 57.7009H5.00303C2.23993 57.7009 0 55.461 0 52.6979V6.00302Z" fill="#F0F0F0"/>
</g>
<path d="M24.8339 49.8091C24.7606 49.8851 24.6588 49.9231 24.5285 49.9231C24.3982 49.9231 24.2965 49.8851 24.2232 49.8091C24.1499 49.7304 24.1132 49.6232 24.1132 49.4875V44.4959C24.1132 44.3194 24.1648 44.1797 24.268 44.0765C24.3738 43.9707 24.5177 43.9177 24.6995 43.9177C24.8542 43.9177 24.9805 43.9557 25.0782 44.0317C25.1786 44.105 25.2628 44.2272 25.3306 44.3982L27.0691 48.6203H27.1017L28.8361 44.3982C28.9067 44.2299 28.9922 44.1077 29.0926 44.0317C29.1931 43.9557 29.322 43.9177 29.4794 43.9177C29.6559 43.9177 29.7957 43.9693 29.8988 44.0724C30.0047 44.1756 30.0576 44.3167 30.0576 44.4959V49.4875C30.0576 49.6232 30.0196 49.7304 29.9436 49.8091C29.8703 49.8851 29.7699 49.9231 29.6423 49.9231C29.512 49.9231 29.4089 49.8851 29.3329 49.8091C29.2596 49.7304 29.2229 49.6232 29.2229 49.4875V45.5341H29.1944L27.5577 49.4794C27.4627 49.7074 27.3053 49.8214 27.0854 49.8214C26.8628 49.8214 26.7054 49.7101 26.6131 49.4875L24.9723 45.5341H24.9438V49.4875C24.9438 49.6232 24.9072 49.7304 24.8339 49.8091ZM33.0247 49.9394C32.3787 49.9394 31.8752 49.7454 31.5142 49.3572C31.1559 48.9691 30.9768 48.4289 30.9768 47.7368C30.9768 47.0555 31.1559 46.5126 31.5142 46.1082C31.8752 45.701 32.3584 45.4975 32.9637 45.4975C33.5337 45.4975 33.9965 45.6834 34.352 46.0552C34.7103 46.4244 34.8895 46.9021 34.8895 47.4884C34.8895 47.6296 34.8501 47.7395 34.7714 47.8182C34.6954 47.8969 34.5895 47.9363 34.4538 47.9363H31.8644V47.9566C31.8644 48.3475 31.9662 48.6569 32.1697 48.8849C32.376 49.1129 32.6542 49.2269 33.0044 49.2269C33.2432 49.2269 33.4468 49.1808 33.6151 49.0885C33.7834 48.9962 33.949 48.8388 34.1118 48.6162C34.1987 48.5131 34.3018 48.4615 34.4213 48.4615C34.5298 48.4615 34.618 48.4941 34.6859 48.5592C34.7538 48.6243 34.7877 48.7112 34.7877 48.8198C34.7877 48.8822 34.7673 48.9609 34.7266 49.0559C34.5855 49.3355 34.3656 49.5526 34.067 49.7074C33.7712 49.8621 33.4237 49.9394 33.0247 49.9394ZM31.8684 47.3215H34.01C33.9992 46.9849 33.8974 46.7148 33.7047 46.5113C33.5147 46.3077 33.2663 46.2059 32.9596 46.2059C32.6556 46.2059 32.4032 46.309 32.2023 46.5153C32.0014 46.7189 31.8902 46.9876 31.8684 47.3215ZM37.2866 49.9394C36.8713 49.9394 36.5158 49.8607 36.2199 49.7033C35.924 49.5459 35.7245 49.3341 35.6214 49.0681C35.597 49.0111 35.5848 48.9501 35.5848 48.8849C35.5848 48.7763 35.62 48.6908 35.6906 48.6284C35.7612 48.566 35.8521 48.5348 35.9634 48.5348C36.1154 48.5348 36.243 48.6121 36.3461 48.7668C36.4601 48.946 36.5904 49.0749 36.737 49.1536C36.8835 49.2296 37.0817 49.2676 37.3314 49.2676C37.5838 49.2676 37.7861 49.2174 37.9381 49.117C38.0928 49.0139 38.1701 48.8741 38.1701 48.6976C38.1701 48.5565 38.1226 48.4452 38.0276 48.3638C37.9326 48.2796 37.7711 48.2104 37.5431 48.1561L36.8673 47.9973C36.0421 47.8019 35.6295 47.3975 35.6295 46.784C35.6295 46.3959 35.7843 46.0851 36.0937 45.8517C36.4031 45.6155 36.8116 45.4975 37.3192 45.4975C37.7019 45.4975 38.0371 45.5843 38.3248 45.758C38.6126 45.929 38.7876 46.1421 38.8501 46.3973C38.8609 46.4624 38.8664 46.5058 38.8664 46.5275C38.8664 46.628 38.8365 46.708 38.7768 46.7678C38.7171 46.8248 38.6329 46.8533 38.5244 46.8533C38.3642 46.8533 38.2461 46.7908 38.1701 46.666C38.0724 46.4977 37.953 46.3728 37.8118 46.2914C37.6734 46.21 37.4983 46.1693 37.2866 46.1693C37.0505 46.1693 36.8578 46.2222 36.7085 46.328C36.5619 46.4312 36.4886 46.5669 36.4886 46.7352C36.4886 47.0066 36.7085 47.1939 37.1482 47.297L37.8118 47.4518C38.2624 47.5549 38.5827 47.6961 38.7727 47.8752C38.9627 48.0516 39.0577 48.2986 39.0577 48.6162C39.0577 49.0125 38.8949 49.3328 38.5691 49.5771C38.2434 49.8186 37.8159 49.9394 37.2866 49.9394ZM41.4508 49.9394C41.0355 49.9394 40.6799 49.8607 40.3841 49.7033C40.0882 49.5459 39.8887 49.3341 39.7856 49.0681C39.7611 49.0111 39.7489 48.9501 39.7489 48.8849C39.7489 48.7763 39.7842 48.6908 39.8548 48.6284C39.9253 48.566 40.0163 48.5348 40.1276 48.5348C40.2796 48.5348 40.4071 48.6121 40.5103 48.7668C40.6243 48.946 40.7546 49.0749 40.9011 49.1536C41.0477 49.2296 41.2459 49.2676 41.4956 49.2676C41.748 49.2676 41.9502 49.2174 42.1022 49.117C42.2569 49.0139 42.3343 48.8741 42.3343 48.6976C42.3343 48.5565 42.2868 48.4452 42.1918 48.3638C42.0968 48.2796 41.9353 48.2104 41.7073 48.1561L41.0314 47.9973C40.2063 47.8019 39.7937 47.3975 39.7937 46.784C39.7937 46.3959 39.9484 46.0851 40.2579 45.8517C40.5673 45.6155 40.9758 45.4975 41.4834 45.4975C41.8661 45.4975 42.2013 45.5843 42.489 45.758C42.7767 45.929 42.9518 46.1421 43.0142 46.3973C43.0251 46.4624 43.0305 46.5058 43.0305 46.5275C43.0305 46.628 43.0007 46.708 42.941 46.7678C42.8812 46.8248 42.7971 46.8533 42.6885 46.8533C42.5284 46.8533 42.4103 46.7908 42.3343 46.666C42.2366 46.4977 42.1172 46.3728 41.976 46.2914C41.8376 46.21 41.6625 46.1693 41.4508 46.1693C41.2146 46.1693 41.0219 46.2222 40.8726 46.328C40.7261 46.4312 40.6528 46.5669 40.6528 46.7352C40.6528 47.0066 40.8726 47.1939 41.3124 47.297L41.976 47.4518C42.4266 47.5549 42.7469 47.6961 42.9369 47.8752C43.1269 48.0516 43.2219 48.2986 43.2219 48.6162C43.2219 49.0125 43.059 49.3328 42.7333 49.5771C42.4076 49.8186 41.9801 49.9394 41.4508 49.9394ZM45.2892 49.9313C44.8685 49.9313 44.5252 49.8119 44.2592 49.573C43.9932 49.3341 43.8602 49.0234 43.8602 48.6406C43.8602 48.2661 43.9986 47.9688 44.2754 47.749C44.5523 47.5264 44.9445 47.4015 45.4521 47.3744L46.6288 47.3052V46.9754C46.6288 46.7365 46.5528 46.5506 46.4008 46.4176C46.2488 46.2819 46.0384 46.214 45.7697 46.214C45.5552 46.214 45.3734 46.2561 45.2241 46.3403C45.0775 46.4244 44.9432 46.5628 44.821 46.7555C44.7342 46.8804 44.6147 46.9428 44.4627 46.9428C44.3514 46.9428 44.2605 46.9089 44.1899 46.841C44.1194 46.7732 44.0841 46.685 44.0841 46.5764C44.0841 46.4814 44.1099 46.3864 44.1614 46.2914C44.2727 46.0498 44.4777 45.8571 44.7762 45.7132C45.0748 45.5694 45.4168 45.4975 45.8022 45.4975C46.3207 45.4975 46.7333 45.625 47.04 45.8802C47.3494 46.1353 47.5041 46.4773 47.5041 46.9062V49.4916C47.5041 49.6273 47.4648 49.7359 47.386 49.8173C47.3073 49.896 47.2055 49.9354 47.0807 49.9354C46.9585 49.9354 46.8581 49.8987 46.7794 49.8254C46.7034 49.7494 46.664 49.6463 46.6613 49.516V49.1536H46.641C46.5188 49.3898 46.3329 49.5784 46.0832 49.7196C45.8362 49.8607 45.5715 49.9313 45.2892 49.9313ZM45.5295 49.2351C45.8389 49.2351 46.0995 49.1414 46.3112 48.9541C46.5229 48.7641 46.6288 48.5307 46.6288 48.2538V47.9159L45.5702 47.9811C45.3069 48.0001 45.1033 48.0652 44.9595 48.1765C44.8183 48.2851 44.7477 48.4316 44.7477 48.6162C44.7477 48.8035 44.8197 48.9541 44.9635 49.0681C45.1074 49.1794 45.296 49.2351 45.5295 49.2351ZM50.2881 51.4703C49.9053 51.4676 49.5661 51.397 49.2702 51.2586C48.9743 51.1202 48.7518 50.9329 48.6025 50.6967C48.5482 50.6044 48.521 50.5081 48.521 50.4077C48.521 50.3045 48.555 50.2204 48.6228 50.1552C48.6934 50.0901 48.7843 50.0575 48.8956 50.0575C49.0123 50.0575 49.125 50.1118 49.2336 50.2204C49.41 50.4049 49.581 50.5393 49.7466 50.6234C49.9121 50.7076 50.0981 50.751 50.3043 50.7537C50.6599 50.7564 50.9409 50.6669 51.1471 50.485C51.3534 50.3031 51.4566 50.0602 51.4566 49.7562V49.0763H51.4362C51.3141 49.3124 51.1322 49.4997 50.8906 49.6381C50.6518 49.7766 50.3817 49.8458 50.0804 49.8458C49.5403 49.8458 49.1087 49.6504 48.7857 49.2595C48.4627 48.8659 48.3012 48.3393 48.3012 47.6798C48.3012 47.0093 48.4627 46.48 48.7857 46.0919C49.1087 45.701 49.5471 45.5056 50.1008 45.5056C50.3993 45.5056 50.664 45.5762 50.8947 45.7173C51.1254 45.8557 51.3073 46.0485 51.4403 46.2955H51.4566V45.9494C51.4566 45.811 51.4973 45.701 51.5787 45.6196C51.6629 45.5382 51.7701 45.4975 51.9004 45.4975C52.0307 45.4975 52.1365 45.5382 52.2179 45.6196C52.2994 45.701 52.3401 45.811 52.3401 45.9494V49.7399C52.3401 50.2719 52.1555 50.694 51.7864 51.0062C51.4199 51.321 50.9205 51.4757 50.2881 51.4703ZM50.3166 49.1292C50.6613 49.1292 50.9381 48.9989 51.1471 48.7383C51.3561 48.4751 51.4606 48.1249 51.4606 47.6879C51.4606 47.2482 51.3561 46.8953 51.1471 46.6293C50.9381 46.3633 50.6613 46.2303 50.3166 46.2303C49.9773 46.2303 49.7058 46.362 49.5023 46.6253C49.3014 46.8858 49.201 47.2387 49.201 47.6838C49.201 48.129 49.3014 48.4818 49.5023 48.7424C49.7058 49.0003 49.9773 49.1292 50.3166 49.1292ZM55.1973 49.9394C54.5513 49.9394 54.0478 49.7454 53.6868 49.3572C53.3285 48.9691 53.1494 48.4289 53.1494 47.7368C53.1494 47.0555 53.3285 46.5126 53.6868 46.1082C54.0478 45.701 54.5309 45.4975 55.1362 45.4975C55.7062 45.4975 56.169 45.6834 56.5246 46.0552C56.8829 46.4244 57.062 46.9021 57.062 47.4884C57.062 47.6296 57.0227 47.7395 56.944 47.8182C56.868 47.8969 56.7621 47.9363 56.6264 47.9363H54.0369V47.9566C54.0369 48.3475 54.1387 48.6569 54.3423 48.8849C54.5486 49.1129 54.8268 49.2269 55.177 49.2269C55.4158 49.2269 55.6194 49.1808 55.7877 49.0885C55.956 48.9962 56.1215 48.8388 56.2844 48.6162C56.3713 48.5131 56.4744 48.4615 56.5938 48.4615C56.7024 48.4615 56.7906 48.4941 56.8585 48.5592C56.9263 48.6243 56.9603 48.7112 56.9603 48.8198C56.9603 48.8822 56.9399 48.9609 56.8992 49.0559C56.758 49.3355 56.5382 49.5526 56.2396 49.7074C55.9437 49.8621 55.5963 49.9394 55.1973 49.9394ZM54.041 47.3215H56.1826C56.1717 46.9849 56.07 46.7148 55.8772 46.5113C55.6872 46.3077 55.4389 46.2059 55.1322 46.2059C54.8282 46.2059 54.5757 46.309 54.3749 46.5153C54.174 46.7189 54.0627 46.9876 54.041 47.3215Z" fill="#0087FB"/>
<path fill-rule="evenodd" clip-rule="evenodd" d="M40.4411 37.6888C48.9607 37.6888 55.8671 30.7824 55.8671 22.2628C55.8671 13.7433 48.9607 6.83685 40.4411 6.83685C31.9216 6.83685 25.0151 13.7433 25.0151 22.2628C25.0151 30.7824 31.9216 37.6888 40.4411 37.6888Z" fill="#0087FB"/>
<path fill-rule="evenodd" clip-rule="evenodd" d="M40.4411 16.8428C44.3552 16.8428 47.5287 19.4392 47.5287 22.6418C47.5287 25.8445 44.3552 28.4409 40.4411 28.4409C39.797 28.4409 38.4973 28.184 38.4902 28.1955C38.057 28.8971 35.6888 29.3225 35.4629 29.3481C35.2379 29.3746 35.0554 29.1672 35.252 29.0463C35.4478 28.9254 36.1805 28.2741 36.3595 27.869C36.5385 27.4639 36.3099 27.1921 36.1486 27.0182C34.4494 25.9592 33.3535 24.5242 33.3535 22.6418C33.3535 19.4392 36.5269 16.8428 40.4411 16.8428Z" fill="white"/>
<defs>
<filter id="filter0_bd" x="-67.9981" y="-66.9981" width="216.878" height="192.697" filterUnits="userSpaceOnUse" color-interpolation-filters="sRGB">
<feFlood flood-opacity="0" result="BackgroundImageFix"/>
<feGaussianBlur in="BackgroundImage" stdDeviation="33.9991"/>
<feComposite in2="SourceAlpha" operator="in" result="effect1_backgroundBlur"/>
<feColorMatrix in="SourceAlpha" type="matrix" values="0 0 0 0 0 0 0 0 0 0 0 0 0 0 0 0 0 0 127 0"/>
<feOffset dy="-0.416918"/>
<feColorMatrix type="matrix" values="0 0 0 0 1 0 0 0 0 1 0 0 0 0 1 0 0 0 0.16 0"/>
<feBlend mode="normal" in2="effect1_backgroundBlur" result="effect2_dropShadow"/>
<feBlend mode="normal" in="SourceGraphic" in2="effect2_dropShadow" result="shape"/>
</filter>
</defs>
</svg>
