<svg width="34" height="34" viewBox="0 0 34 34" fill="none" xmlns="http://www.w3.org/2000/svg">
<rect width="34" height="34" rx="17" fill="#46C756"/>
<path d="M23.4 7H10.6V8.66667H23.4V7ZM10.6 27H23.4V25.3333H10.6V27ZM23.4 10.3333H10.6C10.1757 10.3333 9.76869 10.5089 9.46863 10.8215C9.16857 11.134 9 11.558 9 12V22C9 22.442 9.16857 22.8659 9.46863 23.1785C9.76869 23.4911 10.1757 23.6667 10.6 23.6667H23.4C23.8243 23.6667 24.2313 23.4911 24.5314 23.1785C24.8314 22.8659 25 22.442 25 22V12C25 11.558 24.8314 11.134 24.5314 10.8215C24.2313 10.5089 23.8243 10.3333 23.4 10.3333ZM17 12.625C17.4774 12.625 17.9352 12.8225 18.2728 13.1742C18.6104 13.5258 18.8 14.0027 18.8 14.5C18.8 14.9973 18.6104 15.4742 18.2728 15.8258C17.9352 16.1775 17.4774 16.375 17 16.375C16.5226 16.375 16.0648 16.1775 15.7272 15.8258C15.3896 15.4742 15.2 14.9973 15.2 14.5C15.2 14.0027 15.3896 13.5258 15.7272 13.1742C16.0648 12.8225 16.5226 12.625 17 12.625ZM21 21.1667H13V19.9167C13 18.525 15.664 17.8333 17 17.8333C18.336 17.8333 21 18.525 21 19.9167V21.1667Z" fill="white"/>
</svg>
