<svg width="34" height="34" viewBox="0 0 34 34" fill="none" xmlns="http://www.w3.org/2000/svg">
<rect width="34" height="34" rx="17" fill="#46C756"/>
<path d="M11 11H15.5V15.5H11V11ZM23 11V15.5H18.5V11H23ZM18.5 19.25H20V17.75H18.5V16.25H20V17.75H21.5V16.25H23V17.75H21.5V19.25H23V21.5H21.5V23H20V21.5H17.75V23H16.25V20H18.5V19.25ZM20 19.25V21.5H21.5V19.25H20ZM11 23V18.5H15.5V23H11ZM12.5 12.5V14H14V12.5H12.5ZM20 12.5V14H21.5V12.5H20ZM12.5 20V21.5H14V20H12.5ZM11 16.25H12.5V17.75H11V16.25ZM14.75 16.25H17.75V19.25H16.25V17.75H14.75V16.25ZM16.25 12.5H17.75V15.5H16.25V12.5ZM9.5 9.5V12.5H8V9.5C8 9.10218 8.15804 8.72064 8.43934 8.43934C8.72064 8.15804 9.10218 8 9.5 8H12.5V9.5H9.5ZM24.5 8C24.8978 8 25.2794 8.15804 25.5607 8.43934C25.842 8.72064 26 9.10218 26 9.5V12.5H24.5V9.5H21.5V8H24.5ZM9.5 21.5V24.5H12.5V26H9.5C9.10218 26 8.72064 25.842 8.43934 25.5607C8.15804 25.2794 8 24.8978 8 24.5V21.5H9.5ZM24.5 24.5V21.5H26V24.5C26 24.8978 25.842 25.2794 25.5607 25.5607C25.2794 25.842 24.8978 26 24.5 26H21.5V24.5H24.5Z" fill="white"/>
</svg>
