<svg width="266" height="170" viewBox="0 0 266 170" fill="none" xmlns="http://www.w3.org/2000/svg">
<path d="M58.9908 28.319L9.4314 61.4711L58.2472 134.446L107.807 101.294L58.9908 28.319Z" fill="#F5F5F5"/>
<path d="M82.1967 97.8426L81.6357 101.323L56.9976 97.7719L57.5585 94.2913L82.1967 97.8426Z" fill="#E0E0E0"/>
<path d="M69.789 85.4263L73.3226 85.9342L69.4047 110.193L65.8667 109.68L69.789 85.4263Z" fill="#E0E0E0"/>
<path d="M47.1167 54.5954C47.1521 54.644 42.1873 58.0319 36.0256 62.1485C29.8638 66.2652 24.8417 69.5691 24.8063 69.5161C24.771 69.4631 29.7357 66.0797 35.8975 61.9586C42.0593 57.8375 47.0593 54.5424 47.1167 54.5954Z" fill="#E0E0E0"/>
<path d="M65.3236 50.0194C65.359 50.0724 57.0991 55.6555 46.8781 62.4931C36.6571 69.3306 28.3266 74.8298 28.3001 74.7812C28.2736 74.7326 36.5158 69.1407 46.75 62.3031C56.9843 55.4656 65.2883 49.9664 65.3236 50.0194Z" fill="#E0E0E0"/>
<path d="M68.9765 55.4788C69.0118 55.5318 60.752 61.1194 50.531 67.9569C40.31 74.7945 31.9794 80.2937 31.9529 80.2407C31.9264 80.1877 40.1775 74.6046 50.4029 67.7626C60.6283 60.9206 68.9411 55.4258 68.9765 55.4788Z" fill="#E0E0E0"/>
<path d="M72.6293 60.9426C72.6647 60.9956 64.4048 66.5832 54.1838 73.4163C43.9628 80.2495 35.6323 85.7575 35.6323 85.7045C35.6323 85.6515 43.8524 80.064 54.0778 73.2264C64.3032 66.3888 72.594 60.8896 72.6293 60.9426Z" fill="#E0E0E0"/>
<path d="M76.2689 66.4066C76.3042 66.4596 68.0444 72.0427 57.8234 78.8803C47.6024 85.7178 39.2719 91.217 39.2498 91.164C39.2277 91.111 47.4831 85.5279 57.7174 78.6903C67.9516 71.8528 76.2689 66.3536 76.2689 66.4066Z" fill="#E0E0E0"/>
<path d="M224.712 77.2171L183.09 105.06L224.086 166.345L265.708 138.503L224.712 77.2171Z" fill="#F5F5F5"/>
<path d="M244.204 135.617L243.732 138.541L223.038 135.56L223.515 132.635L244.204 135.617Z" fill="#E0E0E0"/>
<path d="M233.785 125.188L236.753 125.617L233.462 145.988L230.49 145.56L233.785 125.188Z" fill="#E0E0E0"/>
<path d="M214.725 99.3178C214.761 99.3708 210.595 102.22 205.419 105.678C200.242 109.137 196.019 111.902 195.984 111.862C195.949 111.822 200.118 108.965 205.291 105.502C210.463 102.039 214.69 99.2427 214.725 99.3178Z" fill="#E0E0E0"/>
<path d="M230.03 95.4529C230.065 95.5059 223.135 100.206 214.57 105.943C206.006 111.681 198.996 116.301 198.961 116.248C198.925 116.195 205.856 111.496 214.42 105.753C222.985 100.011 229.981 95.3999 230.03 95.4529Z" fill="#E0E0E0"/>
<path d="M233.1 100.038C233.135 100.091 226.205 104.791 217.64 110.533C209.076 116.275 202.066 120.886 202.03 120.833C201.995 120.78 208.903 116.103 217.49 110.36C226.077 104.618 233.073 99.9892 233.1 100.038Z" fill="#E0E0E0"/>
<path d="M236.165 104.618C236.201 104.671 229.266 109.371 220.706 115.113C212.145 120.855 205.131 125.467 205.096 125.414C205.061 125.361 211.991 120.665 220.555 114.919C229.12 109.172 236.134 104.574 236.165 104.618Z" fill="#E0E0E0"/>
<path d="M239.257 109.216C239.293 109.269 232.362 113.965 223.798 119.707C215.233 125.449 208.223 130.06 208.188 130.012C208.153 129.963 215.083 125.259 223.647 119.517C232.212 113.775 239.2 109.163 239.257 109.216Z" fill="#E0E0E0"/>
<path d="M158.864 31.0038L113.449 6.71381L77.6826 73.5858L123.097 97.8758L158.864 31.0038Z" fill="#F5F5F5"/>
<path d="M115.324 76.9544L112.444 77.9394L105.13 57.7227L108.014 56.7333L115.324 76.9544Z" fill="#E0E0E0"/>
<path d="M119.741 62.4489L120.793 65.3509L100.713 72.2282L99.6616 69.3262L119.741 62.4489Z" fill="#E0E0E0"/>
<path d="M134.008 32.6207C133.973 32.687 129.371 30.293 123.721 27.2761C118.072 24.2593 113.527 21.7549 113.562 21.6886C113.597 21.6223 118.204 24.0164 123.854 27.0332C129.503 30.05 134.044 32.5501 134.008 32.6207Z" fill="#E0E0E0"/>
<path d="M144.91 44.6483C144.874 44.7145 137.251 40.7039 127.882 35.695C118.514 30.6861 110.952 26.5694 110.987 26.5031C111.022 26.4369 118.642 30.4431 128.01 35.4564C137.379 40.4698 144.945 44.582 144.91 44.6483Z" fill="#E0E0E0"/>
<path d="M142.233 49.6528C142.198 49.7191 134.574 45.7128 125.205 40.6995C115.837 35.6862 108.275 31.5739 108.31 31.5076C108.346 31.4414 115.965 35.4521 125.333 40.461C134.702 45.4699 142.268 49.5865 142.233 49.6528Z" fill="#E0E0E0"/>
<path d="M139.556 54.6573C139.521 54.7235 131.897 50.7173 122.529 45.7084C113.16 40.6995 105.598 36.596 105.633 36.5165C105.669 36.437 113.288 40.4565 122.657 45.4654C132.025 50.4743 139.592 54.591 139.556 54.6573Z" fill="#E0E0E0"/>
<path d="M136.879 59.6617C136.844 59.728 129.22 55.7218 119.852 50.7129C110.483 45.7039 102.917 41.5873 102.957 41.521C102.996 41.4548 110.611 45.461 119.98 50.4699C129.348 55.4788 136.915 59.5955 136.879 59.6617Z" fill="#E0E0E0"/>
<path d="M255.013 168.59C255.013 168.652 197.923 168.705 127.511 168.705C57.0989 168.705 0 168.665 0 168.59C0 168.515 57.0812 168.475 127.511 168.475C197.94 168.475 255.013 168.524 255.013 168.59Z" fill="#263238"/>
<path d="M14.1167 140.926C14.8635 140.98 15.5918 141.184 16.2581 141.525C16.9244 141.867 17.5151 142.339 17.9949 142.914C18.9489 144.07 19.6244 145.43 19.9693 146.889C20.7158 149.681 20.2564 152.98 19.4613 155.759C16.4401 154.676 14.5717 151.452 13.7192 149.756C12.3941 147.079 11.6034 141.425 14.1035 140.922" fill="#46C756"/>
<path d="M23.8122 159.146C23.3585 158.443 23.0991 157.632 23.0603 156.795C23.0215 155.959 23.2047 155.127 23.5913 154.385C23.99 153.649 24.5313 153.001 25.1835 152.477C25.8357 151.952 26.5858 151.564 27.39 151.333C28.1276 151.103 28.9845 151.01 29.625 151.439C29.9137 151.657 30.1385 151.949 30.2761 152.284C30.4136 152.619 30.4587 152.984 30.4068 153.342C30.2909 154.06 29.9859 154.734 29.5234 155.295C28.0525 157.287 26.268 158.943 23.7812 159.146" fill="#46C756"/>
<path d="M24.1478 168.48C24.0823 168.292 24.0364 168.098 24.0109 167.901C23.9314 167.486 23.8254 166.951 23.6973 166.311C23.3008 164.557 23.1904 162.751 23.3704 160.962C23.5787 159.164 24.2634 157.455 25.3537 156.01C25.6868 155.578 26.0709 155.188 26.4977 154.849C26.6136 154.757 26.7346 154.671 26.8599 154.592C26.8997 154.559 26.9444 154.533 26.9924 154.513C26.4337 154.99 25.9233 155.521 25.4685 156.099C24.4357 157.544 23.7854 159.228 23.578 160.993C23.2953 163.051 23.6443 164.937 23.8475 166.293C23.9535 166.969 24.0418 167.517 24.0904 167.897C24.1252 168.089 24.1444 168.284 24.1478 168.48Z" fill="#46C756"/>
<path d="M15.0886 145.18C15.1391 145.249 15.1806 145.325 15.2123 145.405C15.2918 145.582 15.3978 145.803 15.5215 146.081C15.7909 146.668 16.1664 147.521 16.6213 148.576C17.5312 150.692 18.7503 153.634 20.0224 156.911C21.2945 160.189 22.3767 163.179 23.1144 165.357C23.4942 166.443 23.7902 167.327 23.9978 167.941C24.0905 168.232 24.1612 168.466 24.2186 168.647C24.2501 168.729 24.2724 168.813 24.2849 168.899C24.2401 168.824 24.2045 168.744 24.1789 168.661C24.1126 168.484 24.0287 168.254 23.9183 167.967L22.9863 165.405C22.1956 163.245 21.0914 160.259 19.8237 156.986C18.556 153.713 17.3546 150.763 16.48 148.634C16.0383 147.587 15.6982 146.735 15.4464 146.112C15.3316 145.829 15.2388 145.604 15.1681 145.423C15.1349 145.344 15.1084 145.263 15.0886 145.18Z" fill="#46C756"/>
<path d="M20.5569 162.305C19.648 160.791 18.3921 159.516 16.8928 158.585C15.3936 157.653 13.6941 157.092 11.9349 156.947C11.0515 156.885 9.96488 157.035 9.56735 157.83C9.16982 158.625 9.69986 159.597 10.3094 160.242C11.6045 161.597 13.2717 162.538 15.1009 162.947C16.93 163.355 18.8392 163.213 20.5878 162.539" fill="#46C756"/>
<path d="M13.2952 159.341C13.4825 159.331 13.6702 159.339 13.8561 159.363C14.0739 159.375 14.2908 159.4 14.5054 159.438C14.7572 159.487 15.0532 159.513 15.3624 159.601C15.708 159.674 16.0487 159.769 16.3827 159.884C16.7696 160.008 17.1487 160.156 17.5179 160.326C18.367 160.706 19.1702 161.182 19.9119 161.744C20.645 162.319 21.3091 162.977 21.8907 163.705C22.1419 164.022 22.3735 164.354 22.5842 164.699C22.7747 164.997 22.9486 165.305 23.1054 165.622C23.2381 165.88 23.3561 166.145 23.4588 166.417C23.5473 166.618 23.6226 166.824 23.684 167.035C23.7495 167.211 23.7983 167.393 23.8298 167.579C23.7812 167.579 23.5692 166.819 22.9729 165.688C22.8105 165.384 22.6321 165.089 22.4384 164.805C22.2232 164.47 21.9902 164.147 21.7405 163.837C20.5852 162.41 19.1119 161.272 17.4384 160.516C17.0541 160.348 16.6875 160.189 16.3297 160.074C16.0012 159.954 15.6665 159.853 15.327 159.769C14.0902 159.429 13.2908 159.389 13.2952 159.341Z" fill="#46C756"/>
<path d="M213.797 20.9067C212.499 21.2027 211.867 22.7 211.744 24.0251C211.62 25.3502 211.788 26.7549 211.231 27.9651C210.604 29.3256 209.107 30.3327 209.058 31.83C209.027 32.7444 209.57 33.5968 209.544 34.52C209.5 36.0218 207.971 37.1702 207.887 38.6543C207.83 39.7365 208.55 40.7701 208.378 41.839C208.245 42.6694 207.596 43.3231 207.322 44.1182C206.779 45.7083 207.87 47.4531 209.288 48.3453C210.082 48.8447 210.976 49.1646 211.907 49.2828C212.837 49.4009 213.783 49.3143 214.677 49.0291C215.571 48.7439 216.391 48.2669 217.082 47.6316C217.772 46.9962 218.316 46.2177 218.674 45.3506C219.46 43.4424 219.288 41.2913 219.116 39.2374C218.586 32.8297 218.191 26.4133 217.932 19.988" fill="#263238"/>
<path d="M210.025 43.5131C210.292 43.347 210.501 43.1014 210.621 42.8107C210.749 42.4651 210.8 42.0959 210.772 41.7286C210.723 41.2416 210.615 40.7624 210.449 40.3019C210.238 39.723 210.159 39.1041 210.219 38.4909C210.33 37.8018 210.825 37.2365 211.271 36.6799C211.511 36.4075 211.712 36.1027 211.867 35.7744C212.023 35.4424 212.048 35.0641 211.938 34.7143C211.708 33.9944 211.001 33.4643 210.679 32.6295C210.527 32.2162 210.503 31.7671 210.608 31.3397C210.708 30.939 210.857 30.5519 211.05 30.1869C211.423 29.5294 211.719 28.8314 211.933 28.1065C212.242 26.7063 212.097 25.3679 212.309 24.2681C212.426 23.3872 212.817 22.5654 213.426 21.9182C213.599 21.7439 213.795 21.5951 214.009 21.4765C214.083 21.438 214.162 21.4098 214.243 21.3926C213.967 21.545 213.712 21.7353 213.488 21.958C212.924 22.6116 212.568 23.4193 212.468 24.2769C212.39 24.8627 212.349 25.4528 212.344 26.0437C212.343 26.7391 212.275 27.4328 212.141 28.1153C211.93 28.8569 211.634 29.5714 211.257 30.2443C210.926 30.9378 210.621 31.7505 210.913 32.5102C211.204 33.27 211.907 33.7956 212.176 34.6083C212.298 35.0098 212.268 35.442 212.092 35.823C211.92 36.1843 211.697 36.519 211.43 36.8168C210.988 37.3734 210.507 37.9034 210.401 38.5218C210.339 39.1084 210.408 39.7013 210.604 40.2577C210.762 40.7325 210.859 41.2251 210.895 41.7242C210.917 42.1085 210.849 42.4926 210.697 42.8461C210.602 43.0677 210.449 43.2598 210.255 43.4026C210.186 43.4532 210.108 43.4907 210.025 43.5131Z" fill="#455A64"/>
<path d="M206.571 53.9858L202.596 65.4701L185.97 66.3535L183.196 72.5374L200.555 74.3042C201.375 74.6409 202.255 74.8078 203.141 74.7949C204.028 74.782 204.903 74.5896 205.713 74.2291C206.523 73.8687 207.251 73.3479 207.854 72.698C208.457 72.0481 208.922 71.2827 209.221 70.4481L213.855 57.515L206.571 53.9858Z" fill="#EBB376"/>
<path d="M240.94 162.349C240.94 162.349 228.758 123.647 228.497 122.392C228.263 121.253 232.914 93.4034 233.506 86.1727L217.044 86.7867V86.9501L210.047 87.3388L216.311 166.457H223.886L223.135 140.197C227.808 152.737 234.504 165.52 234.504 165.52L240.94 162.349Z" fill="#EBB376"/>
<path d="M223.444 149.619C223.444 149.38 223.351 140.82 223.351 140.82C223.259 141.333 220.449 133.391 220.516 132.909C220.551 132.658 223.444 149.619 223.444 149.619Z" fill="#D37E21"/>
<path d="M220.198 129.146C220.159 129.303 220.143 129.465 220.149 129.627C220.125 130.069 220.125 130.511 220.149 130.953C220.149 131.231 220.189 131.531 220.224 131.858C220.26 132.185 220.308 132.529 220.383 132.887C220.54 133.669 220.748 134.439 221.006 135.193C221.554 136.796 222.163 138.196 222.592 139.212C222.795 139.654 222.972 140.074 223.122 140.409C223.176 140.566 223.25 140.714 223.343 140.851C223.319 140.698 223.275 140.55 223.21 140.409C223.109 140.118 222.954 139.698 222.768 139.181C222.38 138.148 221.797 136.734 221.253 135.149C220.996 134.406 220.786 133.647 220.622 132.878C220.542 132.525 220.489 132.185 220.441 131.867C220.392 131.549 220.357 131.249 220.335 130.983C220.282 130.436 220.26 129.994 220.246 129.685C220.255 129.504 220.238 129.323 220.198 129.146Z" fill="#D37E21"/>
<path d="M216.169 166.859V166.147L223.93 165.807L223.952 168.745L223.475 168.776C221.341 168.899 212.631 169.261 211.209 168.833C209.614 168.356 216.169 166.859 216.169 166.859Z" fill="#24292C"/>
<path d="M224.054 168.568C224.01 168.571 223.965 168.571 223.921 168.568L223.541 168.594L222.137 168.656C220.953 168.705 219.314 168.749 217.508 168.758C215.701 168.767 214.058 168.736 212.87 168.7L211.47 168.643H211.085H210.953C210.997 168.639 211.041 168.639 211.085 168.643H211.47L212.874 168.67C214.058 168.67 215.697 168.705 217.503 168.696C219.31 168.687 220.953 168.656 222.137 168.625L223.541 168.59H224.054V168.568Z" fill="#263238"/>
<path d="M213.638 168.815C213.574 168.584 213.485 168.361 213.373 168.148C213.234 167.953 213.072 167.773 212.892 167.614C213.133 167.7 213.333 167.873 213.453 168.1C213.599 168.308 213.665 168.562 213.638 168.815Z" fill="#263238"/>
<path d="M215.926 167.654C215.926 167.654 215.798 167.534 215.683 167.358C215.568 167.181 215.498 167.026 215.52 167.013C215.542 167 215.648 167.128 215.763 167.305C215.878 167.481 215.948 167.64 215.926 167.654Z" fill="#263238"/>
<path d="M216.554 167.34C216.554 167.362 216.412 167.278 216.28 167.159C216.147 167.04 216.05 166.929 216.068 166.912C216.085 166.894 216.209 166.973 216.342 167.093C216.474 167.212 216.571 167.3 216.554 167.34Z" fill="#263238"/>
<path d="M216.947 166.589C216.817 166.637 216.678 166.655 216.54 166.642C216.405 166.66 216.268 166.646 216.138 166.602C216.267 166.555 216.404 166.537 216.54 166.549C216.677 166.531 216.816 166.544 216.947 166.589Z" fill="#263238"/>
<path d="M217.079 166.077C216.948 166.162 216.794 166.208 216.638 166.209C216.487 166.229 216.335 166.208 216.196 166.147C216.342 166.123 216.49 166.111 216.638 166.112C216.783 166.086 216.931 166.074 217.079 166.077Z" fill="#263238"/>
<path d="M215.666 166.978C215.501 167.009 215.332 167.009 215.167 166.978C214.988 166.956 214.812 166.918 214.641 166.863C214.535 166.834 214.433 166.792 214.336 166.739C214.277 166.705 214.233 166.65 214.213 166.585C214.204 166.548 214.207 166.509 214.221 166.474C214.234 166.439 214.257 166.408 214.288 166.386C214.41 166.327 214.544 166.295 214.68 166.294C214.816 166.293 214.95 166.322 215.074 166.379C215.197 166.436 215.306 166.52 215.393 166.624C215.48 166.728 215.543 166.851 215.577 166.982C215.586 167.026 215.586 167.071 215.577 167.115C215.527 166.955 215.45 166.806 215.348 166.673C215.23 166.541 215.077 166.446 214.906 166.399C214.711 166.336 214.498 166.352 214.314 166.443C214.239 166.501 214.27 166.594 214.354 166.647C214.444 166.695 214.539 166.735 214.637 166.766C214.803 166.82 214.972 166.863 215.145 166.894C215.476 166.965 215.666 166.965 215.666 166.978Z" fill="#263238"/>
<path d="M215.538 167.004C215.473 166.902 215.451 166.778 215.476 166.66C215.492 166.53 215.539 166.406 215.613 166.298C215.654 166.224 215.714 166.162 215.785 166.117C215.857 166.072 215.939 166.046 216.024 166.041C216.074 166.053 216.117 166.083 216.146 166.126C216.175 166.168 216.186 166.22 216.178 166.271C216.167 166.35 216.139 166.426 216.094 166.492C216.027 166.601 215.949 166.704 215.86 166.797C215.783 166.885 215.686 166.953 215.578 166.995C215.578 166.995 215.675 166.907 215.812 166.748C215.891 166.657 215.961 166.558 216.019 166.452C216.085 166.346 216.134 166.156 216.019 166.134C215.904 166.112 215.772 166.249 215.697 166.346C215.627 166.442 215.578 166.552 215.555 166.669C215.537 166.78 215.532 166.892 215.538 167.004Z" fill="#263238"/>
<path d="M223.89 166.457C223.89 166.457 223.669 166.457 223.32 166.479C222.866 166.533 222.436 166.714 222.079 167C221.722 167.287 221.453 167.668 221.302 168.1C221.187 168.431 221.178 168.656 221.16 168.652C221.143 168.647 221.16 168.594 221.16 168.497C221.172 168.355 221.198 168.214 221.24 168.078C221.381 167.626 221.651 167.225 222.017 166.925C222.389 166.63 222.839 166.454 223.312 166.417C223.458 166.399 223.607 166.399 223.753 166.417C223.8 166.424 223.846 166.438 223.89 166.457Z" fill="#263238"/>
<path d="M220.176 167.95C219.805 168.036 219.425 168.073 219.045 168.06C218.667 168.079 218.288 168.046 217.918 167.963C217.918 167.936 218.422 167.963 219.045 167.963C219.668 167.963 220.171 167.923 220.176 167.95Z" fill="#263238"/>
<path d="M221.686 167.936C221.686 167.936 221.646 168.042 221.593 168.157C221.54 168.272 221.514 168.378 221.487 168.374C221.461 168.369 221.448 168.254 221.509 168.117C221.571 167.981 221.668 167.914 221.686 167.936Z" fill="#263238"/>
<path d="M222.256 167.225C222.256 167.225 222.225 167.322 222.146 167.402C222.066 167.481 221.987 167.534 221.965 167.517C221.942 167.499 221.995 167.42 222.075 167.336C222.154 167.252 222.234 167.203 222.256 167.225Z" fill="#263238"/>
<path d="M223.069 166.898C223.069 166.925 222.963 166.925 222.848 166.965C222.733 167.004 222.653 167.066 222.631 167.049C222.609 167.031 222.676 166.925 222.817 166.876C222.958 166.828 223.077 166.872 223.069 166.898Z" fill="#263238"/>
<path d="M223.647 166.739C223.647 166.766 223.616 166.806 223.55 166.828C223.484 166.85 223.426 166.854 223.418 166.828C223.409 166.801 223.453 166.761 223.515 166.739C223.577 166.717 223.638 166.717 223.647 166.739Z" fill="#263238"/>
<path d="M234.35 166.174L234.058 165.525L240.997 162.04L242.221 164.69L241.779 164.915C239.884 165.9 232.088 169.796 230.613 169.99C228.983 170.224 234.35 166.174 234.35 166.174Z" fill="#24292C"/>
<path d="M242.247 164.5L242.132 164.571L241.792 164.747L240.538 165.383C239.478 165.909 238.003 166.62 236.355 167.371C234.707 168.122 233.197 168.762 232.101 169.217L230.798 169.743L230.445 169.88C230.404 169.899 230.361 169.912 230.317 169.92L230.436 169.862L230.785 169.708L232.075 169.155C233.166 168.687 234.668 168.033 236.315 167.283C237.963 166.532 239.442 165.834 240.511 165.321L241.775 164.716L242.124 164.553L242.247 164.5Z" fill="#263238"/>
<path d="M232.861 168.992C232.708 168.805 232.535 168.637 232.344 168.488C232.137 168.366 231.916 168.268 231.686 168.197C231.94 168.193 232.188 168.268 232.398 168.41C232.608 168.552 232.77 168.755 232.861 168.992Z" fill="#263238"/>
<path d="M234.456 166.995C234.456 166.995 234.288 166.942 234.111 166.828C233.935 166.713 233.807 166.602 233.82 166.58C233.833 166.558 233.988 166.633 234.164 166.748C234.341 166.863 234.469 166.973 234.456 166.995Z" fill="#263238"/>
<path d="M234.889 166.457C234.889 166.479 234.739 166.457 234.566 166.404C234.394 166.351 234.266 166.284 234.27 166.258C234.382 166.247 234.495 166.266 234.597 166.311C234.765 166.351 234.898 166.412 234.889 166.457Z" fill="#263238"/>
<path d="M234.95 165.609C234.95 165.635 234.805 165.728 234.602 165.825C234.484 165.895 234.353 165.939 234.217 165.953C234.217 165.927 234.363 165.834 234.562 165.737C234.681 165.667 234.813 165.623 234.95 165.609Z" fill="#263238"/>
<path d="M234.862 165.087C234.862 165.087 234.734 165.264 234.504 165.392C234.374 165.48 234.22 165.527 234.062 165.525C234.189 165.44 234.324 165.367 234.464 165.308C234.681 165.189 234.84 165.065 234.862 165.087Z" fill="#263238"/>
<path d="M233.957 166.492C233.822 166.584 233.673 166.653 233.515 166.695C233.341 166.746 233.164 166.783 232.985 166.806C232.876 166.819 232.767 166.819 232.658 166.806C232.59 166.8 232.526 166.769 232.481 166.717C232.461 166.686 232.45 166.649 232.45 166.611C232.45 166.574 232.461 166.537 232.481 166.505C232.616 166.343 232.802 166.232 233.009 166.191C233.216 166.151 233.431 166.184 233.617 166.284C233.726 166.342 233.822 166.422 233.899 166.518C233.952 166.589 233.974 166.633 233.97 166.638C233.861 166.516 233.731 166.416 233.586 166.342C233.43 166.269 233.257 166.243 233.087 166.267C232.985 166.277 232.887 166.308 232.798 166.356C232.708 166.405 232.629 166.47 232.565 166.549C232.517 166.633 232.565 166.704 232.685 166.717C232.786 166.726 232.888 166.726 232.989 166.717C233.165 166.7 233.339 166.669 233.511 166.624C233.762 166.554 233.957 166.479 233.957 166.492Z" fill="#263238"/>
<path d="M233.833 166.567C233.735 166.497 233.665 166.393 233.639 166.276C233.6 166.151 233.591 166.02 233.612 165.891C233.62 165.806 233.649 165.725 233.697 165.655C233.745 165.584 233.81 165.527 233.886 165.489C233.996 165.454 234.253 165.679 234.27 165.763C234.288 165.847 234.142 165.803 234.133 165.874C234.119 165.999 234.089 166.122 234.045 166.24C234.013 166.354 233.952 166.457 233.868 166.541C233.868 166.541 233.921 166.421 233.983 166.223C234.015 166.105 234.037 165.986 234.049 165.865C234.049 165.741 234.049 165.551 233.908 165.582C233.767 165.613 233.727 165.785 233.696 165.909C233.669 166.024 233.669 166.143 233.696 166.258C233.733 166.365 233.778 166.468 233.833 166.567Z" fill="#263238"/>
<path d="M241.232 162.64C241.232 162.64 241.02 162.715 240.719 162.897C240.327 163.131 240.007 163.471 239.796 163.877C239.592 164.287 239.505 164.746 239.544 165.202C239.571 165.556 239.655 165.759 239.637 165.768C239.609 165.724 239.586 165.676 239.571 165.626C239.527 165.491 239.496 165.352 239.478 165.211C239.415 164.741 239.496 164.262 239.712 163.839C239.927 163.416 240.266 163.069 240.684 162.844C240.809 162.774 240.941 162.718 241.077 162.676C241.127 162.656 241.179 162.644 241.232 162.64Z" fill="#263238"/>
<path d="M238.453 165.529C237.831 165.962 237.135 166.279 236.399 166.465C236.399 166.439 236.863 166.262 237.429 166.024C237.994 165.785 238.44 165.507 238.453 165.529Z" fill="#263238"/>
<path d="M239.827 164.897C239.849 164.897 239.827 165.008 239.827 165.136C239.827 165.264 239.827 165.37 239.827 165.379C239.827 165.388 239.739 165.282 239.739 165.136C239.739 164.99 239.805 164.884 239.827 164.897Z" fill="#263238"/>
<path d="M240.052 164.014C240.074 164.014 240.052 164.116 240.026 164.222C239.999 164.328 239.933 164.407 239.911 164.398C239.889 164.389 239.911 164.297 239.937 164.191C239.964 164.085 240.026 164.005 240.052 164.014Z" fill="#263238"/>
<path d="M240.662 163.365C240.662 163.391 240.573 163.431 240.485 163.515C240.397 163.599 240.348 163.687 240.326 163.678C240.304 163.669 240.326 163.546 240.423 163.444C240.52 163.343 240.657 163.365 240.662 163.365Z" fill="#263238"/>
<path d="M241.126 163.003C241.126 163.003 241.126 163.073 241.073 163.122C241.02 163.17 240.971 163.197 240.953 163.179C240.936 163.162 240.953 163.109 241.006 163.06C241.059 163.011 241.108 162.985 241.126 163.003Z" fill="#263238"/>
<path d="M232.437 73.0983L231.148 57.3295L237.773 57.4488C237.773 57.4488 238.078 55.121 237.102 50.0238C236.501 46.8965 234.421 44.9795 232.084 43.8399V43.7958L231.881 43.7428C229.957 42.8792 227.903 42.3432 225.803 42.157L217.654 42.2498C217.654 42.2498 211.43 41.4547 207.998 45.9115C206.673 47.6209 202.561 59.3216 202.561 59.3216L212.344 64.0302L211.43 57.5415C211.43 57.5415 211.615 62.2457 212.216 63.7254C212.547 64.5558 213.541 67.1353 213.541 67.1353L213.413 74.9181L232.437 73.0983Z" fill="#E9EFFD"/>
<path d="M227.945 55.0415L226.735 60.1918H238.144L237.393 51.5521L227.945 55.0415Z" fill="#E9EFFD"/>
<path d="M238.144 60.1917C237.645 60.0999 237.14 60.0497 236.633 60.0416C235.697 59.9886 234.425 59.94 232.976 59.9488C231.527 59.9576 230.251 60.0195 229.314 60.0901C228.808 60.1078 228.304 60.1699 227.808 60.2757C228.314 60.3159 228.822 60.3159 229.328 60.2757C230.26 60.2447 231.536 60.2094 232.976 60.205C234.416 60.2006 235.692 60.205 236.629 60.2271C237.134 60.2554 237.641 60.2436 238.144 60.1917Z" fill="#263238"/>
<path d="M227.45 51.5123C227.396 51.9519 227.384 52.3956 227.415 52.8374C227.415 53.6458 227.45 54.7588 227.499 55.9912C227.547 57.2235 227.605 58.3411 227.658 59.145C227.66 59.5903 227.707 60.0343 227.799 60.4701C227.853 60.0305 227.865 59.5868 227.835 59.145C227.835 58.3366 227.799 57.2191 227.751 55.9868C227.702 54.7544 227.645 53.6413 227.592 52.833C227.59 52.3891 227.542 51.9466 227.45 51.5123Z" fill="#263238"/>
<g opacity="0.3">
<path opacity="0.3" d="M217.07 55.9735C217.07 55.9735 219.606 74.7768 226.735 74.2777C226.735 74.2777 229.946 74.2423 230.975 72.1089V71.2697L217.07 55.9735Z" fill="black"/>
</g>
<g opacity="0.3">
<path opacity="0.3" d="M227.451 52.621L226.086 61.8393L226.969 63.4559L228.427 60.2933L227.808 60.2757L227.451 52.621Z" fill="black"/>
</g>
<path d="M213.501 67.1441C213.417 67.0065 213.351 66.8579 213.307 66.7024C213.197 66.4153 213.051 65.9957 212.865 65.4701C212.423 64.1005 212.059 62.7069 211.774 61.296C211.491 59.8843 211.311 58.4538 211.236 57.0159C211.209 56.4638 211.2 56.0176 211.209 55.6908C211.198 55.5311 211.208 55.3706 211.24 55.2137C211.275 55.2137 211.302 55.894 211.395 56.9806C211.519 58.4054 211.721 59.8225 212 61.2253C212.327 62.8685 212.72 64.3393 213.02 65.395C213.161 65.8853 213.281 66.3049 213.378 66.6494C213.438 66.8089 213.48 66.9749 213.501 67.1441Z" fill="#263238"/>
<path d="M216.381 72.5462C216.319 72.5462 216.143 72.1619 215.988 71.6628C215.855 71.3569 215.796 71.024 215.816 70.691C216.011 70.961 216.145 71.2699 216.209 71.5965C216.336 71.8965 216.394 72.2208 216.381 72.5462Z" fill="#263238"/>
<path d="M217.366 72.4755C217.032 71.5895 217.018 70.6146 217.327 69.7193C217.361 70.178 217.361 70.6387 217.327 71.0974C217.375 71.5551 217.388 72.0158 217.366 72.4755Z" fill="#263238"/>
<path d="M212.543 64.2466C212.512 64.2996 210.237 63.2218 207.459 61.8349C204.68 60.4479 202.45 59.273 202.476 59.2156C202.503 59.1581 204.782 60.2403 207.56 61.6273C210.339 63.0142 212.569 64.1891 212.543 64.2466Z" fill="#263238"/>
<path d="M216.553 43.7737C216.602 41.5387 216.615 39.1888 216.615 39.1888C216.615 39.1888 213.749 38.6367 213.25 34.8645C212.772 31.2691 214.106 22.8281 214.106 22.8281C218.294 21.2469 222.645 22.6824 225.511 26.0747L224.8 44.2154C224.716 46.3223 222.839 47.9301 220.586 47.8241C218.307 47.7137 216.505 45.9027 216.553 43.7737Z" fill="#EBB376"/>
<path d="M216.615 39.1889C218.383 39.2596 220.135 38.8392 221.677 37.9742C221.677 37.9742 220.392 40.5228 216.642 40.0767L216.615 39.1889Z" fill="#D37E21"/>
<path d="M223.797 30.505C223.356 31.5386 222.26 32.338 222.41 33.4555C222.508 34.1755 222.971 34.8469 222.883 35.5713C222.768 36.4547 221.827 37.1084 221.69 38.0139C221.527 39.1226 222.609 39.9839 223.038 41.0175C223.669 42.5281 222.865 44.2243 222.843 45.8762C222.869 47.1304 223.349 48.3327 224.194 49.2602C225.038 50.1877 226.191 50.7776 227.437 50.9205C228.444 51.0044 229.579 50.6996 230.087 49.8339C230.529 49.1183 230.432 48.2084 230.688 47.4178C231.077 46.234 232.203 45.3683 232.455 44.1492C232.896 41.9407 230.202 40.0855 230.379 37.824C230.454 36.8567 231.05 36.0174 231.302 35.081C231.462 34.4656 231.475 33.821 231.338 33.1999C231.201 32.5788 230.919 31.9989 230.516 31.5076C229.849 30.717 228.886 30.1825 228.307 29.3345C227.667 28.3583 227.645 27.1259 227.424 25.9731C227.127 24.5718 226.48 23.2686 225.543 22.1853C224.606 21.102 223.41 20.2739 222.066 19.7784C220.722 19.283 219.275 19.1363 217.859 19.3522C216.443 19.5681 215.105 20.1394 213.969 21.0128C213.969 21.0128 213.329 23.9236 216.319 24.4139C219.31 24.9042 220.692 24.3388 221.028 25.5358C220.949 26.0289 220.988 26.5338 221.141 27.009C221.295 27.4842 221.559 27.9163 221.911 28.27C223.13 29.5862 224.292 29.3035 223.797 30.505Z" fill="#263238"/>
<path d="M228.546 50.6952C228.454 50.6983 228.362 50.6894 228.272 50.6687C228.013 50.6227 227.759 50.5532 227.512 50.4611C226.6 50.1114 225.8 49.5205 225.198 48.7517C224.775 48.2211 224.444 47.624 224.217 46.9849C223.959 46.2569 223.823 45.4912 223.815 44.7189C223.806 43.8677 223.913 43.0191 224.133 42.1968C224.254 41.7625 224.401 41.3361 224.575 40.9203C224.757 40.5063 224.918 40.0832 225.056 39.6526C225.178 39.2282 225.178 38.7783 225.056 38.354C224.927 37.9362 224.76 37.5311 224.557 37.1437C224.352 36.7595 224.18 36.3592 224.04 35.9467C223.904 35.5384 223.873 35.1027 223.948 34.679C224.124 33.8486 224.628 33.2302 224.928 32.5986C225.214 32.0139 225.351 31.3674 225.326 30.7169C225.286 29.7651 224.94 28.8514 224.341 28.1109C224.109 27.8515 223.859 27.608 223.594 27.3821C223.904 27.5561 224.181 27.7834 224.411 28.0535C225.055 28.7928 225.434 29.7252 225.489 30.7037C225.526 31.3825 225.392 32.0596 225.1 32.6737C224.796 33.3274 224.305 33.9502 224.155 34.7099C224.005 35.4697 224.363 36.2691 224.756 37.0377C224.97 37.4362 225.145 37.8549 225.277 38.2877C225.408 38.7498 225.408 39.239 225.277 39.7012C225.13 40.1468 224.961 40.5846 224.769 41.013C224.595 41.4199 224.448 41.8374 224.327 42.263C224.108 43.0646 224 43.8924 224.005 44.7233C223.991 46.1385 224.448 47.5182 225.304 48.6457C225.876 49.4049 226.637 50.0005 227.512 50.3727C228.17 50.6289 228.55 50.6686 228.546 50.6952Z" fill="#455A64"/>
<path d="M228.104 28.4068C227.889 28.4626 227.668 28.4952 227.446 28.504C226.84 28.5689 226.228 28.5525 225.626 28.4554C225.17 28.3879 224.732 28.23 224.338 27.9911C223.943 27.7522 223.6 27.4371 223.329 27.0641C223.077 26.5922 222.875 26.0946 222.729 25.5799C222.54 25.0658 222.186 24.6291 221.721 24.3388C220.754 23.7248 219.619 23.6497 218.63 23.5304C217.717 23.485 216.831 23.2083 216.054 22.7265C215.534 22.382 215.159 21.8586 214.999 21.2557C214.96 21.0923 214.95 20.9235 214.968 20.7566C214.968 20.6417 214.994 20.5843 215.003 20.5843C215.008 20.8031 215.036 21.0207 215.087 21.2336C215.27 21.7974 215.645 22.2789 216.147 22.594C216.909 23.0387 217.77 23.2876 218.652 23.3184C219.641 23.4333 220.816 23.4907 221.85 24.1444C222.355 24.462 222.741 24.9392 222.945 25.5004C223.083 26.0021 223.274 26.4877 223.515 26.9492C224.029 27.655 224.8 28.1308 225.661 28.2743C226.244 28.3826 226.837 28.4226 227.428 28.3936C227.654 28.3809 227.879 28.3854 228.104 28.4068Z" fill="#455A64"/>
<path d="M227.009 24.8114C226.842 24.8671 226.667 24.8925 226.492 24.8865C225.669 24.8921 224.876 24.575 224.283 24.0031C224.013 23.7322 223.783 23.4243 223.599 23.0888C223.201 22.4174 222.817 21.5914 221.991 21.2469C221.195 20.9799 220.347 20.9057 219.517 21.0305C218.817 21.1288 218.106 21.1288 217.406 21.0305C216.919 20.9628 216.46 20.761 216.081 20.4474C215.983 20.362 215.897 20.264 215.825 20.1559C215.772 20.0793 215.75 20.0396 215.758 20.0366C215.758 20.0366 215.882 20.178 216.138 20.3767C216.516 20.6454 216.955 20.8154 217.415 20.8714C218.103 20.949 218.797 20.9371 219.482 20.8361C220.348 20.6946 221.236 20.7705 222.066 21.057C222.493 21.2486 222.858 21.5543 223.122 21.9404C223.355 22.2847 223.568 22.6415 223.762 23.0093C223.936 23.3303 224.152 23.6273 224.403 23.8927C224.624 24.1171 224.879 24.3063 225.158 24.4536C225.569 24.6682 226.02 24.7931 226.483 24.8203C226.823 24.8158 227.004 24.7893 227.009 24.8114Z" fill="#455A64"/>
<path d="M229.862 49.7411C229.84 49.7411 229.981 49.4496 230.145 48.9018C230.366 48.1329 230.464 47.3339 230.436 46.5343C230.404 45.3507 230.081 44.1932 229.495 43.1641C229.173 42.5855 228.683 42.0687 228.281 41.4326C228.068 41.1086 227.918 40.7475 227.839 40.3681C227.769 39.9688 227.803 39.5583 227.936 39.1755C228.184 38.4114 228.625 37.7709 228.722 37.0686C228.82 36.3663 228.484 35.7435 228.148 35.1561C227.975 34.8702 227.817 34.5753 227.676 34.2727C227.546 33.9791 227.462 33.668 227.424 33.3495C227.382 32.7882 227.4 32.2241 227.477 31.6666C227.618 30.8785 227.545 30.0669 227.265 29.3167C227.14 29.054 226.962 28.8195 226.744 28.6277C226.744 28.6277 226.766 28.6277 226.797 28.6542C226.849 28.6802 226.897 28.7145 226.938 28.7558C227.111 28.8997 227.251 29.0789 227.349 29.2814C227.668 30.038 227.768 30.8693 227.636 31.6799C227.575 32.227 227.568 32.7788 227.614 33.3274C227.723 33.9445 227.967 34.5298 228.329 35.0412C228.518 35.3397 228.679 35.6546 228.811 35.982C228.95 36.3355 228.996 36.7189 228.943 37.0951C228.837 37.8681 228.382 38.5218 228.153 39.2418C228.032 39.5892 228 39.9612 228.06 40.324C228.137 40.6749 228.278 41.0088 228.475 41.309C228.851 41.9229 229.359 42.4486 229.681 43.0537C230.273 44.1175 230.589 45.3126 230.6 46.5299C230.614 47.3447 230.488 48.1559 230.229 48.9283C230.158 49.1374 230.072 49.3411 229.972 49.5379C229.946 49.6105 229.908 49.679 229.862 49.7411Z" fill="#455A64"/>
<path d="M211.872 132.044C211.872 132.044 208.895 103.845 208.722 93.4255C208.55 83.0057 213.409 72.7229 213.409 72.7229L232.437 71.9323C232.437 71.9323 236.201 82.5022 236.267 86.9501C236.399 95.581 233.974 104.101 234.253 110.948L234.889 132.061" fill="#407BFF"/>
<path d="M235.529 97.3743C235.43 97.4605 235.325 97.5402 235.215 97.6129L235.043 97.7321L234.858 97.9132C234.694 98.0547 234.546 98.2131 234.416 98.3858C233.802 99.1367 233.356 100.484 232.927 102.158C232.708 103.087 232.385 103.987 231.964 104.844C231.836 105.078 231.689 105.301 231.523 105.51C231.443 105.616 231.368 105.731 231.275 105.833L230.984 106.124C230.566 106.515 230.081 106.826 229.553 107.043C228.488 107.511 227.282 107.732 226.187 108.284C225.065 108.888 224.198 109.876 223.744 111.067C223.205 112.264 222.861 113.519 222.419 114.693C221.977 115.868 221.381 116.99 220.432 117.706C219.524 118.337 218.445 118.677 217.34 118.682C216.315 118.744 215.365 118.713 214.513 118.841C213.746 118.921 213.012 119.198 212.384 119.645C211.925 120.004 211.581 120.489 211.394 121.041C211.276 121.389 211.25 121.762 211.319 122.123C211.372 122.37 211.438 122.49 211.425 122.494C211.354 122.383 211.303 122.26 211.275 122.132C211.182 121.763 211.194 121.376 211.31 121.014C211.486 120.435 211.832 119.922 212.304 119.543C212.948 119.057 213.711 118.752 214.513 118.66C215.396 118.519 216.337 118.536 217.348 118.47C218.422 118.463 219.468 118.13 220.348 117.516C221.24 116.736 221.899 115.724 222.251 114.592C222.693 113.43 223.015 112.171 223.576 110.952C224.052 109.712 224.958 108.685 226.13 108.059C227.269 107.494 228.475 107.277 229.513 106.827C230.021 106.616 230.488 106.317 230.891 105.943L231.169 105.665C231.258 105.568 231.333 105.457 231.412 105.356C231.568 105.155 231.705 104.941 231.823 104.715C232.246 103.871 232.574 102.982 232.799 102.065C233.241 100.396 233.722 99.0307 234.372 98.2754C234.501 98.1033 234.649 97.9462 234.813 97.8072C234.884 97.7454 234.946 97.6835 235.008 97.6349L235.189 97.5201C235.299 97.4647 235.413 97.416 235.529 97.3743Z" fill="#FAFAFA"/>
<path d="M235.644 84.3264C235.664 84.4505 235.673 84.5762 235.671 84.7019C235.669 85.0666 235.625 85.4298 235.538 85.784C235.158 87.0761 234.41 88.23 233.387 89.1056C232.711 89.7267 231.971 90.2731 231.178 90.7355C230.326 91.2391 229.385 91.7205 228.418 92.2682C227.402 92.813 226.455 93.4789 225.6 94.2515C224.722 95.1225 223.999 96.1367 223.462 97.2506C222.92 98.3797 222.302 99.4703 221.611 100.515C221.26 101.002 220.854 101.446 220.401 101.84C219.954 102.22 219.463 102.545 218.939 102.807C217.99 103.274 217.001 103.653 215.984 103.942C215.039 104.234 214.155 104.495 213.387 104.826C212.689 105.103 212.025 105.459 211.408 105.886C210.943 106.208 210.526 106.593 210.167 107.03C209.866 107.409 209.615 107.824 209.42 108.267C209.452 108.144 209.493 108.025 209.544 107.909C209.689 107.575 209.874 107.261 210.096 106.973C210.448 106.517 210.865 106.116 211.333 105.78C211.953 105.338 212.621 104.967 213.325 104.676C214.176 104.329 215.044 104.027 215.926 103.77C216.929 103.474 217.904 103.093 218.842 102.631C219.339 102.371 219.806 102.057 220.233 101.694C220.669 101.306 221.06 100.871 221.399 100.396C222.08 99.3561 222.693 98.2731 223.232 97.1535C223.786 96.0147 224.534 94.9806 225.441 94.0969C226.312 93.3128 227.276 92.6393 228.312 92.0916C229.284 91.5483 230.224 91.0756 231.077 90.5765C231.867 90.1295 232.608 89.5994 233.285 88.9952C234.3 88.1458 235.054 87.0263 235.459 85.7664C235.572 85.2944 235.634 84.8117 235.644 84.3264Z" fill="#FAFAFA"/>
<path d="M208.819 94.9008C208.802 94.8734 208.788 94.8437 208.78 94.8124C208.746 94.7273 208.718 94.6403 208.696 94.5518C208.62 94.2005 208.635 93.8356 208.74 93.4917C208.987 92.6083 209.963 91.4732 211.536 90.9122C212.322 90.6428 213.21 90.4705 214.137 90.2408C214.908 90.1132 215.636 89.8032 216.263 89.3368C216.889 88.8705 217.394 88.2611 217.737 87.5597C217.988 87.0449 218.208 86.5153 218.395 85.974C218.741 84.7982 219.21 83.6626 219.796 82.5861C220.467 81.528 221.485 80.7363 222.676 80.3467C223.759 79.9952 224.864 79.7148 225.984 79.5074C226.983 79.3155 227.951 78.9855 228.859 78.5268C229.629 78.0873 230.292 77.4842 230.803 76.76C231.557 75.7145 231.987 74.4703 232.04 73.1822C232.042 72.7095 232.011 72.2372 231.947 71.7688C232.08 72.2277 232.141 72.7045 232.128 73.1822C232.111 74.4982 231.695 75.7781 230.935 76.8528C230.418 77.6008 229.741 78.224 228.952 78.677C228.032 79.1528 227.049 79.4963 226.032 79.6974C224.923 79.908 223.828 80.1898 222.755 80.541C221.612 80.9156 220.634 81.676 219.99 82.6921C219.414 83.7539 218.95 84.8731 218.607 86.0314C218.417 86.5826 218.191 87.1211 217.932 87.6436C217.67 88.1456 217.337 88.6069 216.942 89.0129C216.166 89.7203 215.212 90.2015 214.182 90.4042C213.245 90.6428 212.362 90.7929 211.589 91.0491C210.056 91.5703 209.084 92.6437 208.824 93.5006C208.717 93.831 208.688 94.1819 208.74 94.5253C208.777 94.6479 208.804 94.7736 208.819 94.9008Z" fill="#FAFAFA"/>
<path d="M234.01 118.753C234.028 118.844 234.038 118.938 234.041 119.031C234.049 119.299 234.021 119.566 233.957 119.826C233.679 120.784 233.092 121.623 232.287 122.211C231.75 122.639 231.155 122.99 230.52 123.254C229.844 123.541 229.098 123.77 228.312 124.013C227.496 124.252 226.697 124.547 225.922 124.897C225.117 125.281 224.395 125.82 223.798 126.483C223.153 127.154 222.596 127.892 221.978 128.545C221.386 129.178 220.699 129.715 219.941 130.135C218.652 130.839 217.21 131.215 215.741 131.231C214.757 131.241 213.779 131.078 212.852 130.749C212.6 130.663 212.355 130.558 212.119 130.436C212.033 130.4 211.951 130.354 211.876 130.299C211.965 130.323 212.052 130.354 212.137 130.392C212.379 130.495 212.627 130.587 212.879 130.665C213.804 130.956 214.771 131.091 215.741 131.067C217.177 131.03 218.583 130.647 219.84 129.95C220.574 129.534 221.24 129.008 221.814 128.391C222.419 127.746 222.972 127.013 223.63 126.324C224.263 125.636 225.025 125.081 225.874 124.689C226.66 124.338 227.47 124.043 228.298 123.806C229.076 123.567 229.818 123.364 230.507 123.073C231.123 122.82 231.703 122.486 232.23 122.079C233.021 121.52 233.611 120.72 233.913 119.8C233.978 119.454 234.01 119.104 234.01 118.753Z" fill="#FAFAFA"/>
<path d="M231.841 60.2094L228.157 60.2978C228.015 61.0406 227.734 61.7496 227.327 62.387C224.235 57.0424 221.863 49.8868 221.271 47.0114C221.359 46.7242 221.461 46.4062 221.589 46.0529C221.681 45.5161 221.664 44.9665 221.54 44.4362C221.434 43.7958 221.258 42.9344 221.205 42.5369C221.041 41.3178 220.843 41.1279 220.419 41.2648C219.844 41.4547 220.657 44.6792 220.184 44.7498C219.928 44.7852 219.619 43.6809 219.531 42.7754C219.442 41.8699 219.027 39.0784 218.731 38.8929C218.29 38.619 217.905 39.0519 218.02 39.9529C218.135 40.854 218.272 43.5926 217.795 43.6323C217.318 43.6721 216.911 39.043 216.911 39.043C216.911 39.043 216.987 38.036 216.43 38.058C215.432 38.1022 216.214 42.9786 216.297 43.4424C216.359 43.7604 215.856 43.8223 215.794 43.4733C215.732 43.1244 215.502 38.8487 214.469 38.884C213.683 38.884 215.074 42.8991 214.632 43.8267C214.191 44.7542 213.89 40.6817 213.144 40.7348C212.865 40.7568 212.658 40.8098 213.17 43.1111C213.661 44.9396 214.251 46.7399 214.937 48.5043C216.121 54.8869 221.315 75.3068 229.456 71.57C234.014 69.4764 235.86 60.2094 235.86 60.2094H231.841Z" fill="#EBB376"/>
<path d="M216.138 43.7516C216.173 43.7604 216.21 43.7604 216.245 43.7516C216.298 43.7353 216.343 43.7006 216.373 43.6536C216.403 43.6067 216.416 43.5506 216.408 43.4954C216.408 43.2215 216.355 42.824 216.293 42.3072C216.19 41.6844 216.122 41.0561 216.09 40.4256C216.09 40.0545 216.09 39.657 216.112 39.2374C216.119 39.024 216.141 38.8114 216.178 38.6013C216.214 38.4026 216.346 38.1596 216.501 38.1994H216.527C216.682 38.1994 216.805 38.3142 216.854 38.4997C216.909 38.692 216.93 38.8922 216.916 39.0916C217.007 40.3286 217.165 41.5598 217.389 42.7798C217.424 42.9433 217.459 43.1111 217.512 43.279C217.536 43.3648 217.565 43.449 217.601 43.5307C217.623 43.5762 217.648 43.6205 217.676 43.6632C217.695 43.6955 217.723 43.7227 217.755 43.7427C217.787 43.7626 217.823 43.7747 217.861 43.7781C217.925 43.771 217.986 43.745 218.036 43.7033C218.085 43.6616 218.121 43.6062 218.139 43.544C218.177 43.4576 218.206 43.3672 218.223 43.2745C218.258 43.0965 218.281 42.9165 218.294 42.7357C218.334 41.9996 218.324 41.2617 218.263 40.5271C218.207 40.1604 218.192 39.7885 218.219 39.4185C218.235 39.2586 218.313 39.1113 218.435 39.0077C218.464 38.9909 218.495 38.9802 218.528 38.9764C218.561 38.9726 218.594 38.9757 218.625 38.9856C218.663 38.9946 218.699 39.0095 218.731 39.0298C218.754 39.0466 218.771 39.0696 218.78 39.096C218.919 39.4542 219.021 39.8257 219.085 40.2047C219.164 40.5934 219.23 40.9954 219.292 41.3973C219.354 41.7992 219.412 42.2056 219.46 42.6164C219.498 43.0403 219.566 43.461 219.663 43.8753C219.715 44.0871 219.782 44.2952 219.862 44.4981C219.907 44.6116 219.97 44.7175 220.048 44.8117C220.077 44.8508 220.118 44.8807 220.164 44.8979C220.21 44.9151 220.26 44.9189 220.308 44.9088C220.353 44.8941 220.393 44.868 220.425 44.8332C220.457 44.7984 220.479 44.756 220.489 44.7101C220.542 44.4844 220.558 44.2518 220.538 44.021C220.538 43.8002 220.511 43.5793 220.489 43.3673C220.458 42.9963 220.423 42.6297 220.41 42.2675C220.399 42.0895 220.399 41.911 220.41 41.733C220.419 41.6542 220.438 41.5769 220.467 41.5033C220.476 41.479 220.49 41.4566 220.507 41.4371H220.564C220.856 41.3178 220.953 41.7242 221.033 42.051C221.112 42.3779 221.143 42.7489 221.214 43.0979C221.329 43.7913 221.479 44.4848 221.554 45.1474C221.605 45.4646 221.593 45.7888 221.518 46.1014C221.412 46.4195 221.306 46.7331 221.205 47.0467V47.0776V47.1041C221.722 49.2741 222.382 51.4077 223.179 53.4911C223.877 55.3772 224.579 57.0247 225.193 58.3499C225.807 59.675 226.364 60.713 226.744 61.4109L227.185 62.2015C227.233 62.2957 227.291 62.3846 227.358 62.4665C227.321 62.3684 227.275 62.2738 227.221 62.1838L226.779 61.3755C226.417 60.6644 225.896 59.6087 225.295 58.2836C224.694 56.9585 224.014 55.3109 223.334 53.4249C222.555 51.3446 221.909 49.2173 221.399 47.0555V47.1174C221.501 46.8082 221.602 46.4946 221.708 46.1809C221.8 45.8367 221.818 45.477 221.761 45.1253C221.682 44.4318 221.536 43.7604 221.421 43.0625C221.355 42.718 221.311 42.3646 221.24 42.0024C221.236 41.8164 221.204 41.6319 221.147 41.4547C221.097 41.347 221.011 41.2597 220.904 41.2074C220.791 41.1703 220.669 41.1703 220.556 41.2074H220.485C220.447 41.2194 220.413 41.2389 220.383 41.2648C220.334 41.3064 220.296 41.3595 220.273 41.4194C220.232 41.515 220.207 41.6163 220.198 41.7197C220.185 41.9109 220.185 42.1028 220.198 42.294C220.198 42.665 220.251 43.036 220.282 43.407C220.282 43.6235 220.317 43.8488 220.326 44.0475C220.343 44.2468 220.333 44.4475 220.295 44.6438C220.295 44.688 220.26 44.6792 220.295 44.7012L220.268 44.6747C220.212 44.6026 220.167 44.5221 220.136 44.4362C220.059 44.2452 219.995 44.0488 219.946 43.8488C219.849 43.4465 219.783 43.0375 219.747 42.6252C219.7 42.21 219.643 41.7993 219.575 41.3929C219.513 40.9865 219.442 40.589 219.363 40.1915C219.296 39.7868 219.184 39.3911 219.027 39.0121C218.997 38.9488 218.949 38.8952 218.89 38.8575C218.839 38.8277 218.784 38.804 218.727 38.7868C218.664 38.7703 218.598 38.7665 218.534 38.7756C218.469 38.7847 218.407 38.8065 218.351 38.8398C218.26 38.9079 218.184 38.994 218.128 39.0928C218.072 39.1917 218.037 39.301 218.025 39.4141C217.996 39.6148 217.996 39.8185 218.025 40.0192C218.025 40.2091 218.069 40.3946 218.082 40.5802C218.143 41.3029 218.157 42.0289 218.122 42.7533C218.111 42.9254 218.089 43.0966 218.055 43.2657C218.043 43.3447 218.021 43.4218 217.989 43.4954C217.978 43.5245 217.961 43.5514 217.941 43.5749C217.941 43.6147 217.91 43.5749 217.914 43.6279C217.914 43.5837 217.914 43.6279 217.914 43.5705C217.895 43.5407 217.877 43.5097 217.861 43.4777C217.83 43.4071 217.804 43.3275 217.777 43.2525C217.729 43.0934 217.693 42.93 217.658 42.771C217.428 41.5615 217.261 40.3407 217.159 39.1137C217.172 38.8916 217.147 38.6689 217.084 38.4556C217.055 38.3443 216.995 38.2433 216.911 38.164C216.868 38.1223 216.817 38.0898 216.761 38.0685C216.705 38.0472 216.645 38.0377 216.585 38.0404H216.611C216.536 38.0294 216.46 38.0408 216.392 38.073C216.323 38.1052 216.266 38.1568 216.227 38.2215C216.161 38.3268 216.116 38.4438 216.094 38.566C216.057 38.785 216.037 39.0065 216.032 39.2285C216.032 39.6702 216.032 40.0545 216.032 40.43C216.074 41.0645 216.155 41.6959 216.275 42.3205C216.35 42.8328 216.408 43.2304 216.434 43.4998C216.443 43.547 216.435 43.5957 216.411 43.6375C216.388 43.6794 216.351 43.7119 216.306 43.7295C216.174 43.7427 216.134 43.7472 216.138 43.7516Z" fill="#D37E21"/>
<path d="M187.37 66.2916C186.508 66.2732 185.648 66.3728 184.813 66.5876C182.529 67.1883 178.594 69.5735 178.43 72.5197H181.292C181.292 72.5197 179.689 75.9296 180.157 75.6116C181.381 74.79 183.81 72.3209 183.81 72.3209L187.37 66.2916Z" fill="#EBB376"/>
<path d="M226.386 14.9526C226.32 14.9526 226.063 12.5939 225.807 9.65212C225.551 6.71038 225.392 4.35168 225.454 4.35168C225.516 4.35168 225.776 6.71038 226.032 9.65212C226.289 12.5939 226.448 14.9526 226.386 14.9526Z" fill="#263238"/>
<path d="M238.935 4.53281C238.983 4.56814 237.053 7.37295 234.619 10.7962C232.185 14.2193 230.167 16.98 230.114 16.927C230.061 16.874 231.996 14.0868 234.429 10.6636C236.863 7.24044 238.882 4.49747 238.935 4.53281Z" fill="#263238"/>
<path d="M244.147 17.245C244.147 17.3068 241.903 17.8236 239.111 18.3978C236.32 18.9721 234.04 19.3873 234.027 19.3254C234.014 19.2636 236.267 18.7468 239.063 18.1726C241.859 17.5984 244.116 17.1832 244.147 17.245Z" fill="#263238"/>
<path d="M93.9369 77.9129L78.3006 158.214L76.2688 168.727L180.511 168.223C185.193 168.201 189.345 164.045 190.842 157.87L209.332 82.0605C210.476 77.374 207.967 72.4976 204.416 72.502L98.884 72.6124C96.5871 72.608 94.5288 74.7812 93.9369 77.9129Z" fill="#FF931E"/>
<g opacity="0.5">
<path opacity="0.5" d="M93.9728 78.0749L78.3365 158.376L76.3047 168.889L180.547 168.385C185.229 168.363 189.381 164.207 190.878 158.032L209.368 82.2225C210.512 77.536 208.003 72.6596 204.451 72.6641L98.9199 72.7745C96.623 72.7701 94.5647 74.9433 93.9728 78.0749Z" fill="black"/>
</g>
<path d="M170.524 152.764L159.481 63.8005C159.039 60.1564 156.129 57.4355 152.697 57.4488L128.491 57.5239C127.592 57.534 126.704 57.7272 125.881 58.0917C125.059 58.4562 124.319 58.9844 123.708 59.644L112.223 71.866L44.9079 72.2282C40.7956 72.2502 37.6331 76.1461 38.1763 80.5189L48.4283 162.742C48.87 166.382 51.7808 169.098 55.204 169.094L172.542 168.859C185.608 169.129 186.858 165.273 186.858 165.273C171.858 168.59 170.524 152.786 170.524 152.764Z" fill="#FF931E"/>
<g opacity="0.5">
<path opacity="0.5" d="M119.927 134.972L115.969 139.221L85.4917 111.8L89.4494 107.551L119.927 134.972Z" fill="white"/>
<path opacity="0.5" d="M114.313 106.61L118.685 110.546L91.1099 140.162L86.7327 136.226L114.313 106.61Z" fill="white"/>
</g>
<path d="M187.278 20.1558C187.135 20.0955 187.012 19.9958 186.924 19.8684C186.835 19.7409 186.785 19.5908 186.779 19.4358L186.602 15.3368C186.596 15.2095 186.619 15.0824 186.671 14.9657C186.722 14.849 186.8 14.7458 186.898 14.6644C186.996 14.583 187.112 14.5255 187.236 14.4966C187.36 14.4676 187.489 14.468 187.613 14.4976C187.955 14.5714 188.309 14.5746 188.652 14.507C188.996 14.4394 189.321 14.3024 189.61 14.1045C189.876 13.9363 190.104 13.7155 190.281 13.4557C190.458 13.1959 190.58 12.9026 190.639 12.5939C190.679 12.2812 190.656 11.9638 190.571 11.6603C190.486 11.3568 190.341 11.0734 190.144 10.827C189.937 10.5467 189.677 10.3099 189.378 10.1303C189.08 9.95067 188.749 9.8317 188.404 9.7802C187.709 9.74156 187.021 9.93858 186.452 10.3394C185.883 10.7402 185.466 11.3213 185.268 11.9887C185.202 12.1909 185.061 12.3599 184.873 12.4604C184.686 12.561 184.467 12.5853 184.262 12.5284C184.057 12.4714 183.882 12.3376 183.773 12.1548C183.664 11.972 183.63 11.7543 183.678 11.547C183.978 10.4973 184.631 9.58302 185.526 8.95799C186.422 8.33296 187.505 8.03527 188.594 8.11498C189.161 8.19049 189.707 8.37916 190.199 8.66978C190.692 8.96039 191.121 9.34703 191.461 9.8067C191.791 10.2327 192.033 10.7208 192.172 11.242C192.311 11.7633 192.344 12.3071 192.269 12.8412C192.169 13.3746 191.96 13.8818 191.656 14.3315C191.352 14.7812 190.96 15.1639 190.502 15.4561C189.839 15.9022 189.065 16.1546 188.267 16.1849L188.404 19.3475C188.409 19.4864 188.379 19.6244 188.317 19.7487C188.254 19.8729 188.162 19.9794 188.047 20.0583C187.933 20.1371 187.8 20.1858 187.662 20.1997C187.523 20.2137 187.384 20.1925 187.256 20.1381L187.278 20.1558Z" fill="#FF931E"/>
<path d="M188.488 21.8342C188.497 21.9676 188.467 22.1008 188.4 22.2168C188.334 22.3329 188.235 22.4266 188.115 22.4862C187.995 22.5458 187.861 22.5686 187.728 22.5516C187.595 22.5346 187.471 22.4786 187.37 22.3908C187.269 22.303 187.197 22.1872 187.162 22.0582C187.127 21.9291 187.131 21.7926 187.173 21.6658C187.216 21.5391 187.295 21.4278 187.401 21.3462C187.507 21.2645 187.635 21.2161 187.768 21.207C187.856 21.2004 187.945 21.2114 188.03 21.2395C188.114 21.2675 188.192 21.312 188.259 21.3703C188.326 21.4286 188.381 21.4997 188.42 21.5793C188.459 21.6589 188.482 21.7456 188.488 21.8342Z" fill="#7C9DE7"/>
<path d="M173.086 14.3739C173.105 14.2865 173.118 14.198 173.126 14.1089C173.126 13.9145 173.174 13.6672 173.209 13.3182C173.253 12.8898 173.325 12.4648 173.426 12.0461C173.483 11.7988 173.514 11.5249 173.603 11.2466C173.691 10.9684 173.779 10.668 173.876 10.3632C174.388 8.85318 175.133 7.43275 176.085 6.15381C177.332 4.49771 178.914 3.12226 180.727 2.11665C181.759 1.53477 182.858 1.08089 184 0.765039C185.233 0.438374 186.502 0.272097 187.777 0.27033C188.448 0.259546 189.12 0.294966 189.787 0.37634C190.127 0.411676 190.462 0.500016 190.802 0.557438C191.146 0.61635 191.486 0.698999 191.818 0.804792C193.211 1.19386 194.535 1.79419 195.745 2.58485C198.436 4.33014 200.486 6.90387 201.584 9.91712C202.176 11.5312 202.475 13.2379 202.468 14.9569C202.486 16.7279 202.173 18.4867 201.545 20.1425L201.346 20.6461L201.319 20.7123L201.346 20.7786C202.455 23.3272 203.554 25.8317 204.592 28.2566L204.778 28.0446L198.152 25.5048L198.073 25.4739L198.007 25.5357C196.254 27.234 194.108 28.4722 191.761 29.14C189.755 29.6922 187.655 29.8128 185.599 29.4937C183.544 29.1747 181.579 28.4234 179.835 27.2893C178.407 26.3525 177.147 25.1801 176.111 23.8219C174.61 21.8395 173.637 19.5079 173.285 17.0462C173.232 16.6045 173.187 16.2335 173.148 15.8978C173.108 15.5621 173.148 15.2882 173.126 15.0541C173.103 14.82 173.126 14.6654 173.126 14.5373C173.148 14.534 173.167 14.5224 173.181 14.505C173.195 14.4876 173.202 14.4656 173.2 14.4433C173.199 14.4211 173.189 14.4004 173.172 14.3852C173.156 14.3701 173.135 14.3616 173.112 14.3616C173.09 14.3616 173.069 14.3701 173.052 14.3852C173.036 14.4004 173.026 14.4211 173.024 14.4433C173.023 14.4656 173.029 14.4876 173.043 14.505C173.057 14.5224 173.077 14.534 173.099 14.5373C173.099 14.6654 173.099 14.8377 173.099 15.0541C173.099 15.2706 173.099 15.5709 173.099 15.9066C173.099 16.2423 173.174 16.6266 173.218 17.0639C173.364 18.1263 173.617 19.1711 173.974 20.1823C174.479 21.5176 175.159 22.7801 175.997 23.9368C177.037 25.3191 178.305 26.5141 179.747 27.4704C181.512 28.6328 183.505 29.4065 185.592 29.74C187.679 30.0736 189.814 29.9594 191.854 29.405C194.229 28.7303 196.402 27.4802 198.179 25.7654L198.033 25.7963L204.659 28.3494L204.99 28.4775L204.844 28.1374C203.793 25.7124 202.706 23.2124 201.602 20.6593V20.7874L201.805 20.2706C202.45 18.5787 202.77 16.7806 202.751 14.9702C202.764 13.2146 202.465 11.4706 201.867 9.81994C200.745 6.74665 198.649 4.12397 195.9 2.35075C194.659 1.54165 193.3 0.930666 191.871 0.539769C191.533 0.43281 191.188 0.351599 190.838 0.296833C190.493 0.234995 190.153 0.146654 189.809 0.115735C189.133 0.0318801 188.453 -0.00648654 187.772 0.000892946C186.477 0.00637576 185.188 0.181605 183.938 0.522102C182.781 0.850672 181.668 1.31629 180.621 1.90905C178.79 2.93934 177.198 4.34708 175.952 6.03897C175.003 7.33908 174.268 8.78251 173.775 10.3147C173.682 10.6327 173.594 10.9375 173.514 11.1981C173.444 11.4643 173.388 11.7342 173.346 12.0064C173.252 12.4279 173.19 12.8562 173.161 13.2873C173.134 13.6274 173.117 13.888 173.103 14.0824C173.085 14.1784 173.079 14.2764 173.086 14.3739Z" fill="#263238"/>
</svg>
