<svg width="19" height="20" viewBox="0 0 19 20" fill="none" xmlns="http://www.w3.org/2000/svg">
<rect width="19" height="20" fill="#C0BFBF"/>
<g clip-path="url(#clip0_0_1)">
<rect width="375" height="812" transform="translate(-252 -61)" fill="white"/>
<rect x="-252" y="-61" width="375" height="172" fill="#FF931E"/>
<path d="M3.35843 0.392135C3.35317 0.206724 3.4873 0.0186826 3.67929 0.000930513C3.87062 -0.00893178 4.03696 0.161357 4.04616 0.348741C4.06918 1.01543 4.03104 1.6841 4.06392 2.34947C4.60897 2.3567 5.156 2.35605 5.70106 2.35013C5.7622 1.667 5.69317 0.970065 5.73459 0.282992C5.75234 0.0647066 6.02388 -0.0661331 6.20995 0.0384072C6.33816 0.102183 6.39931 0.254063 6.39733 0.391477C6.40785 1.04831 6.3855 1.70579 6.4072 2.36196C6.94502 2.34487 7.48416 2.35473 8.02264 2.35802C8.03185 2.3429 8.05026 2.31397 8.05946 2.29884C8.06078 1.70908 8.05683 1.118 8.0588 0.528234C8.05354 0.387532 8.10088 0.254063 8.1377 0.120593C8.24356 0.0679941 8.34875 -0.0286564 8.47631 0.00816277C8.65185 0.0397221 8.75837 0.221846 8.75442 0.39082C8.76757 1.04699 8.7347 1.70448 8.77086 2.35999C9.32183 2.34355 9.87346 2.36131 10.4251 2.35079C10.4304 1.69659 10.4218 1.04173 10.4284 0.387532C10.4336 0.224476 10.527 0.0364347 10.7045 0.00947778C10.8932 -0.0358888 11.1109 0.12651 11.0964 0.325729C11.1069 1.00228 11.0872 1.67949 11.1056 2.35605C11.6691 2.34816 12.2319 2.35933 12.7947 2.34947C12.8341 2.02796 12.8183 1.70316 12.8203 1.37968C12.8282 0.987817 12.8065 0.59464 12.8289 0.203436C12.9281 -0.0727079 13.3779 -0.0556134 13.443 0.232366C13.4883 0.937191 13.4114 1.64793 13.4831 2.35079C14.0373 2.35013 14.5929 2.36591 15.1472 2.34224C15.1662 1.67226 15.1439 1.00097 15.1583 0.330331C15.1472 0.0910061 15.443 -0.0852002 15.6462 0.0449821C15.8316 0.15544 15.825 0.394107 15.8487 0.581491C15.8605 1.16994 15.8382 1.75839 15.8572 2.34618C16.4049 2.36854 16.9546 2.34027 17.5029 2.35933C17.5345 1.68344 17.5016 1.00557 17.5187 0.329674C17.5049 0.144262 17.7002 -0.021424 17.8803 0.0068479C18.0526 0.0153952 18.1775 0.187656 18.1729 0.353343C18.1861 1.01609 18.1716 1.67949 18.1795 2.34224C18.3708 2.36722 18.6016 2.31265 18.7528 2.46322C18.8521 2.55395 18.8475 2.69662 18.8514 2.82023C18.8481 7.25103 18.8521 11.6818 18.8495 16.1126C18.8751 16.3204 18.6838 16.5137 18.476 16.4946C15.9743 16.4966 13.4719 16.4966 10.9702 16.4946C10.811 16.5032 10.6986 16.3756 10.5737 16.2994C10.1273 16.0035 9.68477 15.6997 9.23504 15.4085C8.90564 15.1731 8.4145 15.2138 8.12981 15.5018C7.83854 15.8062 7.62749 16.1803 7.33491 16.4821C7.17843 16.5058 7.0088 16.515 6.85692 16.469C6.25466 16.131 5.70237 15.7102 5.19019 15.248C4.70431 14.7227 4.15202 14.2598 3.72465 13.6819C3.4255 13.2848 3.1487 12.8679 2.92647 12.4228C2.86532 12.2058 3.1224 12.1197 3.24929 12.002C3.5353 11.7627 3.86667 11.5694 4.10731 11.2814C4.32954 10.9934 4.31705 10.5726 4.1106 10.2801C3.67271 9.62324 3.2368 8.96444 2.79563 8.30958C2.75026 8.2412 2.70621 8.16822 2.70292 8.08406C2.65427 7.6922 2.68583 7.2964 2.67794 6.90256C2.6707 6.63957 2.69898 6.37657 2.69635 6.11358C2.71607 5.75656 2.63651 5.3956 2.72528 5.04385C7.64524 5.03662 12.5646 5.04582 17.4845 5.03925C17.6555 5.04911 17.8336 4.91564 17.8304 4.73483C17.8606 4.53956 17.6759 4.36204 17.4832 4.3811C12.9676 4.37584 8.45198 4.38045 3.93636 4.37913C3.52609 4.36795 3.11319 4.4028 2.70489 4.35941C2.6569 3.78608 2.69174 3.21078 2.71147 2.63745C2.75223 2.32843 3.11451 2.33566 3.35054 2.35868C3.36961 1.70316 3.35252 1.04765 3.35843 0.392135ZM3.56817 3.05956C3.44719 3.13188 3.34134 3.27127 3.37224 3.42052C3.40249 3.73282 3.91927 3.78739 4.01329 3.48824C4.13032 3.22327 3.82919 2.93069 3.56817 3.05956ZM5.93052 3.04838C5.76483 3.13582 5.65175 3.37712 5.78456 3.53952C5.89765 3.75123 6.24546 3.74005 6.34408 3.52045C6.52554 3.27258 6.20009 2.93332 5.93052 3.04838ZM8.30536 3.05232C8.02856 3.12662 8.02396 3.57108 8.28366 3.67168C8.41976 3.68285 8.60189 3.70389 8.68078 3.56253C8.88592 3.3265 8.59531 2.92806 8.30536 3.05232ZM10.4619 3.53689C10.6118 3.70915 10.9037 3.75518 11.049 3.55201C11.2391 3.30151 10.9346 2.91688 10.6454 3.06153C10.4336 3.11544 10.4521 3.3666 10.4619 3.53689ZM12.8256 3.48561C12.8854 3.70784 13.1497 3.70323 13.3318 3.6605C13.4752 3.49415 13.5199 3.18579 13.2891 3.07402C13.0333 2.9228 12.7013 3.21078 12.8256 3.48561ZM15.2175 3.13319C15.1906 3.24562 15.134 3.36331 15.18 3.47969C15.2543 3.73019 15.6528 3.76372 15.7764 3.53558C15.8349 3.37646 15.8171 3.16081 15.6455 3.0806C15.5075 2.9846 15.347 3.06482 15.2175 3.13319ZM17.5325 3.4935C17.6029 3.6868 17.8297 3.69535 18.0026 3.6914C18.2025 3.53623 18.2465 3.16738 17.9757 3.06416C17.716 2.93135 17.4181 3.23247 17.5325 3.4935ZM5.10077 6.55738C5.02648 6.73556 5.06856 6.99724 5.28618 7.04261C5.4236 7.10178 5.63136 7.01433 5.71947 7.15438C5.72933 7.77899 5.72407 8.4036 5.7221 9.02821C5.58863 9.1584 5.34799 9.01967 5.20334 9.15577C5.04423 9.24321 5.037 9.46347 5.11129 9.60877C5.26843 9.81391 5.55115 9.77578 5.77864 9.77709C6.99236 9.78235 8.20739 9.76263 9.42111 9.78695C9.42506 10.5325 9.4198 11.2775 9.42309 12.0224C9.41783 12.2072 9.50922 12.4425 9.72947 12.4379C10.8597 12.4544 11.9906 12.4314 13.1214 12.4491C13.153 13.1244 13.1287 13.8016 13.1346 14.4775C12.7697 14.49 12.4035 14.4643 12.0392 14.4893C11.9123 14.5379 11.7835 14.6464 11.796 14.7957C11.7624 15.0258 12.0116 15.177 12.2161 15.1553C13.8401 15.1547 15.4641 15.156 17.0881 15.154C17.2044 15.1586 17.309 15.1014 17.4148 15.0626C17.4773 14.937 17.5246 14.8023 17.5161 14.6602C17.5154 12.1414 17.5141 9.62258 17.5161 7.10375C17.5102 6.90716 17.5503 6.68362 17.4168 6.51793C17.3392 6.41471 17.2051 6.39827 17.0854 6.39893C13.2056 6.39959 9.32578 6.39893 5.44595 6.39959C5.31446 6.39498 5.17573 6.44561 5.10077 6.55738Z" fill="white"/>
<path d="M6.39489 9.09329C6.39555 8.41608 6.40146 7.73953 6.3916 7.06298C7.40545 7.07284 8.41929 7.07415 9.43313 7.06232C9.41998 7.73887 9.42787 8.41608 9.42853 9.09329C8.41732 9.08606 7.4061 9.08738 6.39489 9.09329Z" fill="white"/>
<path d="M10.0956 7.06694C11.1075 7.07023 12.1194 7.07154 13.1312 7.06628C13.1286 7.74086 13.1299 8.4161 13.1299 9.09134C12.1181 9.09003 11.1062 9.08411 10.095 9.09397C10.1035 8.41873 10.1015 7.74218 10.0956 7.06694Z" fill="white"/>
<path d="M13.8035 7.06757C14.814 7.0702 15.8252 7.06888 16.8358 7.06822C16.8318 7.74215 16.8318 8.41673 16.8358 9.09065C15.8252 9.08802 14.814 9.08934 13.8035 9.08999C13.8035 8.41607 13.8041 7.74215 13.8035 7.06757Z" fill="white"/>
<path d="M0.516182 8.73104C0.865307 8.50749 1.22232 8.29512 1.58131 8.08802C1.68717 8.01372 1.8305 8.04659 1.88573 8.16428C2.43078 8.96313 2.9594 9.7725 3.50314 10.5713C3.56955 10.6686 3.66028 10.8225 3.53799 10.9159C3.21911 11.2104 2.84631 11.4405 2.52086 11.7265C2.33347 11.887 2.26773 12.1302 2.20987 12.3597C2.28942 12.7588 2.5248 13.0967 2.72994 13.44C3.10142 14.0159 3.52813 14.559 4.02387 15.0337C4.36971 15.3651 4.68596 15.7293 5.0581 16.0331C5.58014 16.4775 6.15281 16.8628 6.7577 17.1857C7.08973 17.3632 7.54142 17.2876 7.78929 17.0022C8.09831 16.6735 8.33304 16.2816 8.63679 15.9496C8.73147 15.8575 8.8393 15.945 8.92609 15.9995C9.70521 16.5315 10.4935 17.0515 11.2766 17.5775C11.3739 17.6459 11.5225 17.7386 11.4508 17.88C11.3345 18.1311 11.1721 18.3573 11.0327 18.596C10.9045 18.7958 10.8026 19.0174 10.6329 19.187C10.3673 19.4178 10.0077 19.5033 9.66247 19.5046C8.47505 19.5973 7.35338 19.072 6.35466 18.4848C5.19748 17.7741 4.18101 16.8622 3.227 15.9016C2.2434 14.8877 1.33015 13.7864 0.672664 12.53C0.200589 11.5714 -0.166946 10.478 0.0782965 9.40299C0.121033 9.12816 0.279487 8.87897 0.516182 8.73104Z" fill="white"/>
<path d="M10.0957 9.76065C11.1076 9.76328 12.1194 9.76591 13.1307 9.75934C13.1287 10.4339 13.13 11.1092 13.13 11.7844C12.1188 11.7831 11.1076 11.7785 10.0964 11.787C10.1016 11.1111 10.1023 10.4359 10.0957 9.76065Z" fill="white"/>
<path d="M13.8027 9.76129C14.8139 9.76392 15.8252 9.76261 16.8357 9.76195C16.8318 10.4359 16.8318 11.1105 16.8357 11.7844C15.8252 11.7811 14.8139 11.7831 13.8034 11.7831C13.8034 11.1091 13.804 10.4352 13.8027 9.76129Z" fill="white"/>
<path d="M13.8027 12.4543C14.8139 12.4576 15.8252 12.4557 16.8357 12.4557C16.8318 13.1296 16.8324 13.8035 16.8357 14.4781C15.8245 14.4741 14.8139 14.4768 13.8034 14.4768C13.8034 13.8028 13.804 13.1289 13.8027 12.4543Z" fill="white"/>
</g>
<defs>
<clipPath id="clip0_0_1">
<rect width="375" height="812" fill="white" transform="translate(-252 -61)"/>
</clipPath>
</defs>
</svg>
