<svg width="14" height="12" viewBox="0 0 14 12" fill="none" xmlns="http://www.w3.org/2000/svg">
<mask id="path-1-inside-1" fill="white">
<path fill-rule="evenodd" clip-rule="evenodd" d="M0.89843 0.0685963C0.575626 0.185944 0.184167 0.591796 0.072729 0.924579C-0.146844 1.58041 0.143485 2.27914 0.771981 2.60726C1.12281 2.79043 1.66434 2.79504 2.01446 2.61778C2.26756 2.48966 2.51451 2.24484 2.65862 1.97917L2.74389 1.82206H6.99039C9.84004 1.82206 11.3339 1.83983 11.5318 1.87612C12.1196 1.98393 12.6264 2.36859 12.8947 2.9106C13.0162 3.15597 13.0317 3.24309 13.0317 3.68354C13.0317 4.11694 13.015 4.21458 12.9003 4.45295C12.6975 4.87439 12.4505 5.1207 12.0183 5.33266L11.6359 5.5202L6.92949 5.54661C3.23152 5.5674 2.18024 5.58706 2.02297 5.63834C1.3076 5.87179 0.659792 6.39996 0.335086 7.01449C-0.474203 8.54597 0.242163 10.3469 1.90497 10.9612L2.22313 11.0788L6.75875 11.0932L11.2944 11.1076L11.3533 11.2487C11.4385 11.4527 11.7796 11.7765 12.0347 11.8954C12.3263 12.0315 12.894 12.0354 13.1868 11.9035C13.6238 11.7067 13.9497 11.2432 13.9943 10.7552C14.0834 9.78035 13.1194 9.03715 12.1424 9.32754C11.9051 9.39803 11.4445 9.79907 11.3552 10.0128L11.2923 10.1635L6.80664 10.1501L2.321 10.1367L1.99074 9.97534C1.59913 9.78408 1.29164 9.47249 1.10524 9.0781C0.990403 8.83502 0.972139 8.73172 0.972139 8.32483C0.972139 7.91227 0.989702 7.81597 1.1123 7.55541C1.28944 7.17895 1.58868 6.87113 1.97293 6.67009L2.27317 6.51299L6.97688 6.48688C11.3666 6.4625 11.699 6.45466 11.9558 6.36963C13.1639 5.96943 13.9175 5.03944 13.9916 3.85728C14.0428 3.0415 13.7695 2.33062 13.1782 1.741C12.8043 1.36826 12.3126 1.08611 11.8557 0.98221C11.7103 0.949101 10.0575 0.930535 7.18719 0.929741L2.74389 0.92855L2.65862 0.771441C2.51446 0.505671 2.26731 0.260701 2.01957 0.137943C1.71242 -0.0142023 1.21138 -0.045227 0.89843 0.0685963ZM1.71593 1.0594C1.89747 1.23954 1.89747 1.51107 1.71593 1.69121C1.42525 1.97952 0.947119 1.77743 0.947119 1.36627C0.947119 0.96022 1.42405 0.769853 1.71593 1.0594Z"/>
</mask>
<path fill-rule="evenodd" clip-rule="evenodd" d="M0.89843 0.0685963C0.575626 0.185944 0.184167 0.591796 0.072729 0.924579C-0.146844 1.58041 0.143485 2.27914 0.771981 2.60726C1.12281 2.79043 1.66434 2.79504 2.01446 2.61778C2.26756 2.48966 2.51451 2.24484 2.65862 1.97917L2.74389 1.82206H6.99039C9.84004 1.82206 11.3339 1.83983 11.5318 1.87612C12.1196 1.98393 12.6264 2.36859 12.8947 2.9106C13.0162 3.15597 13.0317 3.24309 13.0317 3.68354C13.0317 4.11694 13.015 4.21458 12.9003 4.45295C12.6975 4.87439 12.4505 5.1207 12.0183 5.33266L11.6359 5.5202L6.92949 5.54661C3.23152 5.5674 2.18024 5.58706 2.02297 5.63834C1.3076 5.87179 0.659792 6.39996 0.335086 7.01449C-0.474203 8.54597 0.242163 10.3469 1.90497 10.9612L2.22313 11.0788L6.75875 11.0932L11.2944 11.1076L11.3533 11.2487C11.4385 11.4527 11.7796 11.7765 12.0347 11.8954C12.3263 12.0315 12.894 12.0354 13.1868 11.9035C13.6238 11.7067 13.9497 11.2432 13.9943 10.7552C14.0834 9.78035 13.1194 9.03715 12.1424 9.32754C11.9051 9.39803 11.4445 9.79907 11.3552 10.0128L11.2923 10.1635L6.80664 10.1501L2.321 10.1367L1.99074 9.97534C1.59913 9.78408 1.29164 9.47249 1.10524 9.0781C0.990403 8.83502 0.972139 8.73172 0.972139 8.32483C0.972139 7.91227 0.989702 7.81597 1.1123 7.55541C1.28944 7.17895 1.58868 6.87113 1.97293 6.67009L2.27317 6.51299L6.97688 6.48688C11.3666 6.4625 11.699 6.45466 11.9558 6.36963C13.1639 5.96943 13.9175 5.03944 13.9916 3.85728C14.0428 3.0415 13.7695 2.33062 13.1782 1.741C12.8043 1.36826 12.3126 1.08611 11.8557 0.98221C11.7103 0.949101 10.0575 0.930535 7.18719 0.929741L2.74389 0.92855L2.65862 0.771441C2.51446 0.505671 2.26731 0.260701 2.01957 0.137943C1.71242 -0.0142023 1.21138 -0.045227 0.89843 0.0685963ZM1.71593 1.0594C1.89747 1.23954 1.89747 1.51107 1.71593 1.69121C1.42525 1.97952 0.947119 1.77743 0.947119 1.36627C0.947119 0.96022 1.42405 0.769853 1.71593 1.0594Z" fill="#FF931E"/>
<path d="M0.89843 0.0685963L1.24008 1.00842L1.24024 1.00837L0.89843 0.0685963ZM0.072729 0.924579L-0.875517 0.607042L-0.875537 0.6071L0.072729 0.924579ZM0.771981 2.60726L1.2348 1.72081L1.23477 1.72079L0.771981 2.60726ZM2.01446 2.61778L1.56283 1.72558L1.56277 1.72561L2.01446 2.61778ZM2.65862 1.97917L1.77972 1.50216L1.77962 1.50235L2.65862 1.97917ZM2.74389 1.82206V0.82206H2.14883L1.86499 1.34506L2.74389 1.82206ZM11.5318 1.87612L11.7122 0.892523L11.7121 0.892514L11.5318 1.87612ZM12.8947 2.9106L11.9986 3.35431L11.9986 3.35434L12.8947 2.9106ZM12.9003 4.45295L13.8014 4.88658L13.8014 4.88652L12.9003 4.45295ZM12.0183 5.33266L12.4586 6.23052L12.4586 6.23052L12.0183 5.33266ZM11.6359 5.5202L11.6415 6.52018L11.8705 6.5189L12.0761 6.41806L11.6359 5.5202ZM6.92949 5.54661L6.92388 4.54662H6.92386L6.92949 5.54661ZM2.02297 5.63834L1.71299 4.6876L1.71273 4.68768L2.02297 5.63834ZM0.335086 7.01449L1.21923 7.48171L1.21925 7.48167L0.335086 7.01449ZM1.90497 10.9612L2.25155 10.0232L2.25151 10.0232L1.90497 10.9612ZM2.22313 11.0788L1.87655 12.0168L2.04276 12.0782L2.21994 12.0788L2.22313 11.0788ZM6.75875 11.0932L6.75557 12.0932H6.75558L6.75875 11.0932ZM11.2944 11.1076L12.2172 10.7224L11.9614 10.1097L11.2976 10.1076L11.2944 11.1076ZM11.3533 11.2487L10.4305 11.6339L10.4305 11.6341L11.3533 11.2487ZM12.0347 11.8954L12.4574 10.9892L12.4573 10.9891L12.0347 11.8954ZM13.1868 11.9035L13.5976 12.8153L13.5976 12.8153L13.1868 11.9035ZM13.9943 10.7552L12.9984 10.6642L12.9984 10.6642L13.9943 10.7552ZM12.1424 9.32754L12.4272 10.2861L12.4273 10.2861L12.1424 9.32754ZM11.3552 10.0128L10.4325 9.6273L10.4324 9.62744L11.3552 10.0128ZM11.2923 10.1635L11.2893 11.1635L11.9576 11.1655L12.2151 10.5488L11.2923 10.1635ZM6.80664 10.1501L6.80364 11.1501H6.80365L6.80664 10.1501ZM2.321 10.1367L1.88208 11.0352L2.08839 11.136L2.318 11.1367L2.321 10.1367ZM1.99074 9.97534L2.42966 9.07681L2.4296 9.07678L1.99074 9.97534ZM1.10524 9.0781L0.201068 9.50527L0.201136 9.50541L1.10524 9.0781ZM1.1123 7.55541L0.207461 7.12966L0.207456 7.12967L1.1123 7.55541ZM1.97293 6.67009L2.43651 7.55615L2.43657 7.55612L1.97293 6.67009ZM2.27317 6.51299L2.26761 5.513L2.02473 5.51435L1.80952 5.62696L2.27317 6.51299ZM6.97688 6.48688L6.98243 7.48686H6.98243L6.97688 6.48688ZM11.9558 6.36963L12.2701 7.31896L12.2703 7.3189L11.9558 6.36963ZM13.9916 3.85728L12.9936 3.79471V3.79471L13.9916 3.85728ZM13.1782 1.741L13.8843 1.03287L13.8842 1.03285L13.1782 1.741ZM11.8557 0.98221L11.6338 1.95727L11.634 1.95731L11.8557 0.98221ZM7.18719 0.929741L7.18747 -0.0702588H7.18746L7.18719 0.929741ZM2.74389 0.92855L1.86499 1.40555L2.14874 1.92839L2.74362 1.92855L2.74389 0.92855ZM2.65862 0.771441L1.77961 1.24825L1.77972 1.24844L2.65862 0.771441ZM2.01957 0.137943L2.46355 -0.758091L2.46345 -0.758143L2.01957 0.137943ZM1.71593 1.0594L2.42029 0.349557L2.42019 0.34946L1.71593 1.0594ZM1.71593 1.69121L2.42013 2.40121L2.42029 2.40105L1.71593 1.69121ZM0.55678 -0.871231C0.201978 -0.742251 -0.100402 -0.499284 -0.313416 -0.278452C-0.527742 -0.0562594 -0.756845 0.252657 -0.875517 0.607042L1.02098 1.24211C1.01422 1.26229 1.01434 1.25346 1.03706 1.21916C1.05799 1.18756 1.0884 1.14908 1.12605 1.11005C1.16375 1.07096 1.20029 1.04006 1.22929 1.01939C1.26127 0.996602 1.2661 0.998965 1.24008 1.00842L0.55678 -0.871231ZM-0.875537 0.6071C-1.25699 1.74644 -0.738538 2.94674 0.309187 3.49372L1.23477 1.72079C1.02551 1.61154 0.963298 1.41439 1.02099 1.24206L-0.875537 0.6071ZM0.309158 3.49371C0.65536 3.67446 1.04207 3.74473 1.385 3.74764C1.72746 3.75055 2.11641 3.68702 2.46615 3.50995L1.56277 1.72561C1.56726 1.72333 1.55454 1.7302 1.52105 1.73706C1.48865 1.74371 1.44757 1.7481 1.40197 1.74772C1.35639 1.74733 1.31483 1.74224 1.28147 1.73484C1.2471 1.72721 1.23261 1.71966 1.2348 1.72081L0.309158 3.49371ZM2.4661 3.50998C2.9127 3.28391 3.30328 2.888 3.53762 2.45599L1.77962 1.50235C1.72573 1.60168 1.62243 1.69541 1.56283 1.72558L2.4661 3.50998ZM3.53752 2.45617L3.62279 2.29906L1.86499 1.34506L1.77972 1.50216L3.53752 2.45617ZM2.74389 2.82206H6.99039V0.82206H2.74389V2.82206ZM6.99039 2.82206C8.41409 2.82206 9.49522 2.8265 10.2436 2.83541C10.6184 2.83987 10.905 2.8454 11.1076 2.85185C11.3507 2.8596 11.3929 2.86733 11.3514 2.85972L11.7121 0.892514C11.5717 0.866761 11.353 0.85866 11.1713 0.85287C10.949 0.845787 10.647 0.84007 10.2674 0.835552C9.50694 0.826501 8.41634 0.82206 6.99039 0.82206V2.82206ZM11.3514 2.85971C11.6244 2.90979 11.8682 3.09108 11.9986 3.35431L13.7909 2.46689C13.3845 1.6461 12.6149 1.05808 11.7122 0.892523L11.3514 2.85971ZM11.9986 3.35434C12.0107 3.37882 12.0185 3.39536 12.0239 3.40721C12.029 3.41866 12.0308 3.42327 12.0307 3.4232C12.0289 3.41838 12.0257 3.40724 12.0241 3.39831C12.0234 3.3947 12.0262 3.40808 12.0284 3.45663C12.0306 3.50678 12.0317 3.576 12.0317 3.68354H14.0317C14.0317 3.47539 14.0302 3.25703 13.9934 3.04952C13.9497 2.80256 13.8663 2.61918 13.7909 2.46686L11.9986 3.35434ZM12.0317 3.68354C12.0317 3.78835 12.0306 3.8573 12.0283 3.90769C12.0272 3.93173 12.026 3.948 12.0249 3.95874C12.0239 3.96919 12.0232 3.97337 12.0232 3.9731C12.0234 3.97248 12.024 3.9692 12.0252 3.96442C12.0258 3.96222 12.0264 3.96027 12.0269 3.95867C12.0274 3.95709 12.0277 3.95624 12.0277 3.95625C12.0271 3.95788 12.0216 3.97279 11.9992 4.01938L13.8014 4.88652C13.8764 4.73075 13.9536 4.55046 13.9947 4.30966C14.0295 4.106 14.0317 3.89218 14.0317 3.68354H12.0317ZM11.9992 4.01932C11.8967 4.23243 11.8153 4.31843 11.578 4.4348L12.4586 6.23052C13.0858 5.92297 13.4983 5.51635 13.8014 4.88658L11.9992 4.01932ZM11.578 4.4348L11.1956 4.62233L12.0761 6.41806L12.4586 6.23052L11.578 4.4348ZM11.6302 4.52021L6.92388 4.54662L6.9351 6.54659L11.6415 6.52018L11.6302 4.52021ZM6.92386 4.54662C5.07582 4.55702 3.88207 4.56715 3.12977 4.58122C2.75496 4.58823 2.47944 4.59638 2.28345 4.60668C2.1861 4.61179 2.09731 4.61799 2.02037 4.62626C1.96531 4.63218 1.84047 4.64603 1.71299 4.6876L2.33295 6.58908C2.24478 6.61783 2.1872 6.61985 2.23418 6.6148C2.25928 6.6121 2.30731 6.60818 2.38842 6.60392C2.54934 6.59546 2.79725 6.58778 3.16716 6.58087C3.90431 6.56709 5.08519 6.55699 6.93511 6.54659L6.92386 4.54662ZM1.71273 4.68768C0.772953 4.99437 -0.0924994 5.6832 -0.54908 6.54732L1.21925 7.48167C1.41208 7.11671 1.84225 6.74922 2.33321 6.589L1.71273 4.68768ZM-0.549058 6.54728C-1.65326 8.63684 -0.646396 11.0847 1.55844 11.8993L2.25151 10.0232C1.13072 9.60914 0.704852 8.4551 1.21923 7.48171L-0.549058 6.54728ZM1.5584 11.8992L1.87655 12.0168L2.5697 10.1407L2.25155 10.0232L1.5584 11.8992ZM2.21994 12.0788L6.75557 12.0932L6.76194 10.0932L2.22631 10.0788L2.21994 12.0788ZM6.75558 12.0932L11.2912 12.1076L11.2976 10.1076L6.76193 10.0932L6.75558 12.0932ZM10.3716 11.4929L10.4305 11.6339L12.2761 10.8634L12.2172 10.7224L10.3716 11.4929ZM10.4305 11.6341C10.555 11.9321 10.7851 12.1805 10.9419 12.3293C11.1152 12.4938 11.3529 12.6809 11.6122 12.8018L12.4573 10.9891C12.4677 10.994 12.4545 10.9887 12.4204 10.9639C12.389 10.9411 12.3532 10.9114 12.3187 10.8787C12.2836 10.8453 12.2588 10.8174 12.2455 10.8005C12.2392 10.7925 12.2392 10.7916 12.2432 10.7981C12.2465 10.8033 12.2603 10.8255 12.276 10.8633L10.4305 11.6341ZM11.612 12.8017C11.9399 12.9546 12.3157 12.9979 12.6033 12.9999C12.8907 13.0019 13.2674 12.964 13.5976 12.8153L12.7761 10.9918C12.8067 10.978 12.8071 10.983 12.7642 10.9899C12.7264 10.9961 12.6752 11.0004 12.6174 11C12.5595 10.9996 12.5083 10.9945 12.4704 10.9879C12.4275 10.9803 12.4275 10.9752 12.4574 10.9892L11.612 12.8017ZM13.5976 12.8153C14.3723 12.4662 14.9136 11.6833 14.9901 10.8462L12.9984 10.6642C12.9857 10.8031 12.8753 10.9471 12.776 10.9918L13.5976 12.8153ZM14.9901 10.8463C15.15 9.0973 13.4439 7.89745 11.8574 8.36899L12.4273 10.2861C12.596 10.236 12.75 10.276 12.8576 10.3589C12.963 10.4402 13.0091 10.5474 12.9984 10.6642L14.9901 10.8463ZM11.8575 8.36896C11.5203 8.46916 11.2094 8.71185 11.0367 8.86222C10.9301 8.95505 10.8219 9.06059 10.7261 9.17141C10.6437 9.26661 10.5162 9.42707 10.4325 9.6273L12.278 10.3982C12.2543 10.4548 12.2322 10.4867 12.2301 10.4897C12.2258 10.496 12.2277 10.4925 12.239 10.4795C12.262 10.4528 12.3006 10.4136 12.3499 10.3707C12.3991 10.3279 12.445 10.2935 12.4782 10.2718C12.4945 10.2612 12.5015 10.2577 12.4992 10.2589C12.4976 10.2597 12.4914 10.2628 12.4808 10.2672C12.4705 10.2715 12.4524 10.2786 12.4272 10.2861L11.8575 8.36896ZM10.4324 9.62744L10.3695 9.7782L12.2151 10.5488L12.278 10.3981L10.4324 9.62744ZM11.2953 9.16352L6.80963 9.15012L6.80365 11.1501L11.2893 11.1635L11.2953 9.16352ZM6.80964 9.15012L2.324 9.13667L2.318 11.1367L6.80364 11.1501L6.80964 9.15012ZM2.75992 9.23814L2.42966 9.07681L1.55182 10.8739L1.88208 11.0352L2.75992 9.23814ZM2.4296 9.07678C2.24233 8.98532 2.0988 8.84005 2.00935 8.6508L0.201136 9.50541C0.484484 10.1049 0.955941 10.5828 1.55189 10.8739L2.4296 9.07678ZM2.00942 8.65094C1.98696 8.6034 1.98006 8.58527 1.97819 8.58C1.97762 8.57839 1.97813 8.57969 1.97898 8.58288C1.97937 8.58433 1.9797 8.58572 1.97997 8.58695C1.9801 8.58753 1.9802 8.58801 1.98027 8.58836C1.98034 8.5887 1.98037 8.58888 1.98037 8.58888C1.98037 8.58887 1.98033 8.58864 1.98025 8.58818C1.98018 8.58771 1.98007 8.58698 1.97993 8.58597C1.97966 8.58395 1.97925 8.58073 1.97878 8.57611C1.97782 8.56668 1.97663 8.55214 1.97556 8.53046C1.9733 8.48488 1.97214 8.4218 1.97214 8.32483H-0.0278614C-0.0278614 8.52494 -0.0251073 8.73324 0.0108833 8.93691C0.0521523 9.17045 0.127343 9.34921 0.201068 9.50527L2.00942 8.65094ZM1.97214 8.32483C1.97214 8.22575 1.97327 8.1626 1.97555 8.11723C1.97771 8.07408 1.98032 8.0609 1.98005 8.06236C1.97647 8.08203 1.96805 8.08549 2.01714 7.98116L0.207456 7.12967C0.13395 7.28589 0.0554546 7.46778 0.0124397 7.70388C-0.0255295 7.91229 -0.0278614 8.12394 -0.0278614 8.32483H1.97214ZM2.01714 7.98117C2.09722 7.81097 2.23684 7.66062 2.43651 7.55615L1.50935 5.78404C0.940511 6.08165 0.481655 6.54693 0.207461 7.12966L2.01714 7.98117ZM2.43657 7.55612L2.73681 7.39901L1.80952 5.62696L1.50929 5.78407L2.43657 7.55612ZM2.27872 7.51297L6.98243 7.48686L6.97133 5.48689L2.26761 5.513L2.27872 7.51297ZM6.98243 7.48686C9.17232 7.4747 10.3644 7.46663 11.0397 7.45072C11.6747 7.43577 11.9756 7.41646 12.2701 7.31896L11.6415 5.4203C11.6401 5.42077 11.6422 5.42003 11.6462 5.41896C11.6481 5.41847 11.6497 5.41806 11.6511 5.41773C11.6525 5.41741 11.6532 5.41727 11.6531 5.41728C11.6526 5.41739 11.6361 5.42065 11.591 5.42499C11.4938 5.43434 11.322 5.44352 10.9926 5.45128C10.3401 5.46664 9.17115 5.47468 6.97132 5.48689L6.98243 7.48686ZM12.2703 7.3189C13.8281 6.80284 14.8876 5.54762 14.9897 3.91984L12.9936 3.79471C12.9474 4.53126 12.4997 5.13603 11.6414 5.42035L12.2703 7.3189ZM14.9897 3.91984C15.0592 2.8101 14.6741 1.82044 13.8843 1.03287L12.4721 2.44912C12.8649 2.84079 13.0263 3.27291 12.9936 3.79471L14.9897 3.91984ZM13.8842 1.03285C13.3946 0.544666 12.7402 0.15781 12.0775 0.00710644L11.634 1.95731C11.885 2.0144 12.214 2.19185 12.4721 2.44915L13.8842 1.03285ZM12.0777 0.00714869C11.9613 -0.0193303 11.8287 -0.0255841 11.7878 -0.0279072C11.7097 -0.0323472 11.6115 -0.0361081 11.4976 -0.0394215C11.2685 -0.0460885 10.9516 -0.0516168 10.5545 -0.0560795C9.75892 -0.0650196 8.62393 -0.0698613 7.18747 -0.0702588L7.18692 1.92974C8.62072 1.93014 9.74727 1.93498 10.532 1.94379C10.9251 1.94821 11.2281 1.95358 11.4394 1.95973C11.5458 1.96283 11.623 1.96596 11.6744 1.96887C11.7629 1.9739 11.7138 1.97547 11.6338 1.95727L12.0777 0.00714869ZM7.18746 -0.0702588L2.74415 -0.0714501L2.74362 1.92855L7.18692 1.92974L7.18746 -0.0702588ZM3.62279 0.451546L3.53752 0.294437L1.77972 1.24844L1.86499 1.40555L3.62279 0.451546ZM3.53763 0.294633C3.30476 -0.134656 2.91334 -0.535218 2.46355 -0.758091L1.57558 1.03398C1.62128 1.05662 1.72415 1.146 1.77961 1.24825L3.53763 0.294633ZM2.46345 -0.758143C2.15862 -0.909141 1.81768 -0.976323 1.52293 -0.99456C1.22998 -1.01269 0.88005 -0.988809 0.556623 -0.871174L1.24024 1.00837C1.22815 1.01276 1.23784 1.00782 1.27367 1.00381C1.30741 1.00004 1.35088 0.998619 1.39942 1.00162C1.44787 1.00462 1.49237 1.01147 1.52823 1.01997C1.56582 1.02887 1.58039 1.03636 1.57568 1.03403L2.46345 -0.758143ZM1.01156 1.76924C0.919148 1.67754 0.852083 1.53732 0.852083 1.3753C0.852083 1.21329 0.919148 1.07307 1.01156 0.981368L2.42029 2.40105C2.99602 1.82977 2.99602 0.920841 2.42029 0.349557L1.01156 1.76924ZM1.01172 0.981211C1.36481 0.631011 1.94712 0.90632 1.94712 1.36627H-0.0528812C-0.0528812 2.64855 1.48569 3.32802 2.42013 2.40121L1.01172 0.981211ZM1.94712 1.36627C1.94712 1.59629 1.79442 1.80025 1.59278 1.88073C1.39414 1.96002 1.16021 1.9167 1.01166 1.76934L2.42019 0.34946C1.53406 -0.529587 -0.0528812 0.0196452 -0.0528812 1.36627H1.94712Z" fill="#FF931E" mask="url(#path-1-inside-1)"/>
</svg>
