<svg width="81" height="58" viewBox="0 0 81 58" fill="none" xmlns="http://www.w3.org/2000/svg">
<g filter="url(#filter0_bd)">
<path fill-rule="evenodd" clip-rule="evenodd" d="M0 6.00302C0 3.23993 2.23993 1 5.00302 1H75.8791C78.6422 1 80.8822 3.23993 80.8822 6.00302V52.6979C80.8822 55.461 78.6422 57.7009 75.8792 57.7009H5.00303C2.23993 57.7009 0 55.461 0 52.6979V6.00302Z" fill="#F0F0F0"/>
</g>
<path d="M34.0727 53.1445C33.9994 53.2205 33.8976 53.2585 33.7673 53.2585C33.6371 53.2585 33.5353 53.2205 33.462 53.1445C33.3887 53.0658 33.3521 52.9586 33.3521 52.8229V47.8312C33.3521 47.6548 33.4036 47.515 33.5068 47.4119C33.6126 47.306 33.7565 47.2531 33.9383 47.2531C34.0931 47.2531 34.2193 47.2911 34.317 47.3671C34.4174 47.4404 34.5016 47.5625 34.5694 47.7335L36.3079 51.9556H36.3405L38.075 47.7335C38.1455 47.5652 38.231 47.4431 38.3315 47.3671C38.4319 47.2911 38.5608 47.2531 38.7183 47.2531C38.8947 47.2531 39.0345 47.3047 39.1376 47.4078C39.2435 47.5109 39.2964 47.6521 39.2964 47.8312V52.8229C39.2964 52.9586 39.2584 53.0658 39.1824 53.1445C39.1091 53.2205 39.0087 53.2585 38.8811 53.2585C38.7508 53.2585 38.6477 53.2205 38.5717 53.1445C38.4984 53.0658 38.4618 52.9586 38.4618 52.8229V48.8695H38.4333L36.7965 52.8147C36.7015 53.0427 36.5441 53.1567 36.3242 53.1567C36.1017 53.1567 35.9442 53.0454 35.8519 52.8229L34.2111 48.8695H34.1826V52.8229C34.1826 52.9586 34.146 53.0658 34.0727 53.1445ZM41.547 53.2666C41.1263 53.2666 40.7829 53.1472 40.5169 52.9084C40.2509 52.6695 40.1179 52.3587 40.1179 51.976C40.1179 51.6014 40.2563 51.3042 40.5332 51.0843C40.81 50.8618 41.2023 50.7369 41.7098 50.7098L42.8865 50.6405V50.3108C42.8865 50.0719 42.8105 49.886 42.6585 49.753C42.5065 49.6173 42.2961 49.5494 42.0274 49.5494C41.813 49.5494 41.6311 49.5915 41.4818 49.6756C41.3353 49.7598 41.2009 49.8982 41.0788 50.0909C40.9919 50.2158 40.8725 50.2782 40.7205 50.2782C40.6092 50.2782 40.5183 50.2443 40.4477 50.1764C40.3771 50.1085 40.3418 50.0203 40.3418 49.9118C40.3418 49.8168 40.3676 49.7218 40.4192 49.6268C40.5305 49.3852 40.7354 49.1925 41.034 49.0486C41.3325 48.9047 41.6746 48.8328 42.06 48.8328C42.5784 48.8328 42.991 48.9604 43.2977 49.2155C43.6071 49.4707 43.7619 49.8127 43.7619 50.2415V52.8269C43.7619 52.9626 43.7225 53.0712 43.6438 53.1526C43.5651 53.2314 43.4633 53.2707 43.3384 53.2707C43.2163 53.2707 43.1159 53.2341 43.0371 53.1608C42.9611 53.0848 42.9218 52.9816 42.9191 52.8514V52.489H42.8987C42.7766 52.7251 42.5906 52.9138 42.3409 53.0549C42.0939 53.1961 41.8293 53.2666 41.547 53.2666ZM41.7872 52.5704C42.0966 52.5704 42.3572 52.4768 42.5689 52.2895C42.7806 52.0995 42.8865 51.8661 42.8865 51.5892V51.2513L41.8279 51.3164C41.5646 51.3354 41.361 51.4006 41.2172 51.5118C41.076 51.6204 41.0055 51.767 41.0055 51.9516C41.0055 52.1388 41.0774 52.2895 41.2213 52.4035C41.3651 52.5148 41.5538 52.5704 41.7872 52.5704ZM45.5809 48.1162C45.4804 48.214 45.3596 48.2628 45.2185 48.2628C45.0774 48.2628 44.9566 48.214 44.8561 48.1162C44.7584 48.0158 44.7096 47.8964 44.7096 47.7579C44.7096 47.6168 44.7584 47.4987 44.8561 47.4037C44.9566 47.306 45.0774 47.2572 45.2185 47.2572C45.3624 47.2572 45.4831 47.306 45.5809 47.4037C45.6813 47.4987 45.7315 47.6168 45.7315 47.7579C45.7315 47.8964 45.6813 48.0158 45.5809 48.1162ZM45.5361 53.1445C45.4574 53.2286 45.3515 53.2707 45.2185 53.2707C45.0855 53.2707 44.9783 53.2286 44.8969 53.1445C44.8181 53.0604 44.7788 52.9477 44.7788 52.8066V49.301C44.7788 49.1599 44.8181 49.0472 44.8969 48.9631C44.9783 48.8762 45.0855 48.8328 45.2185 48.8328C45.3515 48.8328 45.4574 48.8762 45.5361 48.9631C45.6175 49.0472 45.6582 49.1599 45.6582 49.301V52.8066C45.6582 52.9477 45.6175 53.0604 45.5361 53.1445ZM47.4813 53.1445C47.3999 53.2286 47.294 53.2707 47.1637 53.2707C47.0334 53.2707 46.9276 53.2286 46.8461 53.1445C46.7647 53.0604 46.724 52.9477 46.724 52.8066V47.705C46.724 47.5639 46.7647 47.4512 46.8461 47.3671C46.9276 47.2829 47.0334 47.2409 47.1637 47.2409C47.294 47.2409 47.3999 47.2829 47.4813 47.3671C47.5627 47.4512 47.6034 47.5639 47.6034 47.705V52.8066C47.6034 52.9477 47.5627 53.0604 47.4813 53.1445Z" fill="#0087FB"/>
<path fill-rule="evenodd" clip-rule="evenodd" d="M40.858 39.3565C49.1473 39.3565 55.8671 32.6367 55.8671 24.3474C55.8671 16.0582 49.1473 9.33838 40.858 9.33838C32.5688 9.33838 25.849 16.0582 25.849 24.3474C25.849 32.6367 32.5688 39.3565 40.858 39.3565Z" fill="#0087FB"/>
<path fill-rule="evenodd" clip-rule="evenodd" d="M47.6726 19.3444L41.0253 26.1605C40.9381 26.2506 40.7795 26.2506 40.6923 26.1624C37.682 23.0677 35.318 20.5864 34.1923 19.3444H47.6726ZM33.3535 28.1789V19.8871C34.0214 20.6583 35.2184 21.9284 37.3235 24.1076L33.3535 28.1789ZM44.4001 24.1152L48.3626 28.179V20.0514L44.4001 24.1152ZM40.8589 27.2321C41.1825 27.2321 41.4865 27.1026 41.7154 26.8681L43.7097 24.8231L47.9733 29.1946H33.7435L38.0109 24.8184C38.6084 25.4357 39.2698 26.1158 40.0015 26.8681C40.2304 27.1026 40.5343 27.2321 40.8589 27.2321Z" fill="white"/>
<defs>
<filter id="filter0_bd" x="-67.9981" y="-66.9981" width="216.878" height="192.697" filterUnits="userSpaceOnUse" color-interpolation-filters="sRGB">
<feFlood flood-opacity="0" result="BackgroundImageFix"/>
<feGaussianBlur in="BackgroundImage" stdDeviation="33.9991"/>
<feComposite in2="SourceAlpha" operator="in" result="effect1_backgroundBlur"/>
<feColorMatrix in="SourceAlpha" type="matrix" values="0 0 0 0 0 0 0 0 0 0 0 0 0 0 0 0 0 0 127 0"/>
<feOffset dy="-0.416918"/>
<feColorMatrix type="matrix" values="0 0 0 0 1 0 0 0 0 1 0 0 0 0 1 0 0 0 0.16 0"/>
<feBlend mode="normal" in2="effect1_backgroundBlur" result="effect2_dropShadow"/>
<feBlend mode="normal" in="SourceGraphic" in2="effect2_dropShadow" result="shape"/>
</filter>
</defs>
</svg>
