<svg width="81" height="58" viewBox="0 0 81 58" fill="none" xmlns="http://www.w3.org/2000/svg">
<g filter="url(#filter0_bd)">
<path fill-rule="evenodd" clip-rule="evenodd" d="M0 6.00302C0 3.23993 2.23993 1 5.00302 1H75.8791C78.6422 1 80.8822 3.23993 80.8822 6.00302V52.6979C80.8822 55.461 78.6422 57.7009 75.8792 57.7009H5.00303C2.23993 57.7009 0 55.461 0 52.6979V6.00302Z" fill="#F0F0F0"/>
</g>
<path d="M36.3974 51.6234C35.5669 51.6234 34.9086 51.352 34.4228 50.8091C33.9396 50.2635 33.6981 49.5225 33.6981 48.5861C33.6981 47.6578 33.941 46.9209 34.4269 46.3753C34.9127 45.827 35.5669 45.5529 36.3893 45.5529C36.9267 45.5529 37.399 45.6764 37.8062 45.9234C38.216 46.1704 38.5133 46.511 38.6978 46.9453C38.7548 47.062 38.7833 47.1787 38.7833 47.2954C38.7833 47.4176 38.7453 47.5153 38.6693 47.5886C38.596 47.6619 38.4983 47.6985 38.3762 47.6985C38.1672 47.6985 38.0138 47.5845 37.9161 47.3565C37.7831 47.0335 37.5809 46.7851 37.3095 46.6114C37.0407 46.4377 36.734 46.3509 36.3893 46.3509C35.8546 46.3509 35.4271 46.5544 35.1068 46.9616C34.7892 47.366 34.6304 47.9075 34.6304 48.5861C34.6304 49.2728 34.7892 49.8184 35.1068 50.2228C35.4244 50.6245 35.8532 50.8254 36.3934 50.8254C36.7571 50.8254 37.0706 50.7467 37.3339 50.5893C37.5999 50.4318 37.7994 50.197 37.9324 49.8849C37.9813 49.7763 38.0369 49.699 38.0993 49.6528C38.1645 49.604 38.2473 49.5795 38.3477 49.5795C38.4725 49.5795 38.573 49.6189 38.649 49.6976C38.7277 49.7736 38.767 49.8713 38.767 49.9908C38.767 50.1075 38.7345 50.2337 38.6693 50.3694C38.4793 50.7684 38.1889 51.0778 37.798 51.2977C37.4072 51.5148 36.9403 51.6234 36.3974 51.6234ZM40.981 51.599C40.5603 51.599 40.2169 51.4796 39.9509 51.2407C39.6849 51.0018 39.5519 50.691 39.5519 50.3083C39.5519 49.9338 39.6903 49.6365 39.9672 49.4167C40.244 49.1941 40.6363 49.0692 41.1438 49.0421L42.3205 48.9729V48.6431C42.3205 48.4042 42.2445 48.2183 42.0925 48.0853C41.9405 47.9496 41.7301 47.8817 41.4614 47.8817C41.247 47.8817 41.0651 47.9238 40.9158 48.0079C40.7693 48.0921 40.6349 48.2305 40.5128 48.4232C40.4259 48.5481 40.3065 48.6105 40.1545 48.6105C40.0432 48.6105 39.9523 48.5766 39.8817 48.5087C39.8111 48.4409 39.7758 48.3527 39.7758 48.2441C39.7758 48.1491 39.8016 48.0541 39.8532 47.9591C39.9645 47.7175 40.1694 47.5248 40.468 47.3809C40.7665 47.2371 41.1086 47.1652 41.494 47.1652C42.0124 47.1652 42.425 47.2927 42.7317 47.5479C43.0411 47.803 43.1959 48.145 43.1959 48.5739V51.1593C43.1959 51.295 43.1565 51.4036 43.0778 51.485C42.9991 51.5637 42.8973 51.6031 42.7724 51.6031C42.6503 51.6031 42.5499 51.5664 42.4711 51.4931C42.3951 51.4171 42.3558 51.314 42.3531 51.1837V50.8213H42.3327C42.2106 51.0575 42.0246 51.2461 41.7749 51.3873C41.5279 51.5284 41.2633 51.599 40.981 51.599ZM41.2212 50.9028C41.5306 50.9028 41.7912 50.8091 42.0029 50.6218C42.2146 50.4318 42.3205 50.1984 42.3205 49.9215V49.5836L41.2619 49.6487C40.9986 49.6677 40.795 49.7329 40.6512 49.8442C40.51 49.9528 40.4395 50.0993 40.4395 50.2839C40.4395 50.4712 40.5114 50.6218 40.6553 50.7358C40.7991 50.8471 40.9878 50.9028 41.2212 50.9028ZM44.9741 51.4768C44.8927 51.561 44.7869 51.6031 44.6566 51.6031C44.5263 51.6031 44.4204 51.561 44.339 51.4768C44.2576 51.3927 44.2169 51.2801 44.2169 51.1389V46.0374C44.2169 45.8962 44.2576 45.7836 44.339 45.6994C44.4204 45.6153 44.5263 45.5732 44.6566 45.5732C44.7869 45.5732 44.8927 45.6153 44.9741 45.6994C45.0556 45.7836 45.0963 45.8962 45.0963 46.0374V51.1389C45.0963 51.2801 45.0556 51.3927 44.9741 51.4768ZM46.9234 51.4768C46.842 51.561 46.7361 51.6031 46.6059 51.6031C46.4756 51.6031 46.3697 51.561 46.2883 51.4768C46.2069 51.3927 46.1661 51.2801 46.1661 51.1389V46.0374C46.1661 45.8962 46.2069 45.7836 46.2883 45.6994C46.3697 45.6153 46.4756 45.5732 46.6059 45.5732C46.7361 45.5732 46.842 45.6153 46.9234 45.6994C47.0049 45.7836 47.0456 45.8962 47.0456 46.0374V51.1389C47.0456 51.2801 47.0049 51.3927 46.9234 51.4768Z" fill="#0087FB"/>
<path fill-rule="evenodd" clip-rule="evenodd" d="M40.441 38.5226C48.9606 38.5226 55.867 31.6162 55.867 23.0967C55.867 14.5771 48.9606 7.67068 40.441 7.67068C31.9215 7.67068 25.015 14.5771 25.015 23.0967C25.015 31.6162 31.9215 38.5226 40.441 38.5226Z" fill="#0087FB"/>
<path fill-rule="evenodd" clip-rule="evenodd" d="M38.0686 26.055C38.0686 26.055 43.5191 31.03 46.5909 29.4616C46.5909 29.4616 47.4398 28.7662 47.5221 28.0829C47.6043 27.3997 46.899 26.9414 46.6264 26.7857C45.9739 26.4112 45.3027 26.0622 44.6368 25.7069C44.4264 25.5943 44.1982 25.4673 43.9497 25.5296C43.8058 25.5663 43.6576 25.6063 43.5262 25.6685C43.0574 25.8889 42.673 26.0966 42.1652 26.3034C42.1652 26.3034 41.6468 26.1518 39.7132 24.3911C37.6588 22.5201 37.9364 21.8244 37.9364 21.8244C38.2037 21.4834 38.4469 21.1265 38.6494 20.7504C38.7364 20.5883 38.8562 20.4318 38.9068 20.2553C38.9583 20.078 38.8527 19.951 38.7639 19.7953C38.5668 19.4472 38.3564 19.1054 38.138 18.7676C37.7616 18.1839 37.3771 17.5754 36.8968 17.0539C36.8462 16.9996 36.7281 16.8367 36.6314 16.8431C35.5633 16.9078 34.5113 17.8684 34.5113 17.8684C32.8582 20.5867 38.0686 26.055 38.0686 26.055Z" fill="white"/>
<defs>
<filter id="filter0_bd" x="-67.9981" y="-66.9981" width="216.878" height="192.697" filterUnits="userSpaceOnUse" color-interpolation-filters="sRGB">
<feFlood flood-opacity="0" result="BackgroundImageFix"/>
<feGaussianBlur in="BackgroundImage" stdDeviation="33.9991"/>
<feComposite in2="SourceAlpha" operator="in" result="effect1_backgroundBlur"/>
<feColorMatrix in="SourceAlpha" type="matrix" values="0 0 0 0 0 0 0 0 0 0 0 0 0 0 0 0 0 0 127 0"/>
<feOffset dy="-0.416918"/>
<feColorMatrix type="matrix" values="0 0 0 0 1 0 0 0 0 1 0 0 0 0 1 0 0 0 0.16 0"/>
<feBlend mode="normal" in2="effect1_backgroundBlur" result="effect2_dropShadow"/>
<feBlend mode="normal" in="SourceGraphic" in2="effect2_dropShadow" result="shape"/>
</filter>
</defs>
</svg>
