<svg width="19" height="20" viewBox="0 0 19 20" fill="none" xmlns="http://www.w3.org/2000/svg">
<path d="M3.35868 0.392135C3.35342 0.206724 3.48755 0.0186826 3.67953 0.000930513C3.87086 -0.00893178 4.0372 0.161357 4.04641 0.348741C4.06942 1.01543 4.03129 1.6841 4.06416 2.34947C4.60922 2.3567 5.15624 2.35605 5.7013 2.35013C5.76245 1.667 5.69341 0.970065 5.73483 0.282992C5.75258 0.0647066 6.02413 -0.0661331 6.2102 0.0384072C6.33841 0.102183 6.39955 0.254063 6.39758 0.391477C6.4081 1.04831 6.38574 1.70579 6.40744 2.36196C6.94526 2.34487 7.4844 2.35473 8.02288 2.35802C8.03209 2.3429 8.0505 2.31397 8.0597 2.29884C8.06102 1.70908 8.05707 1.118 8.05905 0.528234C8.05379 0.387532 8.10113 0.254063 8.13794 0.120593C8.2438 0.0679941 8.349 -0.0286564 8.47655 0.00816278C8.6521 0.0397221 8.75861 0.221846 8.75467 0.39082C8.76782 1.04699 8.73494 1.70448 8.7711 2.35999C9.32208 2.34355 9.87371 2.36131 10.4253 2.35079C10.4306 1.69659 10.4221 1.04173 10.4286 0.387532C10.4339 0.224476 10.5272 0.0364347 10.7048 0.00947778C10.8935 -0.0358888 11.1111 0.12651 11.0966 0.325729C11.1072 1.00228 11.0874 1.67949 11.1058 2.35605C11.6693 2.34816 12.2321 2.35933 12.7949 2.34947C12.8344 2.02796 12.8186 1.70316 12.8206 1.37968C12.8285 0.987817 12.8068 0.59464 12.8291 0.203436C12.9284 -0.0727079 13.3781 -0.0556134 13.4432 0.232366C13.4886 0.937191 13.4116 1.64793 13.4833 2.35079C14.0376 2.35013 14.5931 2.36591 15.1474 2.34224C15.1665 1.67226 15.1441 1.00097 15.1586 0.330331C15.1474 0.0910061 15.4433 -0.0852002 15.6464 0.0449821C15.8318 0.15544 15.8253 0.394107 15.8489 0.581491C15.8608 1.16994 15.8384 1.75839 15.8575 2.34618C16.4052 2.36854 16.9548 2.34027 17.5032 2.35933C17.5347 1.68344 17.5019 1.00557 17.519 0.329674C17.5051 0.144262 17.7004 -0.021424 17.8806 0.0068479C18.0528 0.0153952 18.1778 0.187656 18.1732 0.353343C18.1863 1.01609 18.1718 1.67949 18.1797 2.34224C18.3711 2.36722 18.6018 2.31265 18.7531 2.46322C18.8523 2.55395 18.8477 2.69662 18.8517 2.82023C18.8484 7.25103 18.8523 11.6818 18.8497 16.1126C18.8754 16.3204 18.684 16.5137 18.4763 16.4946C15.9745 16.4966 13.4721 16.4966 10.9704 16.4946C10.8113 16.5032 10.6989 16.3756 10.5739 16.2994C10.1275 16.0035 9.68501 15.6997 9.23529 15.4085C8.90589 15.1731 8.41475 15.2138 8.13005 15.5018C7.83879 15.8062 7.62774 16.1803 7.33515 16.4821C7.17867 16.5058 7.00904 16.515 6.85716 16.469C6.2549 16.131 5.70262 15.7102 5.19043 15.248C4.70455 14.7227 4.15226 14.2598 3.7249 13.6819C3.42574 13.2848 3.14894 12.8679 2.92671 12.4228C2.86556 12.2058 3.12264 12.1197 3.24954 12.002C3.53554 11.7627 3.86691 11.5694 4.10755 11.2814C4.32978 10.9934 4.31729 10.5726 4.11084 10.2801C3.67296 9.62324 3.23704 8.96444 2.79587 8.30958C2.7505 8.2412 2.70645 8.16822 2.70316 8.08406C2.65451 7.6922 2.68607 7.2964 2.67818 6.90256C2.67095 6.63957 2.69922 6.37657 2.69659 6.11358C2.71631 5.75656 2.63676 5.3956 2.72552 5.04385C7.64549 5.03662 12.5648 5.04582 17.4848 5.03925C17.6557 5.04911 17.8339 4.91564 17.8306 4.73483C17.8608 4.53956 17.6761 4.36204 17.4835 4.3811C12.9678 4.37584 8.45222 4.38045 3.93661 4.37913C3.52634 4.36795 3.11344 4.4028 2.70514 4.35941C2.65714 3.78608 2.69199 3.21078 2.71171 2.63745C2.75248 2.32843 3.11475 2.33566 3.35079 2.35868C3.36986 1.70316 3.35276 1.04765 3.35868 0.392135ZM3.56842 3.05956C3.44744 3.13188 3.34158 3.27127 3.37249 3.42052C3.40273 3.73282 3.91951 3.78739 4.01353 3.48824C4.13057 3.22327 3.82944 2.93069 3.56842 3.05956ZM5.93076 3.04838C5.76508 3.13582 5.65199 3.37712 5.7848 3.53952C5.89789 3.75123 6.2457 3.74005 6.34432 3.52045C6.52579 3.27258 6.20033 2.93332 5.93076 3.04838ZM8.3056 3.05232C8.0288 3.12662 8.0242 3.57108 8.28391 3.67168C8.42001 3.68285 8.60213 3.70389 8.68103 3.56253C8.88616 3.3265 8.59555 2.92806 8.3056 3.05232ZM10.4622 3.53689C10.6121 3.70915 10.904 3.75518 11.0493 3.55201C11.2393 3.30151 10.9349 2.91688 10.6456 3.06153C10.4339 3.11544 10.4523 3.3666 10.4622 3.53689ZM12.8258 3.48561C12.8857 3.70784 13.15 3.70323 13.3321 3.6605C13.4754 3.49415 13.5201 3.18579 13.2893 3.07402C13.0336 2.9228 12.7016 3.21078 12.8258 3.48561ZM15.2178 3.13319C15.1908 3.24562 15.1343 3.36331 15.1803 3.47969C15.2546 3.73019 15.653 3.76372 15.7766 3.53558C15.8351 3.37646 15.8174 3.16081 15.6458 3.0806C15.5077 2.9846 15.3473 3.06482 15.2178 3.13319ZM17.5328 3.4935C17.6031 3.6868 17.8299 3.69535 18.0029 3.6914C18.2027 3.53623 18.2468 3.16738 17.9759 3.06416C17.7162 2.93135 17.4184 3.23247 17.5328 3.4935ZM5.10102 6.55738C5.02672 6.73556 5.0688 6.99724 5.28643 7.04261C5.42384 7.10178 5.63161 7.01433 5.71971 7.15438C5.72957 7.77899 5.72431 8.4036 5.72234 9.02821C5.58887 9.1584 5.34823 9.01967 5.20358 9.15577C5.04447 9.24321 5.03724 9.46347 5.11154 9.60877C5.26868 9.81391 5.55139 9.77578 5.77888 9.77709C6.9926 9.78235 8.20764 9.76263 9.42136 9.78695C9.4253 10.5325 9.42004 11.2775 9.42333 12.0224C9.41807 12.2072 9.50946 12.4425 9.72972 12.4379C10.8599 12.4544 11.9908 12.4314 13.1217 12.4491C13.1532 13.1244 13.1289 13.8016 13.1348 14.4775C12.7699 14.49 12.4037 14.4643 12.0395 14.4893C11.9126 14.5379 11.7837 14.6464 11.7962 14.7957C11.7627 15.0258 12.0119 15.177 12.2163 15.1553C13.8403 15.1547 15.4643 15.156 17.0883 15.154C17.2047 15.1586 17.3092 15.1014 17.4151 15.0626C17.4775 14.937 17.5249 14.8023 17.5163 14.6602C17.5157 12.1414 17.5144 9.62258 17.5163 7.10375C17.5104 6.90716 17.5505 6.68362 17.417 6.51793C17.3395 6.41471 17.2053 6.39827 17.0857 6.39893C13.2058 6.39959 9.32602 6.39893 5.4462 6.39959C5.3147 6.39498 5.17597 6.44561 5.10102 6.55738Z" fill="white"/>
<path d="M6.39489 9.09329C6.39555 8.41608 6.40146 7.73953 6.3916 7.06298C7.40545 7.07284 8.41929 7.07415 9.43313 7.06232C9.41998 7.73887 9.42787 8.41608 9.42853 9.09329C8.41732 9.08606 7.4061 9.08737 6.39489 9.09329Z" fill="white"/>
<path d="M10.0959 7.06694C11.1077 7.07023 12.1196 7.07154 13.1315 7.06628C13.1289 7.74086 13.1302 8.4161 13.1302 9.09134C12.1183 9.09003 11.1064 9.08411 10.0952 9.09397C10.1038 8.41873 10.1018 7.74218 10.0959 7.06694Z" fill="white"/>
<path d="M13.8032 7.06757C14.8138 7.0702 15.825 7.06888 16.8355 7.06822C16.8316 7.74215 16.8316 8.41673 16.8355 9.09065C15.825 9.08802 14.8138 9.08934 13.8032 9.08999C13.8032 8.41607 13.8039 7.74215 13.8032 7.06757Z" fill="white"/>
<path d="M0.516182 8.73104C0.865307 8.50749 1.22232 8.29512 1.58131 8.08802C1.68717 8.01372 1.8305 8.04659 1.88573 8.16428C2.43078 8.96313 2.9594 9.7725 3.50314 10.5713C3.56955 10.6686 3.66028 10.8225 3.53799 10.9159C3.21911 11.2104 2.84631 11.4405 2.52086 11.7265C2.33347 11.887 2.26773 12.1302 2.20987 12.3597C2.28942 12.7588 2.5248 13.0967 2.72994 13.44C3.10142 14.0159 3.52813 14.559 4.02387 15.0337C4.36971 15.3651 4.68596 15.7293 5.0581 16.0331C5.58014 16.4775 6.15281 16.8628 6.7577 17.1857C7.08973 17.3632 7.54142 17.2876 7.78929 17.0022C8.09831 16.6735 8.33304 16.2816 8.63679 15.9496C8.73147 15.8575 8.8393 15.945 8.92609 15.9995C9.70521 16.5315 10.4935 17.0515 11.2766 17.5775C11.3739 17.6459 11.5225 17.7386 11.4508 17.88C11.3345 18.1311 11.1721 18.3573 11.0327 18.596C10.9045 18.7958 10.8026 19.0174 10.6329 19.187C10.3673 19.4178 10.0077 19.5033 9.66247 19.5046C8.47505 19.5973 7.35338 19.072 6.35466 18.4848C5.19748 17.7741 4.18101 16.8622 3.227 15.9016C2.2434 14.8877 1.33015 13.7864 0.672664 12.53C0.200589 11.5714 -0.166946 10.478 0.0782965 9.40299C0.121033 9.12816 0.279487 8.87897 0.516182 8.73104Z" fill="white"/>
<path d="M10.0957 9.76065C11.1076 9.76328 12.1194 9.76591 13.1307 9.75934C13.1287 10.4339 13.13 11.1092 13.13 11.7844C12.1188 11.7831 11.1076 11.7785 10.0964 11.787C10.1016 11.1111 10.1023 10.4359 10.0957 9.76065Z" fill="white"/>
<path d="M13.8027 9.76129C14.8139 9.76392 15.8252 9.76261 16.8357 9.76195C16.8318 10.4359 16.8318 11.1105 16.8357 11.7844C15.8252 11.7811 14.8139 11.7831 13.8034 11.7831C13.8034 11.1091 13.804 10.4352 13.8027 9.76129Z" fill="white"/>
<path d="M13.8027 12.4543C14.8139 12.4576 15.8252 12.4557 16.8357 12.4557C16.8318 13.1296 16.8324 13.8035 16.8357 14.4781C15.8245 14.4741 14.8139 14.4768 13.8034 14.4768C13.8034 13.8028 13.804 13.1289 13.8027 12.4543Z" fill="white"/>
</svg>
