<svg width="34" height="34" viewBox="0 0 34 34" fill="none"
    xmlns="http://www.w3.org/2000/svg">
    <rect width="34" height="34" rx="17" fill="#0087FB"/>
    <path d="M23 11C25.07 13.04 25.85 15.89 25.36 18.55C25.77 19.27 26 20.11 26 21C26 22.3261 25.4732 23.5979 24.5355 24.5355C23.5979 25.4732 22.3261 26 21 26C20.11 26 19.27 25.77 18.55 25.36C15.89 25.85 13.04 25.07 11 23C8.93 20.96 8.15 18.11 8.64 15.45C8.23 14.73 8 13.89 8 13C8 11.6739 8.52678 10.4021 9.46447 9.46447C10.4021 8.52678 11.6739 8 13 8C13.89 8 14.73 8.23 15.45 8.64C18.11 8.15 20.96 8.93 23 11ZM17.04 22.16C19.91 22.16 21.34 20.78 21.34 18.92C21.34 17.73 20.78 16.46 18.61 15.97L16.62 15.53C15.86 15.36 15 15.13 15 14.42C15 13.7 15.6 13.2 16.7 13.2C18.93 13.2 18.72 14.73 19.83 14.73C20.41 14.73 20.91 14.39 20.91 13.8C20.91 12.43 18.72 11.4 16.86 11.4C14.85 11.4 12.7 12.26 12.7 14.54C12.7 15.64 13.09 16.81 15.25 17.35L17.94 18.03C18.75 18.23 18.95 18.68 18.95 19.1C18.95 19.78 18.27 20.45 17.04 20.45C14.63 20.45 14.96 18.6 13.67 18.6C13.09 18.6 12.67 19 12.67 19.57C12.67 20.68 14 22.16 17.04 22.16Z" fill="white"/>
</svg>
