<svg width="24" height="21" viewBox="0 0 24 21" fill="none" xmlns="http://www.w3.org/2000/svg">
<path d="M14.2857 6.12314H12.5714V11.8126L17.4629 14.7028L18.2857 13.326L14.2857 10.9592V6.12314ZM13.7143 0.433716C10.9863 0.433716 8.37013 1.51267 6.44119 3.43322C4.51224 5.35378 3.42857 7.95861 3.42857 10.6747H0L4.52571 15.2604L9.14286 10.6747H5.71429C5.71429 8.56218 6.55714 6.5362 8.05743 5.04244C9.55772 3.54867 11.5926 2.70949 13.7143 2.70949C15.836 2.70949 17.8708 3.54867 19.3711 5.04244C20.8714 6.5362 21.7143 8.56218 21.7143 10.6747C21.7143 12.7872 20.8714 14.8132 19.3711 16.3069C17.8708 17.8007 15.836 18.6399 13.7143 18.6399C11.5086 18.6399 9.50857 17.7409 8.06857 16.2958L6.44571 17.9116C8.30857 19.7778 10.8571 20.9156 13.7143 20.9156C16.4422 20.9156 19.0584 19.8367 20.9874 17.9161C22.9163 15.9956 24 13.3908 24 10.6747C24 7.95861 22.9163 5.35378 20.9874 3.43322C19.0584 1.51267 16.4422 0.433716 13.7143 0.433716Z" fill="#757575"/>
</svg>
