<svg width="110" height="22" viewBox="0 0 110 22" fill="none" xmlns="http://www.w3.org/2000/svg">
<path d="M18.8977 16.92C18.7072 16.199 18.307 15.5507 17.7478 15.0573C17.1886 14.5638 16.4956 14.2473 15.7565 14.1479C15.0174 14.0484 14.2654 14.1705 13.5957 14.4987C12.926 14.8268 12.3687 15.3463 11.9944 15.9913C11.9543 16.0593 11.9177 16.1272 11.8829 16.1969L9.85649 15.5575C10.0191 14.5767 9.88371 13.5697 9.46777 12.6667C9.05184 11.7637 8.37452 11.0062 7.52344 10.4924L9.12992 7.36654C9.49833 7.48376 9.88283 7.54255 10.2694 7.54078C10.5958 7.54071 10.9208 7.49854 11.2365 7.41533C12.0644 7.19601 12.793 6.70133 13.3023 6.01272C13.8117 5.32411 14.0714 4.48261 14.0387 3.62672C14.0061 2.77084 13.683 1.95158 13.1226 1.3038C12.5623 0.656015 11.7981 0.21831 10.9558 0.0627306C10.1136 -0.0928486 9.24345 0.0429698 8.48867 0.447829C7.73389 0.852689 7.13944 1.50246 6.80317 2.2902C6.4669 3.07793 6.40885 3.95668 6.63857 4.78181C6.8683 5.60693 7.3721 6.32926 8.06706 6.82989L6.43445 10.0045C5.54302 9.72713 4.59141 9.70693 3.68902 9.94623C2.78663 10.1855 1.97008 10.6746 1.33325 11.3573C0.696426 12.04 0.265169 12.8885 0.0890601 13.8053C-0.0870493 14.7221 -0.00086228 15.6701 0.337715 16.5401C0.676291 17.4101 1.25351 18.1669 2.00302 18.7235C2.75253 19.2802 3.6439 19.614 4.57465 19.6866C5.50541 19.7592 6.43777 19.5677 7.26455 19.1341C8.09133 18.7005 8.77896 18.0424 9.2484 17.2354C9.34823 17.0613 9.43782 16.8815 9.51672 16.697L11.5205 17.3312C11.438 17.885 11.4798 18.4501 11.6429 18.9857C11.806 19.5212 12.0864 20.0137 12.4636 20.4274C12.8408 20.8411 13.3054 21.1656 13.8236 21.3774C14.3419 21.5891 14.9008 21.6828 15.4597 21.6516C16.0187 21.6205 16.5637 21.4652 17.0552 21.1971C17.5467 20.9291 17.9723 20.5549 18.3012 20.1019C18.6301 19.6488 18.8539 19.1282 18.9565 18.5778C19.0591 18.0275 19.0378 17.4612 18.8942 16.92" fill="#FF931E"/>
<path d="M9.18196 13.6235C9.40313 14.4584 9.37175 15.3401 9.09176 16.1572C8.81177 16.9742 8.29577 17.6899 7.60901 18.2136C6.92225 18.7374 6.0956 19.0457 5.23359 19.0996C4.37159 19.1535 3.51297 18.9505 2.76632 18.5164C2.01968 18.0822 1.41856 17.4364 1.03899 16.6606C0.659423 15.8848 0.518459 15.0138 0.633929 14.1579C0.749399 13.302 1.11612 12.4995 1.6877 11.852C2.25928 11.2045 3.01004 10.7411 3.84503 10.5203C4.39922 10.3736 4.97689 10.3374 5.54505 10.4139C6.11321 10.4905 6.66073 10.6782 7.15633 10.9664C7.65193 11.2545 8.0859 11.6375 8.43347 12.0934C8.78103 12.5494 9.03537 13.0693 9.18196 13.6235Z" fill="#FF931E"/>
<path d="M5.55267 13.6757L11.2067 2.67774C11.2307 2.61011 11.2295 2.53609 11.2033 2.46929C11.1771 2.40249 11.1276 2.34739 11.0641 2.31412C11.0005 2.28084 10.927 2.27163 10.8572 2.28818C10.7874 2.30473 10.7259 2.34592 10.684 2.40418L5.02472 13.4126C5.00183 13.4472 4.98646 13.4862 4.97963 13.5272C4.97279 13.5681 4.97464 13.6101 4.98505 13.6502C4.99546 13.6904 5.0142 13.728 5.04006 13.7604C5.06591 13.7929 5.09831 13.8196 5.13514 13.8387C5.17196 13.8579 5.21241 13.8691 5.25384 13.8716C5.29528 13.8741 5.33678 13.8679 5.37565 13.8533C5.41453 13.8388 5.44991 13.8162 5.47951 13.7871C5.5091 13.758 5.53224 13.723 5.54744 13.6844" fill="#FF931E"/>
<path d="M3.37137 14.4441L15.1638 18.1693C15.2371 18.1858 15.3138 18.174 15.3787 18.1363C15.4436 18.0986 15.4919 18.0378 15.5139 17.966C15.536 17.8942 15.5301 17.8168 15.4975 17.7492C15.4649 17.6816 15.4079 17.6288 15.3381 17.6013L3.55084 13.8778C3.51365 13.8664 3.47458 13.8624 3.43585 13.8661C3.39712 13.8697 3.35949 13.881 3.32511 13.8992C3.29073 13.9174 3.26027 13.9422 3.23547 13.9721C3.21067 14.0021 3.19202 14.0367 3.18058 14.0739C3.16914 14.111 3.16513 14.1501 3.16879 14.1888C3.17245 14.2276 3.1837 14.2652 3.20191 14.2996C3.22011 14.334 3.24491 14.3644 3.27488 14.3892C3.30485 14.414 3.33942 14.4327 3.3766 14.4441" fill="#FF931E"/>
<path d="M13.3411 2.95836C13.5004 3.5658 13.4761 4.20683 13.2712 4.80046C13.0664 5.39409 12.6902 5.91368 12.1901 6.29356C11.69 6.67344 11.0886 6.89657 10.4618 6.93475C9.83495 6.97293 9.21087 6.82445 8.66841 6.50807C8.12594 6.19169 7.68942 5.72161 7.41402 5.15724C7.13862 4.59286 7.0367 3.95951 7.12112 3.33722C7.20555 2.71494 7.47254 2.13164 7.88836 1.66105C8.30417 1.19045 8.85016 0.853667 9.45731 0.693259C9.86106 0.586591 10.2819 0.560585 10.6957 0.616727C11.1095 0.672869 11.5082 0.810058 11.8689 1.02044C12.2296 1.23083 12.5453 1.51028 12.798 1.84281C13.0506 2.17534 13.2351 2.55442 13.3411 2.95836Z" fill="#FF931E"/>
<path d="M18.3245 17.0716C18.4838 17.6791 18.4595 18.3201 18.2546 18.9137C18.0498 19.5074 17.6736 20.027 17.1735 20.4068C16.6734 20.7867 16.072 21.0098 15.4452 21.048C14.8183 21.0862 14.1943 20.9377 13.6518 20.6213C13.1093 20.305 12.6728 19.8349 12.3974 19.2705C12.122 18.7061 12.0201 18.0728 12.1045 17.4505C12.1889 16.8282 12.4559 16.2449 12.8718 15.7743C13.2876 15.3037 13.8336 14.9669 14.4407 14.8065C14.8445 14.6999 15.2653 14.6739 15.6791 14.73C16.0929 14.7862 16.4916 14.9233 16.8523 15.1337C17.213 15.3441 17.5287 15.6236 17.7814 15.9561C18.034 16.2886 18.2185 16.6677 18.3245 17.0716Z" fill="#FF931E"/>
<path d="M26.6738 15.1864C26.6738 11.0587 29.0644 8.68555 34.6418 8.68555C39.6947 8.68555 42.1932 10.6597 42.5382 14.1915H39.6581C39.3322 11.9455 37.5568 11.0935 34.6418 11.0935C31.2005 11.0935 29.5348 12.2714 29.5348 15.1864C29.5348 18.1014 31.2197 19.3158 34.6418 19.3158C37.5393 19.3158 39.3322 18.4446 39.6581 16.1795H42.5557C42.1932 19.7288 39.6947 21.7221 34.6418 21.7221C29.0644 21.7255 26.6738 19.3367 26.6738 15.1864Z" fill="#FF931E"/>
<path d="M43.9668 15.1864C43.9668 11.0587 46.3573 8.68555 51.9347 8.68555C57.5121 8.68555 59.9044 11.0761 59.9044 15.1864C59.9044 19.2967 57.4947 21.7256 51.9347 21.7256C46.3748 21.7256 43.9668 19.3367 43.9668 15.1864ZM57.0347 15.1864C57.0347 12.2888 55.5136 11.0935 51.9277 11.0935C48.3419 11.0935 46.8208 12.2714 46.8208 15.1864C46.8208 18.1014 48.3611 19.3158 51.9277 19.3158C55.4944 19.3158 57.0416 18.1031 57.0416 15.1864H57.0347Z" fill="#FF931E"/>
<path d="M61.4937 8.8667H65.4593L74.9675 18.6101V8.8667H77.8285V21.5443H73.8837L64.3581 11.8009V21.5443H61.4937V8.8667Z" fill="#FF931E"/>
<path d="M79.6143 8.8667H93.0149V11.1666H82.4665V14.1182H93.0062V16.291H82.4665V19.2443H93.0062V21.5443H79.6143V8.8667Z" fill="#FF931E"/>
<path d="M100.774 11.2747H94.4248V8.8667H110V11.2747H103.637V21.5443H100.774V11.2747Z" fill="#FF931E"/>
</svg>
