<svg width="241" height="48" viewBox="0 0 241 48" fill="none" xmlns="http://www.w3.org/2000/svg">
<path d="M41.4032 37.0703C40.9857 35.4906 40.1089 34.0702 38.8838 32.9891C37.6588 31.9079 36.1404 31.2145 34.5211 30.9967C32.9018 30.7788 31.2542 31.0463 29.7869 31.7653C28.3197 32.4843 27.0987 33.6224 26.2786 35.0356C26.1908 35.1845 26.1107 35.3333 26.0343 35.486L21.5947 34.085C21.951 31.9362 21.6543 29.7299 20.743 27.7515C19.8318 25.7731 18.3478 24.1137 16.4832 22.9879L20.0028 16.1394C20.81 16.3962 21.6524 16.525 22.4994 16.5212C23.2145 16.521 23.9266 16.4286 24.6181 16.2463C26.432 15.7658 28.0283 14.682 29.1442 13.1733C30.2601 11.6646 30.8291 9.82098 30.7576 7.94582C30.686 6.07066 29.9781 4.27574 28.7505 2.8565C27.5228 1.43727 25.8486 0.478297 24.0032 0.137437C22.1579 -0.203423 20.2516 0.0941429 18.5979 0.981153C16.9443 1.86816 15.6419 3.29176 14.9051 5.01761C14.1684 6.74347 14.0412 8.66873 14.5445 10.4765C15.0478 12.2843 16.1516 13.8668 17.6742 14.9637L14.0973 21.919C12.1443 21.3112 10.0594 21.267 8.08231 21.7913C6.10525 22.3156 4.31627 23.3872 2.92104 24.8828C1.52581 26.3785 0.580962 28.2375 0.195123 30.2462C-0.190717 32.2549 -0.00188918 34.3317 0.739902 36.2378C1.48169 38.144 2.74633 39.8021 4.38844 41.0216C6.03054 42.2411 7.98345 42.9724 10.0226 43.1315C12.0618 43.2907 14.1046 42.8711 15.916 41.9211C17.7274 40.9711 19.2339 39.5292 20.2624 37.7612C20.4811 37.3798 20.6774 36.9859 20.8503 36.5816L25.2403 37.9712C25.0595 39.1843 25.1512 40.4225 25.5086 41.5959C25.866 42.7692 26.4802 43.8482 27.3066 44.7546C28.133 45.6609 29.1509 46.3719 30.2863 46.8358C31.4217 47.2998 32.6462 47.5051 33.8709 47.4368C35.0956 47.3685 36.2896 47.0283 37.3664 46.441C38.4432 45.8537 39.3758 45.034 40.0963 44.0413C40.8168 43.0487 41.3072 41.9081 41.532 40.7023C41.7567 39.4965 41.7101 38.2558 41.3955 37.0703" fill="white"/>
<path d="M20.1176 29.8477C20.6021 31.6768 20.5334 33.6086 19.9199 35.3987C19.3065 37.1888 18.176 38.7567 16.6714 39.9042C15.1667 41.0517 13.3556 41.7272 11.467 41.8453C9.57847 41.9633 7.69731 41.5187 6.06148 40.5675C4.42565 39.6164 3.10865 38.2014 2.27705 36.5017C1.44545 34.802 1.13662 32.8938 1.3896 31.0185C1.64258 29.1432 2.44603 27.3851 3.69831 25.9665C4.95059 24.5479 6.59544 23.5326 8.42484 23.0489C9.63901 22.7273 10.9046 22.6481 12.1494 22.8158C13.3942 22.9835 14.5938 23.3948 15.6796 24.0261C16.7654 24.6575 17.7162 25.4965 18.4777 26.4954C19.2392 27.4943 19.7964 28.6334 20.1176 29.8477Z" fill="white"/>
<path d="M12.1657 29.9621L24.5532 5.86668C24.6058 5.71851 24.6031 5.55635 24.5457 5.41C24.4883 5.26364 24.38 5.14292 24.2407 5.07002C24.1014 4.99712 23.9404 4.97695 23.7875 5.0132C23.6345 5.04945 23.4997 5.1397 23.408 5.26735L11.009 29.3857C10.9589 29.4616 10.9252 29.5471 10.9102 29.6368C10.8952 29.7265 10.8993 29.8184 10.9221 29.9064C10.9449 29.9945 10.986 30.0767 11.0426 30.1479C11.0993 30.219 11.1702 30.2775 11.2509 30.3194C11.3316 30.3614 11.4202 30.3859 11.511 30.3914C11.6018 30.397 11.6927 30.3833 11.7779 30.3514C11.8631 30.3195 11.9406 30.2701 12.0054 30.2063C12.0702 30.1425 12.121 30.0659 12.1542 29.9812" fill="white"/>
<path d="M7.38616 31.6458L33.2224 39.8074C33.3828 39.8435 33.551 39.8176 33.6932 39.735C33.8354 39.6524 33.9412 39.5192 33.9894 39.3619C34.0377 39.2047 34.0248 39.0351 33.9533 38.8869C33.8819 38.7388 33.7572 38.6231 33.6041 38.563L7.77935 30.4052C7.69789 30.3801 7.61229 30.3713 7.52743 30.3793C7.44258 30.3874 7.36014 30.412 7.28481 30.4519C7.20948 30.4918 7.14275 30.5461 7.08842 30.6118C7.03408 30.6774 6.99322 30.7532 6.96815 30.8346C6.94309 30.9161 6.93431 31.0017 6.94233 31.0865C6.95035 31.1714 6.975 31.2538 7.01488 31.3292C7.05476 31.4045 7.10908 31.4712 7.17475 31.5256C7.24042 31.5799 7.31615 31.6208 7.39761 31.6458" fill="white"/>
<path d="M29.2296 6.48132C29.5787 7.81216 29.5254 9.21661 29.0766 10.5172C28.6278 11.8178 27.8035 12.9562 26.7079 13.7884C25.6123 14.6207 24.2946 15.1096 22.9213 15.1932C21.548 15.2769 20.1807 14.9516 18.9922 14.2584C17.8037 13.5653 16.8473 12.5354 16.244 11.2989C15.6406 10.0624 15.4173 8.67475 15.6022 7.31138C15.7872 5.94801 16.3722 4.67007 17.2832 3.63903C18.1942 2.60799 19.3904 1.87013 20.7206 1.51869C21.6052 1.28499 22.5272 1.22802 23.4338 1.35102C24.3404 1.47402 25.2139 1.77459 26.0042 2.23553C26.7945 2.69646 27.4862 3.30872 28.0397 4.03726C28.5931 4.76581 28.9975 5.59633 29.2296 6.48132Z" fill="white"/>
<path d="M40.1471 37.4025C40.4962 38.7333 40.4429 40.1378 39.9941 41.4383C39.5453 42.7389 38.721 43.8773 37.6254 44.7096C36.5298 45.5419 35.2121 46.0307 33.8388 46.1144C32.4655 46.198 31.0982 45.8727 29.9097 45.1796C28.7212 44.4864 27.7648 43.4565 27.1614 42.22C26.5581 40.9835 26.3348 39.5959 26.5197 38.2325C26.7047 36.8692 27.2897 35.5912 28.2007 34.5602C29.1117 33.5291 30.3079 32.7913 31.6381 32.4398C32.5227 32.2061 33.4446 32.1492 34.3513 32.2722C35.2579 32.3952 36.1313 32.6957 36.9217 33.1567C37.712 33.6176 38.4037 34.2299 38.9571 34.9584C39.5106 35.6869 39.915 36.5175 40.1471 37.4025Z" fill="white"/>
<path d="M58.4404 33.272C58.4404 24.2286 63.6779 19.0293 75.8974 19.0293C86.9679 19.0293 92.442 23.3544 93.1979 31.0923H86.8877C86.1739 26.1717 82.2839 24.305 75.8974 24.305C68.3581 24.305 64.7086 26.8855 64.7086 33.272C64.7086 39.6586 68.4 42.3193 75.8974 42.3193C82.2458 42.3193 86.1739 40.4106 86.8877 35.448H93.2361C92.4421 43.224 86.9679 47.5911 75.8974 47.5911C63.6779 47.5988 58.4404 42.3651 58.4404 33.272Z" fill="white"/>
<path d="M96.3281 33.272C96.3281 24.2286 101.566 19.0293 113.785 19.0293C126.005 19.0293 131.246 24.2668 131.246 33.272C131.246 42.2773 125.966 47.5988 113.785 47.5988C101.604 47.5988 96.3281 42.3651 96.3281 33.272ZM124.959 33.272C124.959 26.9237 121.626 24.305 113.77 24.305C105.914 24.305 102.581 26.8855 102.581 33.272C102.581 39.6586 105.956 42.3193 113.77 42.3193C121.584 42.3193 124.974 39.6624 124.974 33.272H124.959Z" fill="white"/>
<path d="M134.728 19.4263H143.416L164.248 40.7732V19.4263H170.516V47.2017H161.873L141.003 25.8548V47.2017H134.728V19.4263Z" fill="white"/>
<path d="M174.429 19.4263H203.788V24.4652H180.678V30.9319H203.769V35.6922H180.678V42.1627H203.769V47.2017H174.429V19.4263Z" fill="white"/>
<path d="M220.787 24.7019H206.876V19.4263H241V24.7019H227.059V47.2017H220.787V24.7019Z" fill="white"/>
</svg>
