<svg width="396" height="450" viewBox="0 0 396 450" fill="none" xmlns="http://www.w3.org/2000/svg">
    <path
        d="M392.615 351.527C388.657 336.548 380.342 323.079 368.725 312.827C357.108 302.574 342.71 295.999 327.355 293.933C311.999 291.868 296.375 294.404 282.462 301.222C268.548 308.04 256.97 318.832 249.193 332.233C248.361 333.645 247.601 335.057 246.877 336.505L204.777 323.219C208.155 302.843 205.342 281.921 196.701 263.16C188.059 244.4 173.988 228.664 156.305 217.988L189.681 153.046C197.335 155.481 205.324 156.703 213.356 156.666C220.137 156.664 226.889 155.788 233.447 154.059C250.648 149.503 265.785 139.226 276.367 124.919C286.949 110.613 292.344 93.1298 291.666 75.3481C290.987 57.5665 284.275 40.5457 272.633 27.0875C260.992 13.6292 245.115 4.53556 227.616 1.30328C210.118 -1.92901 192.04 0.892732 176.359 9.30402C160.678 17.7153 148.328 31.2149 141.341 47.5807C134.355 63.9465 133.149 82.2032 137.922 99.3459C142.694 116.489 153.161 131.495 167.6 141.896L133.681 207.852C115.161 202.089 95.3904 201.669 76.6424 206.641C57.8945 211.613 40.93 221.774 27.6994 235.957C14.4688 250.14 5.50911 267.769 1.8503 286.817C-1.80852 305.864 -0.0179146 325.558 7.01629 343.634C14.0505 361.709 26.0428 377.433 41.6144 388.997C57.186 400.561 75.7049 407.496 95.0421 409.005C114.379 410.514 133.75 406.535 150.927 397.527C168.104 388.518 182.39 374.845 192.143 358.08C194.217 354.463 196.078 350.728 197.718 346.894L239.347 360.071C237.633 371.575 238.502 383.316 241.891 394.443C245.28 405.569 251.105 415.801 258.941 424.396C266.778 432.991 276.43 439.732 287.197 444.132C297.964 448.531 309.576 450.478 321.189 449.83C332.802 449.183 344.125 445.957 354.336 440.388C364.547 434.819 373.39 427.045 380.222 417.632C387.055 408.22 391.705 397.403 393.837 385.969C395.968 374.535 395.526 362.77 392.543 351.527"
        fill="#FF931E" />
    <path
        d="M190.767 283.038C195.362 300.384 194.71 318.702 188.893 335.677C183.076 352.652 172.356 367.52 158.088 378.402C143.82 389.283 126.645 395.689 108.737 396.808C90.8277 397.928 72.9891 393.711 57.477 384.692C41.9649 375.672 29.4761 362.255 21.5903 346.137C13.7045 330.019 10.7758 311.924 13.1748 294.141C15.5738 276.358 23.1926 259.687 35.0677 246.234C46.9427 232.782 62.5405 223.154 79.8881 218.567C91.4018 215.518 103.403 214.767 115.207 216.357C127.011 217.947 138.386 221.847 148.683 227.834C158.979 233.821 167.996 241.778 175.216 251.25C182.437 260.722 187.721 271.524 190.767 283.038Z"
        fill="#FF931E" />
    <path
        d="M115.364 284.124L232.831 55.6332C233.33 54.2282 233.305 52.6905 232.76 51.3026C232.216 49.9147 231.189 48.77 229.868 48.0787C228.547 47.3874 227.021 47.1961 225.57 47.5399C224.12 47.8836 222.842 48.7394 221.972 49.9499L104.396 278.658C103.92 279.377 103.601 280.189 103.459 281.039C103.317 281.89 103.355 282.761 103.572 283.596C103.788 284.431 104.177 285.211 104.714 285.885C105.252 286.56 105.925 287.114 106.69 287.512C107.455 287.91 108.295 288.143 109.156 288.195C110.017 288.247 110.879 288.118 111.687 287.816C112.494 287.513 113.229 287.044 113.844 286.44C114.459 285.835 114.94 285.108 115.256 284.305"
        fill="#FF931E" />
    <path
        d="M70.0417 300.088L315.039 377.482C316.561 377.824 318.156 377.579 319.504 376.796C320.853 376.012 321.856 374.749 322.313 373.258C322.771 371.767 322.649 370.158 321.971 368.754C321.294 367.349 320.111 366.252 318.659 365.681L73.7702 288.323C72.9977 288.085 72.186 288.002 71.3813 288.078C70.5767 288.154 69.7949 288.388 69.0806 288.766C68.3663 289.144 67.7335 289.66 67.2182 290.282C66.703 290.905 66.3155 291.623 66.0778 292.396C65.8401 293.168 65.7569 293.98 65.833 294.785C65.909 295.589 66.1427 296.371 66.5209 297.085C66.899 297.8 67.4142 298.432 68.037 298.948C68.6597 299.463 69.3778 299.85 70.1503 300.088"
        fill="#FF931E" />
    <path
        d="M277.175 61.4613C280.486 74.0813 279.981 87.3993 275.725 99.7324C271.468 112.066 263.652 122.86 253.263 130.753C242.874 138.645 230.378 143.281 217.355 144.074C204.333 144.867 191.367 141.782 180.097 135.209C168.827 128.636 159.758 118.87 154.036 107.145C148.314 95.4193 146.197 82.261 147.951 69.3325C149.705 56.404 155.252 44.2856 163.891 34.5086C172.53 24.7315 183.873 17.7346 196.487 14.402C204.875 12.1859 213.618 11.6456 222.215 12.812C230.812 13.9784 239.095 16.8286 246.59 21.1995C254.084 25.5705 260.643 31.3764 265.891 38.2849C271.14 45.1935 274.974 53.0692 277.175 61.4613Z"
        fill="#FF931E" />
    <path
        d="M380.706 354.677C384.016 367.297 383.511 380.615 379.255 392.948C374.999 405.281 367.182 416.076 356.793 423.968C346.404 431.86 333.908 436.496 320.886 437.289C307.863 438.083 294.897 434.998 283.627 428.425C272.357 421.852 263.288 412.085 257.566 400.36C251.845 388.635 249.727 375.476 251.481 362.548C253.235 349.619 258.782 337.501 267.421 327.724C276.06 317.947 287.403 310.95 300.017 307.617C308.405 305.401 317.148 304.861 325.745 306.027C334.343 307.194 342.625 310.044 350.12 314.415C357.614 318.786 364.173 324.592 369.422 331.5C374.67 338.409 378.504 346.285 380.706 354.677Z"
        fill="#FF931E" />
</svg>