<svg xmlns="http://www.w3.org/2000/svg" xmlns:xlink="http://www.w3.org/1999/xlink" zoomAndPan="magnify" preserveAspectRatio="xMidYMid meet" version="1.0" viewBox="11.79 154.24 342 68.34"><defs><g/><clipPath id="e391c091ea"><path d="M 11.792969 154.238281 L 71 154.238281 L 71 222 L 11.792969 222 Z M 11.792969 154.238281 " clip-rule="nonzero"/></clipPath><clipPath id="3da17893e6"><path d="M 305 181 L 353.792969 181 L 353.792969 222 L 305 222 Z M 305 181 " clip-rule="nonzero"/></clipPath><clipPath id="c839f4d4a1"><path d="M 93.085938 171 L 144.835938 171 L 144.835938 222.578125 L 93.085938 222.578125 Z M 93.085938 171 " clip-rule="nonzero"/></clipPath><clipPath id="c2c8cb3fbc"><path d="M 93.085938 170.828125 L 144.835938 170.828125 L 144.835938 222.578125 L 93.085938 222.578125 Z M 93.085938 170.828125 " clip-rule="nonzero"/></clipPath></defs><g clip-path="url(#e391c091ea)"><path fill="#ff931e" d="M 70.550781 206.726562 C 69.960938 204.488281 68.714844 202.480469 66.976562 200.949219 C 65.238281 199.417969 63.085938 198.433594 60.785156 198.128906 C 58.488281 197.816406 56.152344 198.195312 54.070312 199.214844 C 51.988281 200.234375 50.253906 201.84375 49.089844 203.847656 C 48.964844 204.058594 48.851562 204.265625 48.742188 204.484375 L 42.445312 202.5 C 42.949219 199.457031 42.527344 196.332031 41.234375 193.53125 C 39.941406 190.730469 37.835938 188.378906 35.191406 186.785156 L 40.183594 177.089844 C 41.328125 177.453125 42.523438 177.636719 43.726562 177.628906 C 44.742188 177.628906 45.753906 177.5 46.734375 177.242188 C 49.308594 176.558594 51.574219 175.027344 53.15625 172.890625 C 54.738281 170.753906 55.546875 168.144531 55.445312 165.488281 C 55.34375 162.832031 54.339844 160.289062 52.597656 158.28125 C 50.855469 156.273438 48.480469 154.914062 45.859375 154.429688 C 43.242188 153.949219 40.539062 154.371094 38.191406 155.625 C 35.84375 156.882812 33.996094 158.898438 32.949219 161.339844 C 31.90625 163.785156 31.726562 166.511719 32.4375 169.070312 C 33.152344 171.628906 34.71875 173.871094 36.878906 175.425781 L 31.804688 185.273438 C 29.03125 184.414062 26.074219 184.351562 23.269531 185.09375 C 20.464844 185.835938 17.925781 187.351562 15.945312 189.46875 C 13.964844 191.585938 12.625 194.21875 12.078125 197.0625 C 11.527344 199.910156 11.796875 202.847656 12.851562 205.546875 C 13.902344 208.246094 15.695312 210.59375 18.027344 212.320312 C 20.355469 214.046875 23.128906 215.085938 26.023438 215.308594 C 28.914062 215.535156 31.816406 214.941406 34.386719 213.59375 C 36.957031 212.25 39.09375 210.207031 40.554688 207.707031 C 40.863281 207.164062 41.140625 206.605469 41.386719 206.035156 L 47.617188 208.003906 C 47.359375 209.71875 47.492188 211.472656 47.996094 213.136719 C 48.503906 214.796875 49.375 216.324219 50.550781 217.609375 C 51.722656 218.890625 53.167969 219.898438 54.777344 220.554688 C 56.386719 221.210938 58.125 221.503906 59.863281 221.40625 C 61.601562 221.308594 63.296875 220.828125 64.824219 219.996094 C 66.351562 219.164062 67.675781 218.003906 68.699219 216.597656 C 69.71875 215.191406 70.417969 213.578125 70.734375 211.871094 C 71.054688 210.164062 70.988281 208.40625 70.542969 206.726562 " fill-opacity="1" fill-rule="nonzero"/></g><path fill="#ff931e" d="M 40.347656 196.5 C 41.035156 199.089844 40.9375 201.824219 40.066406 204.359375 C 39.195312 206.894531 37.589844 209.113281 35.457031 210.738281 C 33.320312 212.363281 30.75 213.320312 28.070312 213.488281 C 25.390625 213.65625 22.722656 213.027344 20.398438 211.679688 C 18.078125 210.332031 16.210938 208.328125 15.03125 205.921875 C 13.851562 203.515625 13.410156 200.8125 13.769531 198.15625 C 14.128906 195.503906 15.269531 193.011719 17.046875 191.003906 C 18.824219 188.996094 21.15625 187.558594 23.753906 186.875 C 25.476562 186.417969 27.273438 186.304688 29.039062 186.542969 C 30.804688 186.78125 32.507812 187.363281 34.046875 188.257812 C 35.589844 189.152344 36.9375 190.339844 38.019531 191.753906 C 39.101562 193.167969 39.890625 194.78125 40.347656 196.5 Z M 40.347656 196.5 " fill-opacity="1" fill-rule="nonzero"/><path fill="#ff931e" d="M 29.0625 196.660156 L 46.640625 162.542969 C 46.714844 162.332031 46.710938 162.105469 46.628906 161.898438 C 46.550781 161.691406 46.394531 161.519531 46.199219 161.414062 C 46 161.3125 45.773438 161.285156 45.554688 161.335938 C 45.335938 161.386719 45.144531 161.515625 45.015625 161.695312 L 27.421875 195.847656 C 27.351562 195.953125 27.300781 196.074219 27.28125 196.203125 C 27.261719 196.328125 27.265625 196.457031 27.296875 196.582031 C 27.332031 196.707031 27.390625 196.824219 27.46875 196.925781 C 27.550781 197.027344 27.648438 197.109375 27.765625 197.167969 C 27.878906 197.226562 28.003906 197.261719 28.132812 197.269531 C 28.261719 197.277344 28.390625 197.257812 28.511719 197.214844 C 28.632812 197.167969 28.742188 197.097656 28.835938 197.007812 C 28.925781 196.917969 29 196.808594 29.046875 196.6875 " fill-opacity="1" fill-rule="nonzero"/><path fill="#ff931e" d="M 22.28125 199.046875 L 58.945312 210.601562 C 59.171875 210.652344 59.410156 210.617188 59.613281 210.5 C 59.8125 210.382812 59.964844 210.195312 60.03125 209.972656 C 60.101562 209.75 60.082031 209.507812 59.980469 209.300781 C 59.878906 209.089844 59.703125 208.925781 59.484375 208.839844 L 22.839844 197.289062 C 22.722656 197.253906 22.601562 197.242188 22.480469 197.253906 C 22.363281 197.265625 22.246094 197.300781 22.136719 197.355469 C 22.03125 197.410156 21.9375 197.488281 21.859375 197.582031 C 21.78125 197.675781 21.722656 197.78125 21.6875 197.898438 C 21.652344 198.011719 21.640625 198.132812 21.652344 198.253906 C 21.664062 198.375 21.699219 198.492188 21.753906 198.597656 C 21.8125 198.703125 21.886719 198.796875 21.980469 198.875 C 22.074219 198.953125 22.183594 199.011719 22.296875 199.046875 " fill-opacity="1" fill-rule="nonzero"/><path fill="#ff931e" d="M 53.277344 163.414062 C 53.773438 165.296875 53.695312 167.285156 53.058594 169.128906 C 52.421875 170.96875 51.253906 172.582031 49.699219 173.761719 C 48.144531 174.9375 46.273438 175.632812 44.324219 175.75 C 42.375 175.867188 40.4375 175.40625 38.75 174.425781 C 37.0625 173.445312 35.707031 171.988281 34.851562 170.234375 C 33.992188 168.484375 33.675781 166.519531 33.9375 164.589844 C 34.203125 162.660156 35.03125 160.847656 36.324219 159.390625 C 37.617188 157.929688 39.316406 156.882812 41.203125 156.386719 C 42.457031 156.054688 43.765625 155.976562 45.050781 156.148438 C 46.339844 156.324219 47.578125 156.75 48.699219 157.402344 C 49.820312 158.054688 50.804688 158.921875 51.589844 159.953125 C 52.375 160.984375 52.949219 162.160156 53.277344 163.414062 Z M 53.277344 163.414062 " fill-opacity="1" fill-rule="nonzero"/><path fill="#ff931e" d="M 68.769531 207.195312 C 69.265625 209.082031 69.191406 211.070312 68.554688 212.910156 C 67.917969 214.753906 66.746094 216.367188 65.191406 217.542969 C 63.636719 218.722656 61.765625 219.414062 59.820312 219.53125 C 57.871094 219.652344 55.929688 219.191406 54.242188 218.210938 C 52.554688 217.226562 51.199219 215.769531 50.34375 214.019531 C 49.488281 212.269531 49.171875 210.304688 49.433594 208.371094 C 49.695312 206.441406 50.523438 204.632812 51.816406 203.171875 C 53.109375 201.710938 54.808594 200.667969 56.695312 200.171875 C 57.949219 199.839844 59.257812 199.757812 60.546875 199.933594 C 61.832031 200.105469 63.070312 200.53125 64.191406 201.183594 C 65.316406 201.839844 66.296875 202.703125 67.082031 203.738281 C 67.867188 204.769531 68.441406 205.945312 68.769531 207.195312 Z M 68.769531 207.195312 " fill-opacity="1" fill-rule="nonzero"/><path fill="#ff931e" d="M 94.726562 201.347656 C 94.726562 188.542969 102.160156 181.179688 119.5 181.179688 C 135.210938 181.179688 142.976562 187.304688 144.050781 198.261719 L 135.097656 198.261719 C 134.082031 191.292969 128.5625 188.652344 119.5 188.652344 C 108.800781 188.652344 103.621094 192.304688 103.621094 201.347656 C 103.621094 210.390625 108.859375 214.160156 119.5 214.160156 C 128.507812 214.160156 134.082031 211.457031 135.097656 204.429688 L 144.105469 204.429688 C 142.976562 215.441406 135.210938 221.625 119.5 221.625 C 102.160156 221.636719 94.726562 214.222656 94.726562 201.347656 Z M 94.726562 201.347656 " fill-opacity="1" fill-rule="nonzero"/><path fill="#ff931e" d="M 148.492188 201.347656 C 148.492188 188.542969 155.925781 181.179688 173.265625 181.179688 C 190.605469 181.179688 198.042969 188.597656 198.042969 201.347656 C 198.042969 214.101562 190.550781 221.636719 173.265625 221.636719 C 155.976562 221.636719 148.492188 214.222656 148.492188 201.347656 Z M 189.121094 201.347656 C 189.121094 192.359375 184.390625 188.652344 173.242188 188.652344 C 162.09375 188.652344 157.363281 192.304688 157.363281 201.347656 C 157.363281 210.390625 162.152344 214.160156 173.242188 214.160156 C 184.332031 214.160156 189.140625 210.398438 189.140625 201.347656 Z M 189.121094 201.347656 " fill-opacity="1" fill-rule="nonzero"/><path fill="#ff931e" d="M 202.984375 181.742188 L 215.3125 181.742188 L 244.871094 211.96875 L 244.871094 181.742188 L 253.765625 181.742188 L 253.765625 221.074219 L 241.503906 221.074219 L 211.886719 190.847656 L 211.886719 221.074219 L 202.984375 221.074219 Z M 202.984375 181.742188 " fill-opacity="1" fill-rule="nonzero"/><path fill="#ff931e" d="M 259.320312 181.742188 L 300.980469 181.742188 L 300.980469 188.878906 L 268.1875 188.878906 L 268.1875 198.035156 L 300.953125 198.035156 L 300.953125 204.777344 L 268.1875 204.777344 L 268.1875 213.9375 L 300.953125 213.9375 L 300.953125 221.074219 L 259.320312 221.074219 Z M 259.320312 181.742188 " fill-opacity="1" fill-rule="nonzero"/><g clip-path="url(#3da17893e6)"><path fill="#ff931e" d="M 325.105469 189.214844 L 305.363281 189.214844 L 305.363281 181.742188 L 353.789062 181.742188 L 353.789062 189.214844 L 334.003906 189.214844 L 334.003906 221.074219 L 325.105469 221.074219 Z M 325.105469 189.214844 " fill-opacity="1" fill-rule="nonzero"/></g><g clip-path="url(#c839f4d4a1)"><path fill="#ffffff" d="M 93.429688 171.175781 L 144.488281 171.175781 L 144.488281 222.234375 L 93.429688 222.234375 Z M 93.429688 171.175781 " fill-opacity="1" fill-rule="nonzero"/></g><g clip-path="url(#c2c8cb3fbc)"><path fill="#ffffff" d="M 144.488281 222.578125 L 93.429688 222.578125 C 93.234375 222.578125 93.085938 222.429688 93.085938 222.234375 L 93.085938 171.175781 C 93.085938 170.980469 93.234375 170.828125 93.429688 170.828125 L 144.488281 170.828125 C 144.683594 170.828125 144.835938 170.980469 144.835938 171.175781 L 144.835938 222.234375 C 144.835938 222.429688 144.683594 222.578125 144.488281 222.578125 Z M 93.773438 221.890625 L 144.144531 221.890625 L 144.144531 171.519531 L 93.773438 171.519531 Z M 93.773438 221.890625 " fill-opacity="1" fill-rule="nonzero"/></g><g fill="#ff931e" fill-opacity="1"><g transform="translate(91.679064, 217.630254)"><g><path d="M 2.574219 0 L 10.875 0 L 10.875 -7.039062 L 23.847656 -16.074219 L 41.078125 0 L 52.578125 0 L 30.097656 -20.695312 L 52.578125 -36.769531 L 39.65625 -36.769531 L 10.875 -16.441406 L 10.875 -36.769531 L 2.574219 -36.769531 Z M 2.574219 0 "/></g></g></g></svg>