<svg width="23" height="27" viewBox="0 0 23 27" fill="none" xmlns="http://www.w3.org/2000/svg">
<path d="M22.2211 20.7125C21.9971 19.8442 21.5265 19.0636 20.869 18.4693C20.2115 17.8751 19.3966 17.494 18.5275 17.3742C17.6584 17.2545 16.7742 17.4015 15.9867 17.7967C15.1992 18.1919 14.5439 18.8174 14.1038 19.5941C14.0567 19.676 14.0136 19.7578 13.9726 19.8417L11.5899 19.0717C11.7811 17.8906 11.6219 16.678 11.1328 15.5906C10.6437 14.5032 9.8473 13.5911 8.84654 12.9723L10.7355 9.20818C11.1687 9.34933 11.6209 9.42013 12.0755 9.418C12.4592 9.4179 12.8414 9.36713 13.2125 9.26693C14.1861 9.00282 15.0428 8.40713 15.6417 7.5779C16.2407 6.74868 16.546 5.73535 16.5076 4.7047C16.4692 3.67404 16.0893 2.68749 15.4304 1.90743C14.7715 1.12737 13.873 0.600291 12.8826 0.412942C11.8922 0.225594 10.869 0.389146 9.98152 0.876677C9.094 1.36421 8.39501 2.14666 7.9996 3.09525C7.6042 4.04384 7.53594 5.10203 7.80606 6.09564C8.07618 7.08926 8.66858 7.95908 9.48576 8.56194L7.56603 12.3848C6.51784 12.0508 5.39888 12.0265 4.33779 12.3146C3.27669 12.6028 2.31655 13.1918 1.56772 14.0138C0.818902 14.8359 0.311803 15.8577 0.104723 16.9617C-0.102358 18.0658 -0.0010139 19.2072 0.397106 20.2549C0.795227 21.3026 1.47396 22.214 2.35528 22.8843C3.2366 23.5545 4.28473 23.9565 5.37917 24.044C6.47361 24.1314 7.56994 23.9008 8.54212 23.3787C9.5143 22.8565 10.3229 22.064 10.8749 21.0922C10.9922 20.8826 11.0976 20.6661 11.1904 20.4439L13.5465 21.2076C13.4495 21.8744 13.4987 22.555 13.6905 23.1999C13.8823 23.8448 14.2119 24.4379 14.6555 24.936C15.099 25.4342 15.6453 25.825 16.2547 26.08C16.8641 26.335 17.5213 26.4478 18.1786 26.4102C18.8358 26.3727 19.4767 26.1858 20.0546 25.863C20.6325 25.5401 21.133 25.0896 21.5197 24.544C21.9064 23.9984 22.1696 23.3715 22.2903 22.7088C22.4109 22.046 22.3859 21.3641 22.217 20.7125" fill="#757575"/>
<path d="M10.797 16.7428C11.0571 17.7481 11.0201 18.8099 10.6909 19.7938C10.3617 20.7777 9.75495 21.6395 8.94741 22.2702C8.13988 22.9009 7.16784 23.2722 6.15424 23.3371C5.14065 23.4019 4.13102 23.1575 3.25307 22.6348C2.37512 22.112 1.66829 21.3343 1.22197 20.4C0.775645 19.4658 0.609891 18.417 0.745668 17.3863C0.881444 16.3556 1.31265 15.3893 1.98475 14.6096C2.65685 13.8298 3.53965 13.2718 4.52149 13.0059C5.17314 12.8292 5.8524 12.7857 6.52048 12.8778C7.18856 12.97 7.83236 13.196 8.41512 13.543C8.99788 13.8901 9.50817 14.3512 9.91686 14.9003C10.3255 15.4493 10.6246 16.0754 10.797 16.7428Z" fill="#757575"/>
<path fill-rule="evenodd" clip-rule="evenodd" d="M4.7771 13.996C3.9865 14.2101 3.27564 14.6594 2.73444 15.2873C2.19325 15.9151 1.84602 16.6933 1.73669 17.5232C1.62736 18.3532 1.76083 19.1977 2.12022 19.95C2.47961 20.7022 3.04878 21.3285 3.75573 21.7494C4.46269 22.1704 5.27567 22.3672 6.09185 22.315C6.90803 22.2627 7.69075 21.9637 8.341 21.4559C8.99125 20.948 9.47983 20.2541 9.74493 19.4618C10.01 18.6696 10.0398 17.8146 9.83033 17.005L10.797 16.7428C11.0571 17.7481 11.0201 18.8099 10.6909 19.7938C10.3617 20.7777 9.75495 21.6395 8.94741 22.2702C8.13988 22.9009 7.16784 23.2722 6.15424 23.3371C5.14065 23.4019 4.13102 23.1575 3.25307 22.6348C2.37512 22.112 1.66829 21.3343 1.22197 20.4C0.775645 19.4658 0.609891 18.417 0.745668 17.3863C0.881444 16.3556 1.31265 15.3893 1.98475 14.6096C2.65685 13.8298 3.53965 13.2718 4.52149 13.0059C5.17314 12.8292 5.8524 12.7857 6.52048 12.8778C7.18856 12.97 7.83236 13.196 8.41512 13.543C8.99788 13.8901 9.50817 14.3512 9.91686 14.9003C10.3255 15.4493 10.6246 16.0754 10.797 16.7428L9.83033 17.005C9.69155 16.4677 9.45065 15.9632 9.12159 15.5211C8.79254 15.0791 8.38167 14.7078 7.91246 14.4284C7.44325 14.149 6.92489 13.967 6.38698 13.8928C5.84908 13.8186 5.30178 13.8537 4.7771 13.996Z" fill="#757575"/>
<path d="M6.52937 16.8057L13.1777 3.562C13.206 3.48056 13.2045 3.39143 13.1737 3.31099C13.1429 3.23055 13.0848 3.16419 13.01 3.12413C12.9353 3.08406 12.8489 3.07297 12.7668 3.0929C12.6847 3.11282 12.6124 3.16242 12.5631 3.23259L5.90858 16.4889C5.88166 16.5305 5.86359 16.5776 5.85555 16.6269C5.84752 16.6762 5.84969 16.7267 5.86193 16.7751C5.87417 16.8234 5.89621 16.8687 5.92661 16.9078C5.95701 16.9469 5.9951 16.979 6.03841 17.0021C6.08172 17.0251 6.12927 17.0386 6.17799 17.0416C6.22671 17.0447 6.27551 17.0372 6.32123 17.0196C6.36694 17.0021 6.40854 16.9749 6.44334 16.9399C6.47814 16.9048 6.50535 16.8627 6.52322 16.8162" fill="#757575"/>
<path fill-rule="evenodd" clip-rule="evenodd" d="M13.1794 3.55706C13.2059 3.47697 13.2039 3.38981 13.1737 3.31099C13.1429 3.23055 13.0848 3.16419 13.01 3.12413C12.9353 3.08406 12.8489 3.07297 12.7668 3.0929C12.6847 3.11282 12.6124 3.16242 12.5631 3.23259L5.91256 16.4809L6.52937 16.8057L13.1777 3.562L13.1794 3.55706ZM6.52322 16.8162L5.87497 16.555C5.86609 16.5782 5.85957 16.6022 5.85555 16.6269C5.84752 16.6762 5.84969 16.7267 5.86193 16.7751C5.87417 16.8234 5.89621 16.8687 5.92661 16.9078C5.95701 16.9469 5.9951 16.979 6.03841 17.0021C6.08172 17.0251 6.12927 17.0386 6.17799 17.0416C6.22671 17.0447 6.27551 17.0372 6.32123 17.0196C6.36694 17.0021 6.40854 16.9749 6.44334 16.9399C6.46073 16.9224 6.47623 16.9031 6.48962 16.8824C6.50301 16.8616 6.51428 16.8394 6.52322 16.8162Z" fill="#757575"/>
<path d="M3.96421 17.731L17.8305 22.2169C17.9166 22.2367 18.0069 22.2225 18.0832 22.1771C18.1596 22.1317 18.2163 22.0585 18.2422 21.9721C18.2681 21.8856 18.2612 21.7924 18.2228 21.711C18.1845 21.6296 18.1176 21.566 18.0354 21.5329L4.17523 17.0491C4.13151 17.0353 4.08557 17.0305 4.04003 17.0349C3.99449 17.0393 3.95024 17.0529 3.90981 17.0748C3.86938 17.0967 3.83357 17.1266 3.80441 17.1627C3.77525 17.1988 3.75331 17.2404 3.73986 17.2852C3.72641 17.3299 3.7217 17.377 3.726 17.4236C3.7303 17.4703 3.74353 17.5156 3.76494 17.557C3.78634 17.5984 3.8155 17.6351 3.85074 17.6649C3.88599 17.6948 3.92663 17.7172 3.97035 17.731" fill="#757575"/>
<path d="M15.6874 3.89979C15.8748 4.63126 15.8462 5.40319 15.6053 6.11804C15.3644 6.83289 14.922 7.45858 14.334 7.91603C13.746 8.37348 13.0388 8.64217 12.3018 8.68815C11.5647 8.73412 10.8309 8.55532 10.193 8.17434C9.55514 7.79336 9.04186 7.22729 8.71803 6.54767C8.39419 5.86805 8.27434 5.10537 8.37361 4.35602C8.47289 3.60666 8.78683 2.90426 9.27578 2.33757C9.76472 1.77087 10.4067 1.36532 11.1207 1.17216C11.5954 1.04371 12.0902 1.01239 12.5768 1.08C13.0634 1.14761 13.5322 1.31281 13.9564 1.56616C14.3805 1.8195 14.7518 2.15602 15.0488 2.55645C15.3458 2.95688 15.5629 3.41337 15.6874 3.89979Z" fill="#757575"/>
<path fill-rule="evenodd" clip-rule="evenodd" d="M14.66 5.78396C14.8364 5.2605 14.8574 4.69525 14.7202 4.15962C14.6289 3.80343 14.47 3.46917 14.2525 3.17595C14.035 2.88272 13.7632 2.63631 13.4526 2.45079C13.142 2.26528 12.7987 2.1443 12.4424 2.0948C12.0861 2.04529 11.7237 2.06823 11.3761 2.16228C10.8533 2.30373 10.3832 2.6007 10.0252 3.01567C9.66712 3.43063 9.43723 3.94497 9.36454 4.4937C9.29184 5.04242 9.37961 5.6009 9.61673 6.09856C9.85386 6.59622 10.2297 7.01072 10.6968 7.2897C11.1639 7.56868 11.7012 7.69961 12.241 7.66594C12.7807 7.63228 13.2986 7.43552 13.7291 7.10055C14.1597 6.76558 14.4836 6.30742 14.66 5.78396ZM15.6053 6.11804C15.8462 5.40319 15.8748 4.63126 15.6874 3.89979C15.5629 3.41337 15.3458 2.95688 15.0488 2.55645C14.7518 2.15602 14.3805 1.8195 13.9564 1.56616C13.5322 1.31281 13.0634 1.14761 12.5768 1.08C12.0902 1.01239 11.5954 1.04371 11.1207 1.17216C10.4067 1.36532 9.76472 1.77087 9.27578 2.33757C8.78683 2.90426 8.47289 3.60666 8.37361 4.35602C8.27434 5.10537 8.39419 5.86805 8.71803 6.54767C9.04186 7.22729 9.55514 7.79336 10.193 8.17434C10.8309 8.55532 11.5647 8.73412 12.3018 8.68815C13.0388 8.64217 13.746 8.37348 14.334 7.91603C14.922 7.45858 15.3644 6.83289 15.6053 6.11804Z" fill="#757575"/>
<path d="M21.7786 20.5785C21.966 21.31 21.9374 22.0819 21.6965 22.7968C21.4556 23.5116 21.0132 24.1373 20.4252 24.5947C19.8372 25.0522 19.13 25.3209 18.3929 25.3669C17.6559 25.4128 16.922 25.234 16.2842 24.8531C15.6463 24.4721 15.133 23.906 14.8092 23.2264C14.4854 22.5468 14.3655 21.7841 14.4648 21.0347C14.5641 20.2854 14.878 19.583 15.3669 19.0163C15.8559 18.4496 16.4979 18.044 17.2118 17.8509C17.6866 17.7224 18.1814 17.6911 18.668 17.7587C19.1546 17.8263 19.6233 17.9915 20.0475 18.2449C20.4717 18.4982 20.8429 18.8347 21.14 19.2352C21.437 19.6356 21.654 20.0921 21.7786 20.5785Z" fill="#757575"/>
<path fill-rule="evenodd" clip-rule="evenodd" d="M20.7512 22.4627C20.9276 21.9392 20.9485 21.374 20.8113 20.8383C20.7201 20.4821 20.5612 20.1479 20.3437 19.8547C20.1262 19.5614 19.8543 19.315 19.5437 19.1295C19.2331 18.944 18.8898 18.823 18.5335 18.7735C18.1772 18.724 17.8149 18.7469 17.4672 18.841C16.9445 18.9824 16.4744 19.2794 16.1163 19.6944C15.7583 20.1093 15.5284 20.6237 15.4557 21.1724C15.383 21.7211 15.4708 22.2796 15.7079 22.7773C15.945 23.2749 16.3209 23.6894 16.788 23.9684C17.2551 24.2474 17.7924 24.3783 18.3321 24.3447C18.8718 24.311 19.3897 24.1142 19.8203 23.7793C20.2508 23.4443 20.5748 22.9861 20.7512 22.4627ZM21.6965 22.7968C21.9374 22.0819 21.966 21.31 21.7786 20.5785C21.654 20.0921 21.437 19.6356 21.14 19.2352C20.8429 18.8347 20.4717 18.4982 20.0475 18.2449C19.6233 17.9915 19.1546 17.8263 18.668 17.7587C18.1814 17.6911 17.6866 17.7224 17.2118 17.8509C16.4979 18.044 15.8559 18.4496 15.3669 19.0163C14.878 19.583 14.5641 20.2854 14.4648 21.0347C14.3655 21.7841 14.4854 22.5468 14.8092 23.2264C15.133 23.906 15.6463 24.4721 16.2842 24.8531C16.922 25.234 17.6559 25.4128 18.3929 25.3669C19.13 25.3209 19.8372 25.0522 20.4252 24.5947C21.0132 24.1373 21.4556 23.5116 21.6965 22.7968Z" fill="#757575"/>
</svg>
