<svg width="23" height="26" viewBox="0 0 23 26" fill="none" xmlns="http://www.w3.org/2000/svg">
<path d="M22.2211 19.8957C21.9971 19.0478 21.5265 18.2855 20.869 17.7053C20.2115 17.125 19.3966 16.7529 18.5275 16.636C17.6584 16.519 16.7742 16.6626 15.9867 17.0485C15.1992 17.4343 14.5439 18.0452 14.1038 18.8036C14.0567 18.8835 14.0136 18.9634 13.9727 19.0454L11.5899 18.2935C11.7811 17.1402 11.6219 15.9561 11.1328 14.8943C10.6437 13.8325 9.8473 12.9418 8.84654 12.3376L10.7355 8.66205C11.1687 8.79988 11.6209 8.86901 12.0755 8.86693C12.4592 8.86684 12.8414 8.81726 13.2125 8.71942C14.1861 8.46152 15.0428 7.87985 15.6417 7.07014C16.2407 6.26043 16.546 5.27094 16.5076 4.26453C16.4692 3.25813 16.0893 2.2948 15.4304 1.53309C14.7715 0.771384 13.873 0.256703 12.8826 0.0737627C11.8922 -0.109177 10.869 0.0505266 9.98152 0.526586C9.094 1.00265 8.39501 1.76669 7.99961 2.69296C7.6042 3.61923 7.53594 4.65252 7.80606 5.62275C8.07618 6.59299 8.66858 7.44234 9.48576 8.03102L7.56603 11.7639C6.51784 11.4378 5.39888 11.414 4.33779 11.6954C3.27669 11.9768 2.31655 12.5519 1.56772 13.3546C0.818902 14.1574 0.311803 15.1551 0.104723 16.2332C-0.102358 17.3112 -0.0010139 18.4258 0.397106 19.4489C0.795227 20.4719 1.47396 21.3618 2.35528 22.0163C3.2366 22.6708 4.28473 23.0634 5.37917 23.1488C6.47361 23.2342 7.56994 23.009 8.54212 22.4991C9.5143 21.9892 10.3229 21.2154 10.8749 20.2665C10.9922 20.0618 11.0976 19.8504 11.1904 19.6334L13.5465 20.3792C13.4495 21.0303 13.4987 21.6948 13.6905 22.3246C13.8823 22.9543 14.2119 23.5334 14.6555 24.0198C15.099 24.5063 15.6453 24.8879 16.2547 25.1369C16.8641 25.3859 17.5213 25.496 18.1786 25.4594C18.8358 25.4227 19.4767 25.2402 20.0546 24.9249C20.6325 24.6097 21.133 24.1698 21.5197 23.6371C21.9064 23.1043 22.1696 22.4921 22.2903 21.845C22.4109 21.1978 22.3859 20.5319 22.217 19.8957" fill="#007AFF"/>
<path d="M10.797 16.0194C11.0571 17.0011 11.0201 18.0379 10.6909 18.9986C10.3617 19.9593 9.75495 20.8008 8.94742 21.4167C8.13988 22.0326 7.16784 22.3951 6.15425 22.4585C5.14065 22.5219 4.13102 22.2832 3.25307 21.7727C2.37512 21.2622 1.66829 20.5028 1.22197 19.5906C0.775645 18.6783 0.609891 17.6542 0.745668 16.6478C0.881445 15.6413 1.31265 14.6977 1.98475 13.9363C2.65685 13.175 3.53965 12.63 4.52149 12.3704C5.17314 12.1979 5.8524 12.1554 6.52048 12.2454C7.18856 12.3353 7.83236 12.5561 8.41512 12.8949C8.99788 13.2338 9.50817 13.6841 9.91686 14.2202C10.3255 14.7563 10.6246 15.3677 10.797 16.0194Z" fill="#007AFF"/>
<path fill-rule="evenodd" clip-rule="evenodd" d="M4.7771 13.3372C3.9865 13.5462 3.27564 13.9851 2.73444 14.5981C2.19325 15.2112 1.84602 15.971 1.73669 16.7814C1.62736 17.5919 1.76083 18.4165 2.12022 19.1511C2.47961 19.8857 3.04878 20.4972 3.75573 20.9082C4.46269 21.3193 5.27567 21.5115 6.09185 21.4604C6.90803 21.4094 7.69075 21.1175 8.341 20.6216C8.99125 20.1256 9.47983 19.448 9.74493 18.6744C10.01 17.9008 10.0398 17.066 9.83033 16.2754L10.797 16.0194C11.0571 17.0011 11.0201 18.0379 10.6909 18.9986C10.3617 19.9593 9.75495 20.8008 8.94742 21.4167C8.13988 22.0326 7.16784 22.3951 6.15425 22.4585C5.14065 22.5219 4.13102 22.2832 3.25307 21.7727C2.37512 21.2622 1.66829 20.5028 1.22197 19.5906C0.775645 18.6783 0.609891 17.6542 0.745668 16.6478C0.881445 15.6413 1.31265 14.6977 1.98475 13.9363C2.65685 13.175 3.53965 12.63 4.52149 12.3704C5.17314 12.1979 5.8524 12.1554 6.52048 12.2454C7.18856 12.3353 7.83236 12.5561 8.41512 12.8949C8.99788 13.2338 9.50817 13.6841 9.91686 14.2202C10.3255 14.7563 10.6246 15.3677 10.797 16.0194L9.83033 16.2754C9.69155 15.7507 9.45065 15.2581 9.12159 14.8265C8.79254 14.3948 8.38167 14.0322 7.91246 13.7594C7.44325 13.4866 6.92489 13.3089 6.38698 13.2364C5.84908 13.1639 5.30178 13.1983 4.7771 13.3372Z" fill="#007AFF"/>
<path d="M6.52937 16.0808L13.1777 3.14872C13.206 3.0692 13.2045 2.98217 13.1737 2.90362C13.1429 2.82507 13.0848 2.76028 13.01 2.72115C12.9353 2.68203 12.8489 2.6712 12.7668 2.69066C12.6847 2.71011 12.6124 2.75855 12.5631 2.82706L5.90858 15.7714C5.88166 15.8121 5.86359 15.858 5.85555 15.9062C5.84752 15.9543 5.84969 16.0036 5.86193 16.0509C5.87417 16.0981 5.89621 16.1423 5.92661 16.1805C5.95701 16.2187 5.9951 16.25 6.03841 16.2726C6.08172 16.2951 6.12927 16.3082 6.17799 16.3112C6.22671 16.3142 6.27551 16.3068 6.32123 16.2897C6.36694 16.2726 6.40854 16.2461 6.44334 16.2118C6.47814 16.1776 6.50535 16.1365 6.52322 16.091" fill="#007AFF"/>
<path fill-rule="evenodd" clip-rule="evenodd" d="M13.1794 3.1439C13.2059 3.06569 13.2039 2.98059 13.1737 2.90362C13.1429 2.82507 13.0848 2.76028 13.01 2.72115C12.9353 2.68203 12.8489 2.6712 12.7668 2.69066C12.6847 2.71011 12.6124 2.75855 12.5631 2.82706L5.91256 15.7637L6.52937 16.0808L13.1777 3.14872L13.1794 3.1439ZM6.52322 16.091L5.87498 15.836C5.86609 15.8586 5.85957 15.8821 5.85555 15.9062C5.84752 15.9543 5.84969 16.0036 5.86193 16.0509C5.87417 16.0981 5.89621 16.1423 5.92661 16.1805C5.95701 16.2187 5.9951 16.25 6.03841 16.2726C6.08172 16.2951 6.12927 16.3082 6.17799 16.3112C6.22671 16.3142 6.27551 16.3068 6.32123 16.2897C6.36694 16.2726 6.40854 16.2461 6.44334 16.2118C6.46073 16.1947 6.47623 16.1759 6.48962 16.1557C6.50301 16.1354 6.51429 16.1138 6.52322 16.091Z" fill="#007AFF"/>
<path d="M3.96421 16.9844L17.8305 21.3647C17.9167 21.384 18.0069 21.3702 18.0832 21.3258C18.1596 21.2815 18.2163 21.21 18.2422 21.1256C18.2681 21.0412 18.2612 20.9502 18.2228 20.8707C18.1845 20.7912 18.1176 20.7291 18.0354 20.6968L4.17523 16.3185C4.13151 16.305 4.08557 16.3003 4.04003 16.3046C3.99449 16.3089 3.95024 16.3222 3.90981 16.3436C3.86938 16.365 3.83357 16.3941 3.80441 16.4294C3.77525 16.4646 3.75331 16.5053 3.73986 16.549C3.72641 16.5927 3.7217 16.6386 3.726 16.6842C3.7303 16.7297 3.74353 16.774 3.76494 16.8144C3.78634 16.8548 3.8155 16.8906 3.85074 16.9198C3.88599 16.949 3.92663 16.9709 3.97035 16.9844" fill="#007AFF"/>
<path d="M15.6874 3.47856C15.8748 4.19283 15.8462 4.9466 15.6053 5.64463C15.3644 6.34265 14.922 6.95362 14.334 7.40031C13.746 7.84699 13.0388 8.10936 12.3018 8.15425C11.5647 8.19915 10.8309 8.02456 10.193 7.65254C9.55514 7.28052 9.04186 6.72778 8.71803 6.06414C8.39419 5.40051 8.27434 4.65578 8.37362 3.92406C8.47289 3.19234 8.78683 2.50646 9.27578 1.9531C9.76472 1.39974 10.4067 1.00373 11.1207 0.815116C11.5954 0.689689 12.0902 0.659109 12.5768 0.725124C13.0634 0.79114 13.5322 0.952455 13.9564 1.19984C14.3805 1.44723 14.7518 1.77583 15.0488 2.16684C15.3458 2.55785 15.5629 3.00359 15.6874 3.47856Z" fill="#007AFF"/>
<path fill-rule="evenodd" clip-rule="evenodd" d="M14.66 5.3184C14.8364 4.80726 14.8574 4.25531 14.7202 3.73228C14.6289 3.38448 14.47 3.05808 14.2525 2.77175C14.035 2.48543 13.7632 2.24481 13.4526 2.06366C13.142 1.88251 12.7987 1.76439 12.4424 1.71605C12.0861 1.66771 11.7237 1.6901 11.3761 1.78194C10.8533 1.92006 10.3832 2.21004 10.0252 2.61525C9.66712 3.02045 9.43723 3.52269 9.36454 4.0585C9.29184 4.59431 9.37961 5.13965 9.61674 5.6256C9.85386 6.11155 10.2297 6.5163 10.6968 6.78872C11.1639 7.06113 11.7012 7.18898 12.241 7.15611C12.7807 7.12323 13.2986 6.93111 13.7291 6.60402C14.1597 6.27693 14.4836 5.82954 14.66 5.3184ZM15.6053 5.64463C15.8462 4.9466 15.8748 4.19283 15.6874 3.47856C15.5629 3.00359 15.3458 2.55785 15.0488 2.16684C14.7518 1.77583 14.3805 1.44723 13.9564 1.19984C13.5322 0.952455 13.0634 0.79114 12.5768 0.725124C12.0902 0.659109 11.5954 0.689689 11.1207 0.815116C10.4067 1.00373 9.76472 1.39974 9.27578 1.9531C8.78683 2.50646 8.47289 3.19234 8.37362 3.92406C8.27434 4.65578 8.39419 5.40051 8.71803 6.06414C9.04186 6.72778 9.55514 7.28052 10.193 7.65254C10.8309 8.02456 11.5647 8.19915 12.3018 8.15425C13.0388 8.10936 13.746 7.84699 14.334 7.40031C14.922 6.95362 15.3644 6.34265 15.6053 5.64463Z" fill="#007AFF"/>
<path d="M21.7786 19.7648C21.966 20.4791 21.9374 21.2329 21.6965 21.9309C21.4556 22.6289 21.0132 23.2399 20.4252 23.6866C19.8372 24.1333 19.13 24.3956 18.3929 24.4405C17.6559 24.4854 16.922 24.3108 16.2842 23.9388C15.6463 23.5668 15.133 23.014 14.8092 22.3504C14.4854 21.6868 14.3655 20.9421 14.4648 20.2103C14.5641 19.4786 14.878 18.7927 15.3669 18.2394C15.8559 17.686 16.4979 17.29 17.2118 17.1014C17.6866 16.976 18.1814 16.9454 18.668 17.0114C19.1546 17.0774 19.6233 17.2387 20.0475 17.4861C20.4717 17.7335 20.8429 18.0621 21.14 18.4531C21.437 18.8441 21.654 19.2899 21.7786 19.7648Z" fill="#007AFF"/>
<path fill-rule="evenodd" clip-rule="evenodd" d="M20.7512 21.6047C20.9276 21.0935 20.9485 20.5416 20.8113 20.0186C20.7201 19.6707 20.5612 19.3443 20.3437 19.058C20.1262 18.7717 19.8543 18.5311 19.5437 18.3499C19.2331 18.1688 18.8898 18.0507 18.5335 18.0023C18.1772 17.954 17.8149 17.9764 17.4672 18.0682C16.9445 18.2063 16.4744 18.4963 16.1163 18.9015C15.7583 19.3067 15.5284 19.809 15.4557 20.3448C15.383 20.8806 15.4708 21.4259 15.7079 21.9119C15.945 22.3978 16.3209 22.8026 16.788 23.075C17.2551 23.3474 17.7924 23.4753 18.3321 23.4424C18.8718 23.4095 19.3897 23.2174 19.8203 22.8903C20.2508 22.5632 20.5748 22.1158 20.7512 21.6047ZM21.6965 21.9309C21.9374 21.2329 21.966 20.4791 21.7786 19.7648C21.654 19.2899 21.437 18.8441 21.14 18.4531C20.8429 18.0621 20.4717 17.7335 20.0475 17.4861C19.6233 17.2387 19.1546 17.0774 18.668 17.0114C18.1814 16.9454 17.6866 16.976 17.2118 17.1014C16.4979 17.29 15.8559 17.686 15.3669 18.2394C14.878 18.7927 14.5641 19.4786 14.4648 20.2103C14.3655 20.9421 14.4854 21.6868 14.8092 22.3504C15.133 23.014 15.6463 23.5668 16.2842 23.9388C16.922 24.3108 17.6559 24.4854 18.3929 24.4405C19.13 24.3956 19.8372 24.1333 20.4252 23.6866C21.0132 23.2399 21.4556 22.6289 21.6965 21.9309Z" fill="#007AFF"/>
</svg>
