<svg width="37" height="37" viewBox="0 0 37 37" fill="none" xmlns="http://www.w3.org/2000/svg">
<rect width="37" height="37" rx="18.5" fill="#34C759"/>
<path d="M19 8C21.21 8 23 9.79 23 12C23 14.21 21.21 16 19 16C16.79 16 15 14.21 15 12C15 9.79 16.79 8 19 8ZM23 18.54C23 19.6 22.72 22.07 20.81 24.83L20 20L20.94 18.12C20.32 18.05 19.67 18 19 18C18.33 18 17.68 18.05 17.06 18.12L18 20L17.19 24.83C15.28 22.07 15 19.6 15 18.54C12.61 19.24 11 20.5 11 22V26H27V22C27 20.5 25.4 19.24 23 18.54Z" fill="white"/>
</svg>
