<svg width="34" height="34" viewBox="0 0 34 34" fill="none" xmlns="http://www.w3.org/2000/svg">
<rect width="34" height="34" rx="17" fill="#007AFF"/>
<path d="M9 11H7V25C7 25.5304 7.21071 26.0391 7.58579 26.4142C7.96086 26.7893 8.46957 27 9 27H23V25H9V11ZM25 7C25.5304 7 26.0391 7.21071 26.4142 7.58579C26.7893 7.96086 27 8.46957 27 9V21C27 21.5304 26.7893 22.0391 26.4142 22.4142C26.0391 22.7893 25.5304 23 25 23H13C12.4696 23 11.9609 22.7893 11.5858 22.4142C11.2107 22.0391 11 21.5304 11 21V9C11 8.46957 11.2107 7.96086 11.5858 7.58579C11.9609 7.21071 12.4696 7 13 7H25ZM22 12C22 11.2044 21.6839 10.4413 21.1213 9.87868C20.5587 9.31607 19.7956 9 19 9C18.2044 9 17.4413 9.31607 16.8787 9.87868C16.3161 10.4413 16 11.2044 16 12C16 12.7956 16.3161 13.5587 16.8787 14.1213C17.4413 14.6839 18.2044 15 19 15C19.7956 15 20.5587 14.6839 21.1213 14.1213C21.6839 13.5587 22 12.7956 22 12ZM13 20V21H25V20C25 18 21 16.9 19 16.9C17 16.9 13 18 13 20Z" fill="white"/>
</svg>
