<svg width="34" height="34" viewBox="0 0 34 34" fill="none" xmlns="http://www.w3.org/2000/svg">
<rect width="34" height="34" rx="17" fill="#46C756"/>
<path d="M17 22C17.5304 22 18.0391 21.7893 18.4142 21.4142C18.7893 21.0391 19 20.5304 19 20C19 18.89 18.1 18 17 18C16.4696 18 15.9609 18.2107 15.5858 18.5858C15.2107 18.9609 15 19.4696 15 20C15 20.5304 15.2107 21.0391 15.5858 21.4142C15.9609 21.7893 16.4696 22 17 22ZM23 13C23.5304 13 24.0391 13.2107 24.4142 13.5858C24.7893 13.9609 25 14.4696 25 15V25C25 25.5304 24.7893 26.0391 24.4142 26.4142C24.0391 26.7893 23.5304 27 23 27H11C10.4696 27 9.96086 26.7893 9.58579 26.4142C9.21071 26.0391 9 25.5304 9 25V15C9 13.89 9.9 13 11 13H12V11C12 9.67392 12.5268 8.40215 13.4645 7.46447C14.4021 6.52678 15.6739 6 17 6C17.6566 6 18.3068 6.12933 18.9134 6.3806C19.52 6.63188 20.0712 7.00017 20.5355 7.46447C20.9998 7.92876 21.3681 8.47995 21.6194 9.08658C21.8707 9.69321 22 10.3434 22 11V13H23ZM17 8C16.2044 8 15.4413 8.31607 14.8787 8.87868C14.3161 9.44129 14 10.2044 14 11V13H20V11C20 10.2044 19.6839 9.44129 19.1213 8.87868C18.5587 8.31607 17.7956 8 17 8Z" fill="white"/>
</svg>
