<svg width="34" height="34" viewBox="0 0 34 34" fill="none" xmlns="http://www.w3.org/2000/svg">
<rect width="34" height="34" rx="17" fill="#46C756"/>
<path d="M17 7C18.8565 7 20.637 7.7375 21.9497 9.05025C23.2625 10.363 24 12.1435 24 14C24 15.8565 23.2625 17.637 21.9497 18.9497C20.637 20.2625 18.8565 21 17 21C15.1435 21 13.363 20.2625 12.0503 18.9497C10.7375 17.637 10 15.8565 10 14C10 12.1435 10.7375 10.363 12.0503 9.05025C13.363 7.7375 15.1435 7 17 7ZM17 9C15.6739 9 14.4021 9.52678 13.4645 10.4645C12.5268 11.4021 12 12.6739 12 14C12 15.3261 12.5268 16.5979 13.4645 17.5355C14.4021 18.4732 15.6739 19 17 19C17.6566 19 18.3068 18.8707 18.9134 18.6194C19.52 18.3681 20.0712 17.9998 20.5355 17.5355C20.9998 17.0712 21.3681 16.52 21.6194 15.9134C21.8707 15.3068 22 14.6566 22 14C22 12.6739 21.4732 11.4021 20.5355 10.4645C19.5979 9.52678 18.3261 9 17 9ZM17 11C17.7956 11 18.5587 11.3161 19.1213 11.8787C19.6839 12.4413 20 13.2044 20 14C20 14.7956 19.6839 15.5587 19.1213 16.1213C18.5587 16.6839 17.7956 17 17 17C16.2044 17 15.4413 16.6839 14.8787 16.1213C14.3161 15.5587 14 14.7956 14 14C14 13.2044 14.3161 12.4413 14.8787 11.8787C15.4413 11.3161 16.2044 11 17 11ZM11 27C10.4696 27 9.96086 26.7893 9.58579 26.4142C9.21071 26.0391 9 25.5304 9 25C9 24.62 9.1 24.27 9.29 23.97L11.11 20.81C12.69 22.17 14.75 23 17 23C19.25 23 21.31 22.17 22.89 20.81L24.71 23.97C24.9 24.27 25 24.62 25 25C25 25.5304 24.7893 26.0391 24.4142 26.4142C24.0391 26.7893 23.5304 27 23 27H11Z" fill="white"/>
</svg>
