<svg width="24" height="20" viewBox="0 0 24 20" fill="none" xmlns="http://www.w3.org/2000/svg">
<path d="M14.2857 5.55556H12.5714V11.1111L17.4629 13.9333L18.2857 12.5889L14.2857 10.2778V5.55556ZM13.7143 0C10.9863 0 8.37013 1.05357 6.44119 2.92893C4.51224 4.8043 3.42857 7.34784 3.42857 10H0L4.52571 14.4778L9.14286 10H5.71429C5.71429 7.93721 6.55714 5.9589 8.05743 4.50028C9.55772 3.04166 11.5926 2.22222 13.7143 2.22222C15.836 2.22222 17.8708 3.04166 19.3711 4.50028C20.8714 5.9589 21.7143 7.93721 21.7143 10C21.7143 12.0628 20.8714 14.0411 19.3711 15.4997C17.8708 16.9583 15.836 17.7778 13.7143 17.7778C11.5086 17.7778 9.50857 16.9 8.06857 15.4889L6.44571 17.0667C8.30857 18.8889 10.8571 20 13.7143 20C16.4422 20 19.0584 18.9464 20.9874 17.0711C22.9163 15.1957 24 12.6522 24 10C24 7.34784 22.9163 4.8043 20.9874 2.92893C19.0584 1.05357 16.4422 0 13.7143 0Z" fill="#007AFF"/>
</svg>
