<svg width="37" height="37" viewBox="0 0 37 37" fill="none" xmlns="http://www.w3.org/2000/svg">
<path fill-rule="evenodd" clip-rule="evenodd" d="M18.5 37C28.7173 37 37 28.7173 37 18.5C37 8.28273 28.7173 0 18.5 0C8.28273 0 0 8.28273 0 18.5C0 28.7173 8.28273 37 18.5 37Z" fill="#EBB376" fill-opacity="0.1"/>
<path fill-rule="evenodd" clip-rule="evenodd" d="M26.6495 12L18.4562 20.4015C18.3487 20.5125 18.1533 20.5125 18.0457 20.4038C14.3353 16.5892 11.4215 13.5309 10.0339 12H26.6495ZM9 22.8892V12.6689C9.82327 13.6194 11.2987 15.1849 13.8933 17.871L9 22.8892ZM22.616 17.8805L27.5001 22.8894V12.8715L22.616 17.8805ZM18.251 21.7223C18.6499 21.7223 19.0246 21.5627 19.3067 21.2736L21.7649 18.753L27.0202 24.1412H9.48071L14.7406 18.7472C15.4771 19.508 16.2923 20.3463 17.1942 21.2736C17.4763 21.5627 17.851 21.7223 18.251 21.7223Z" fill="#FF931E"/>
</svg>
