<svg width="74" height="75" viewBox="0 0 74 75" fill="none" xmlns="http://www.w3.org/2000/svg">
<path opacity="0.18" d="M37 -0.000114441C57.4345 -0.000114441 74 16.7604 74 37.4356C74 58.1108 57.4345 74.8713 37 74.8713C16.5655 74.8713 0 58.1108 0 37.4356C0 16.7604 16.5655 -0.000114441 37 -0.000114441Z" fill="#FF931E"/>
<path opacity="0.18" d="M36.9996 11.5204C51.3421 11.5204 62.9689 23.123 62.9689 37.4355C62.9689 51.748 51.3421 63.3506 36.9996 63.3506C22.6571 63.3506 11.0303 51.748 11.0303 37.4355C11.0303 23.123 22.6571 11.5204 36.9996 11.5204Z" fill="#FF931E"/>
<path opacity="0.18" d="M37.001 5.61023C54.3724 5.61023 68.4547 19.859 68.4547 37.4357C68.4547 55.0125 54.3724 69.2612 37.001 69.2612C19.6297 69.2612 5.54736 55.0125 5.54736 37.4357C5.54736 19.859 19.6297 5.61023 37.001 5.61023Z" fill="#FF931E"/>
<path opacity="0.26" d="M36.9998 17.3127C48.1133 17.3127 57.1226 26.322 57.1226 37.4355C57.1226 48.549 48.1133 57.5583 36.9998 57.5583C25.8863 57.5583 16.877 48.549 16.877 37.4355C16.877 26.322 25.8863 17.3127 36.9998 17.3127Z" fill="#FF931E"/>
<path opacity="0.67" d="M36.9995 23.6184C44.6307 23.6184 50.8169 29.8046 50.8169 37.4358C50.8169 45.0669 44.6307 51.2532 36.9995 51.2532C29.3684 51.2532 23.1821 45.0669 23.1821 37.4358C23.1821 29.8046 29.3684 23.6184 36.9995 23.6184Z" fill="#FF931E"/>
<path d="M37.0004 29.6546C41.2977 29.6546 44.7815 33.1383 44.7815 37.4357C44.7815 41.7331 41.2977 45.2168 37.0004 45.2168C32.703 45.2168 29.2192 41.7331 29.2192 37.4357C29.2192 33.1383 32.703 29.6546 37.0004 29.6546Z" fill="#FF931E"/>
<path d="M37.0004 29.6546C41.2977 29.6546 44.7815 33.1383 44.7815 37.4357C44.7815 41.7331 41.2977 45.2168 37.0004 45.2168C32.703 45.2168 29.2192 41.7331 29.2192 37.4357C29.2192 33.1383 32.703 29.6546 37.0004 29.6546Z" stroke="#FF931E" stroke-width="0.402174" stroke-miterlimit="10"/>
</svg>
