<svg width="34" height="34" viewBox="0 0 34 34" fill="none" xmlns="http://www.w3.org/2000/svg">
<rect width="34" height="34" rx="17" fill="#007AFF"/>
<path d="M26 23V24H8V23L10 21V15C10 11.9 12.03 9.17 15 8.29C15 8.19 15 8.1 15 8C15 7.46957 15.2107 6.96086 15.5858 6.58579C15.9609 6.21071 16.4696 6 17 6C17.5304 6 18.0391 6.21071 18.4142 6.58579C18.7893 6.96086 19 7.46957 19 8C19 8.1 19 8.19 19 8.29C21.97 9.17 24 11.9 24 15V21L26 23ZM19 25C19 25.5304 18.7893 26.0391 18.4142 26.4142C18.0391 26.7893 17.5304 27 17 27C16.4696 27 15.9609 26.7893 15.5858 26.4142C15.2107 26.0391 15 25.5304 15 25" fill="white"/>
</svg>
