<svg width="34" height="34" viewBox="0 0 34 34" fill="none" xmlns="http://www.w3.org/2000/svg">
<rect width="34" height="34" rx="17" fill="#007AFF"/>
<mask id="path-2-inside-1" fill="white">
<path d="M25.9969 15.1428C26.011 14.9398 25.9562 14.738 25.8413 14.5699C25.7264 14.4017 25.5582 14.2771 25.3637 14.2161C25.005 14.1589 24.6382 14.1722 24.2758 14.1774C23.7549 14.2012 23.24 14.1514 22.722 14.1863C22.7273 12.6269 22.7124 11.063 22.7287 9.5013C22.7392 9.11218 22.6908 8.68445 22.4036 8.39409C22.1163 8.05398 21.6498 7.98195 21.2293 8.00349C18.673 8.01042 16.1162 8.01091 13.5589 8.00497C13.1556 7.97972 12.7255 8.08369 12.4561 8.40449C12.0297 8.85747 12.151 9.52433 12.151 10.0887C11.3771 10.1043 10.6025 10.0783 9.82788 10.105C9.3814 10.1169 9.00041 10.5387 9.00934 10.9798C9.00934 11.9214 9.00339 12.8638 9.00934 13.8061C9.01604 14.0928 8.97883 14.3898 9.06664 14.6683C9.19984 15.0054 9.54734 15.2624 9.91791 15.2401C10.662 15.2401 11.4062 15.2483 12.1503 15.2401C12.1242 16.0347 12.1674 16.8293 12.1503 17.6238C11.4017 17.6387 10.6524 17.6238 9.90378 17.629C9.72762 17.6295 9.55547 17.6815 9.40866 17.7787C9.26184 17.8758 9.14681 18.0138 9.0778 18.1756C8.97585 18.4407 9.00339 18.7325 9.00339 19.011C9.02125 19.9764 8.98999 20.9418 9.0138 21.9071C9.01976 22.3742 9.44391 22.7916 9.91271 22.7693C10.6568 22.773 11.4069 22.7693 12.154 22.7693C12.1652 23.3686 12.1361 23.9678 12.1421 24.5671C12.1347 24.9763 12.311 25.3951 12.6585 25.6268C12.9346 25.8496 13.3014 25.8496 13.637 25.8496C16.2415 25.8496 18.8459 25.8496 21.4503 25.8496C21.8596 25.86 22.2778 25.6803 22.5048 25.3298C22.7161 25.0498 22.728 24.6859 22.728 24.3503C22.7094 22.6757 22.7339 21.0004 22.7168 19.3251C23.5108 19.3251 24.3048 19.3318 25.098 19.3251C25.5512 19.3325 25.9783 18.9538 25.991 18.4927C26.0103 17.3758 25.9917 16.2567 25.9969 15.1428ZM11.1718 14.646H11.0973C10.6762 14.646 10.2543 14.6638 9.83234 14.6364C9.61878 14.5977 9.59869 14.3534 9.60092 14.1789C9.60538 13.1393 9.60092 12.0997 9.60464 11.06C9.58306 10.8781 9.70361 10.6791 9.90229 10.6939C10.6233 10.665 11.3444 10.7214 12.0662 10.6857C13.2851 10.7125 14.5039 10.6612 15.7228 10.708C15.9036 10.708 15.9862 10.91 15.9669 11.066C15.9736 12.6143 15.9617 14.1633 15.9721 15.7116C15.7108 15.3942 15.3849 15.1359 15.0159 14.9539C14.6469 14.7718 14.2434 14.6702 13.832 14.6557L11.1718 14.646ZM9.91271 22.1722C9.72667 22.1908 9.58529 22.0081 9.60464 21.8329C9.60464 20.765 9.60464 19.6967 9.60464 18.6278C9.58529 18.4414 9.67905 18.2045 9.90675 18.2283C11.7924 18.2127 13.6787 18.2283 15.5621 18.2201C15.7161 18.2068 15.9022 18.2491 15.9498 18.4184C15.987 18.6887 15.9647 18.9627 15.9676 19.2353C15.9676 20.5719 15.9676 21.9086 15.9676 23.2453C15.5202 22.6813 14.8703 22.3132 14.1557 22.219C13.8095 22.1783 13.4608 22.1642 13.1124 22.1767C12.0454 22.17 10.9805 22.1826 9.91271 22.1722ZM21.5314 25.2466C20.6839 25.2733 19.8363 25.231 18.9888 25.254C17.7982 25.2377 16.6076 25.2681 15.417 25.2421C14.7227 25.2585 14.027 25.2666 13.3334 25.2362C13.2564 25.2387 13.1797 25.2253 13.1081 25.1968C13.0365 25.1683 12.9717 25.1253 12.9176 25.0706C12.8634 25.0158 12.8213 24.9505 12.7937 24.8786C12.7662 24.8068 12.7538 24.7301 12.7575 24.6533C12.7456 24.0258 12.7575 23.399 12.7493 22.7715C13.4391 22.7767 14.1743 22.7047 14.8068 23.0366C15.3761 23.3255 15.7377 23.878 16.0294 24.4238C16.1507 24.6815 16.5823 24.5567 16.5719 24.2812C16.5719 22.3505 16.5778 20.4197 16.5719 18.489C16.5778 18.033 16.1671 17.6372 15.7161 17.632C14.7309 17.6216 13.7464 17.632 12.762 17.632C12.7478 16.8374 12.762 16.0428 12.762 15.2483C13.4205 15.2557 14.117 15.1799 14.7309 15.471C15.2615 15.7064 15.6432 16.1758 15.9066 16.6792C15.981 16.8003 16.0361 16.9577 16.1775 17.0216C16.3732 17.1055 16.6031 16.9184 16.5763 16.7119C16.5838 14.8294 16.5763 12.947 16.5763 11.0682C16.6173 10.5929 16.2206 10.1028 15.7295 10.1117C14.7406 10.0776 13.7509 10.1251 12.7612 10.0917C12.7612 9.77161 12.7411 9.45155 12.7687 9.13223C12.774 9.00222 12.8272 8.87874 12.9181 8.78544C13.009 8.69213 13.1312 8.63555 13.2613 8.62653C14.2286 8.55969 15.196 8.63766 16.1633 8.59979C17.9016 8.61019 19.6384 8.60499 21.3767 8.59979C21.5954 8.59979 21.8432 8.63469 21.9846 8.82257C22.1171 8.96515 22.1253 9.16788 22.1275 9.3513C22.1074 10.959 22.1334 12.5675 22.1275 14.1782C21.181 14.1878 20.233 14.1678 19.2857 14.1901C18.8266 14.1901 18.4299 14.6193 18.4404 15.0723C18.4314 16.9043 18.4404 18.737 18.4351 20.5675C18.4351 20.7568 18.4069 21.013 18.6279 21.0992C18.8161 21.189 18.9813 21.0249 19.0528 20.863C19.3303 20.3269 19.7136 19.8026 20.2843 19.5546C20.8558 19.2768 21.5054 19.3318 22.1208 19.3318C22.1267 21.0806 22.1208 22.8302 22.1275 24.5797C22.1343 24.6628 22.1241 24.7464 22.0976 24.8255C22.0712 24.9046 22.0289 24.9775 21.9734 25.0398C21.9179 25.1021 21.8503 25.1526 21.7748 25.1881C21.6992 25.2237 21.6172 25.2435 21.5337 25.2466H21.5314ZM25.0958 18.7296C23.8308 18.7385 22.5658 18.7244 21.2948 18.7355C20.4331 18.7437 19.5707 19.1068 19.0304 19.7922C19.0304 18.2179 19.0304 16.6443 19.0304 15.0708C19.0295 15.0296 19.0375 14.9887 19.0537 14.9508C19.07 14.9129 19.0942 14.879 19.1248 14.8513C19.1553 14.8235 19.1915 14.8027 19.2308 14.7901C19.2701 14.7775 19.3116 14.7734 19.3527 14.7782C21.2397 14.7641 23.1276 14.7782 25.0147 14.7723C25.194 14.7507 25.3964 14.8636 25.3912 15.0626C25.4031 16.1542 25.3912 17.2466 25.3964 18.3382C25.4254 18.5246 25.3086 18.7414 25.098 18.7296H25.0958Z"/>
</mask>
<path d="M25.9969 15.1428C26.011 14.9398 25.9562 14.738 25.8413 14.5699C25.7264 14.4017 25.5582 14.2771 25.3637 14.2161C25.005 14.1589 24.6382 14.1722 24.2758 14.1774C23.7549 14.2012 23.24 14.1514 22.722 14.1863C22.7273 12.6269 22.7124 11.063 22.7287 9.5013C22.7392 9.11218 22.6908 8.68445 22.4036 8.39409C22.1163 8.05398 21.6498 7.98195 21.2293 8.00349C18.673 8.01042 16.1162 8.01091 13.5589 8.00497C13.1556 7.97972 12.7255 8.08369 12.4561 8.40449C12.0297 8.85747 12.151 9.52433 12.151 10.0887C11.3771 10.1043 10.6025 10.0783 9.82788 10.105C9.3814 10.1169 9.00041 10.5387 9.00934 10.9798C9.00934 11.9214 9.00339 12.8638 9.00934 13.8061C9.01604 14.0928 8.97883 14.3898 9.06664 14.6683C9.19984 15.0054 9.54734 15.2624 9.91791 15.2401C10.662 15.2401 11.4062 15.2483 12.1503 15.2401C12.1242 16.0347 12.1674 16.8293 12.1503 17.6238C11.4017 17.6387 10.6524 17.6238 9.90378 17.629C9.72762 17.6295 9.55547 17.6815 9.40866 17.7787C9.26184 17.8758 9.14681 18.0138 9.0778 18.1756C8.97585 18.4407 9.00339 18.7325 9.00339 19.011C9.02125 19.9764 8.98999 20.9418 9.0138 21.9071C9.01976 22.3742 9.44391 22.7916 9.91271 22.7693C10.6568 22.773 11.4069 22.7693 12.154 22.7693C12.1652 23.3686 12.1361 23.9678 12.1421 24.5671C12.1347 24.9763 12.311 25.3951 12.6585 25.6268C12.9346 25.8496 13.3014 25.8496 13.637 25.8496C16.2415 25.8496 18.8459 25.8496 21.4503 25.8496C21.8596 25.86 22.2778 25.6803 22.5048 25.3298C22.7161 25.0498 22.728 24.6859 22.728 24.3503C22.7094 22.6757 22.7339 21.0004 22.7168 19.3251C23.5108 19.3251 24.3048 19.3318 25.098 19.3251C25.5512 19.3325 25.9783 18.9538 25.991 18.4927C26.0103 17.3758 25.9917 16.2567 25.9969 15.1428ZM11.1718 14.646H11.0973C10.6762 14.646 10.2543 14.6638 9.83234 14.6364C9.61878 14.5977 9.59869 14.3534 9.60092 14.1789C9.60538 13.1393 9.60092 12.0997 9.60464 11.06C9.58306 10.8781 9.70361 10.6791 9.90229 10.6939C10.6233 10.665 11.3444 10.7214 12.0662 10.6857C13.2851 10.7125 14.5039 10.6612 15.7228 10.708C15.9036 10.708 15.9862 10.91 15.9669 11.066C15.9736 12.6143 15.9617 14.1633 15.9721 15.7116C15.7108 15.3942 15.3849 15.1359 15.0159 14.9539C14.6469 14.7718 14.2434 14.6702 13.832 14.6557L11.1718 14.646ZM9.91271 22.1722C9.72667 22.1908 9.58529 22.0081 9.60464 21.8329C9.60464 20.765 9.60464 19.6967 9.60464 18.6278C9.58529 18.4414 9.67905 18.2045 9.90675 18.2283C11.7924 18.2127 13.6787 18.2283 15.5621 18.2201C15.7161 18.2068 15.9022 18.2491 15.9498 18.4184C15.987 18.6887 15.9647 18.9627 15.9676 19.2353C15.9676 20.5719 15.9676 21.9086 15.9676 23.2453C15.5202 22.6813 14.8703 22.3132 14.1557 22.219C13.8095 22.1783 13.4608 22.1642 13.1124 22.1767C12.0454 22.17 10.9805 22.1826 9.91271 22.1722ZM21.5314 25.2466C20.6839 25.2733 19.8363 25.231 18.9888 25.254C17.7982 25.2377 16.6076 25.2681 15.417 25.2421C14.7227 25.2585 14.027 25.2666 13.3334 25.2362C13.2564 25.2387 13.1797 25.2253 13.1081 25.1968C13.0365 25.1683 12.9717 25.1253 12.9176 25.0706C12.8634 25.0158 12.8213 24.9505 12.7937 24.8786C12.7662 24.8068 12.7538 24.7301 12.7575 24.6533C12.7456 24.0258 12.7575 23.399 12.7493 22.7715C13.4391 22.7767 14.1743 22.7047 14.8068 23.0366C15.3761 23.3255 15.7377 23.878 16.0294 24.4238C16.1507 24.6815 16.5823 24.5567 16.5719 24.2812C16.5719 22.3505 16.5778 20.4197 16.5719 18.489C16.5778 18.033 16.1671 17.6372 15.7161 17.632C14.7309 17.6216 13.7464 17.632 12.762 17.632C12.7478 16.8374 12.762 16.0428 12.762 15.2483C13.4205 15.2557 14.117 15.1799 14.7309 15.471C15.2615 15.7064 15.6432 16.1758 15.9066 16.6792C15.981 16.8003 16.0361 16.9577 16.1775 17.0216C16.3732 17.1055 16.6031 16.9184 16.5763 16.7119C16.5838 14.8294 16.5763 12.947 16.5763 11.0682C16.6173 10.5929 16.2206 10.1028 15.7295 10.1117C14.7406 10.0776 13.7509 10.1251 12.7612 10.0917C12.7612 9.77161 12.7411 9.45155 12.7687 9.13223C12.774 9.00222 12.8272 8.87874 12.9181 8.78544C13.009 8.69213 13.1312 8.63555 13.2613 8.62653C14.2286 8.55969 15.196 8.63766 16.1633 8.59979C17.9016 8.61019 19.6384 8.60499 21.3767 8.59979C21.5954 8.59979 21.8432 8.63469 21.9846 8.82257C22.1171 8.96515 22.1253 9.16788 22.1275 9.3513C22.1074 10.959 22.1334 12.5675 22.1275 14.1782C21.181 14.1878 20.233 14.1678 19.2857 14.1901C18.8266 14.1901 18.4299 14.6193 18.4404 15.0723C18.4314 16.9043 18.4404 18.737 18.4351 20.5675C18.4351 20.7568 18.4069 21.013 18.6279 21.0992C18.8161 21.189 18.9813 21.0249 19.0528 20.863C19.3303 20.3269 19.7136 19.8026 20.2843 19.5546C20.8558 19.2768 21.5054 19.3318 22.1208 19.3318C22.1267 21.0806 22.1208 22.8302 22.1275 24.5797C22.1343 24.6628 22.1241 24.7464 22.0976 24.8255C22.0712 24.9046 22.0289 24.9775 21.9734 25.0398C21.9179 25.1021 21.8503 25.1526 21.7748 25.1881C21.6992 25.2237 21.6172 25.2435 21.5337 25.2466H21.5314ZM25.0958 18.7296C23.8308 18.7385 22.5658 18.7244 21.2948 18.7355C20.4331 18.7437 19.5707 19.1068 19.0304 19.7922C19.0304 18.2179 19.0304 16.6443 19.0304 15.0708C19.0295 15.0296 19.0375 14.9887 19.0537 14.9508C19.07 14.9129 19.0942 14.879 19.1248 14.8513C19.1553 14.8235 19.1915 14.8027 19.2308 14.7901C19.2701 14.7775 19.3116 14.7734 19.3527 14.7782C21.2397 14.7641 23.1276 14.7782 25.0147 14.7723C25.194 14.7507 25.3964 14.8636 25.3912 15.0626C25.4031 16.1542 25.3912 17.2466 25.3964 18.3382C25.4254 18.5246 25.3086 18.7414 25.098 18.7296H25.0958Z" fill="#FFF1F1" stroke="white" stroke-width="6" mask="url(#path-2-inside-1)"/>
</svg>
