<svg width="26" height="26" viewBox="0 0 26 26" fill="none" xmlns="http://www.w3.org/2000/svg">
<path d="M3.25 0C2.38805 0 1.5614 0.34241 0.951903 0.951903C0.34241 1.5614 0 2.38805 0 3.25C0 4.11195 0.34241 4.9386 0.951903 5.5481C1.5614 6.15759 2.38805 6.5 3.25 6.5C4.11195 6.5 4.9386 6.15759 5.5481 5.5481C6.15759 4.9386 6.5 4.11195 6.5 3.25C6.5 2.38805 6.15759 1.5614 5.5481 0.951903C4.9386 0.34241 4.11195 0 3.25 0ZM3.25 9.75C2.38805 9.75 1.5614 10.0924 0.951903 10.7019C0.34241 11.3114 0 12.138 0 13C0 13.862 0.34241 14.6886 0.951903 15.2981C1.5614 15.9076 2.38805 16.25 3.25 16.25C4.11195 16.25 4.9386 15.9076 5.5481 15.2981C6.15759 14.6886 6.5 13.862 6.5 13C6.5 12.138 6.15759 11.3114 5.5481 10.7019C4.9386 10.0924 4.11195 9.75 3.25 9.75ZM3.25 19.5C2.38805 19.5 1.5614 19.8424 0.951903 20.4519C0.34241 21.0614 0 21.888 0 22.75C0 23.612 0.34241 24.4386 0.951903 25.0481C1.5614 25.6576 2.38805 26 3.25 26C4.11195 26 4.9386 25.6576 5.5481 25.0481C6.15759 24.4386 6.5 23.612 6.5 22.75C6.5 21.888 6.15759 21.0614 5.5481 20.4519C4.9386 19.8424 4.11195 19.5 3.25 19.5ZM22.75 6.5C23.612 6.5 24.4386 6.15759 25.0481 5.5481C25.6576 4.9386 26 4.11195 26 3.25C26 2.38805 25.6576 1.5614 25.0481 0.951903C24.4386 0.34241 23.612 0 22.75 0C21.888 0 21.0614 0.34241 20.4519 0.951903C19.8424 1.5614 19.5 2.38805 19.5 3.25C19.5 4.11195 19.8424 4.9386 20.4519 5.5481C21.0614 6.15759 21.888 6.5 22.75 6.5ZM13 19.5C12.138 19.5 11.3114 19.8424 10.7019 20.4519C10.0924 21.0614 9.75 21.888 9.75 22.75C9.75 23.612 10.0924 24.4386 10.7019 25.0481C11.3114 25.6576 12.138 26 13 26C13.862 26 14.6886 25.6576 15.2981 25.0481C15.9076 24.4386 16.25 23.612 16.25 22.75C16.25 21.888 15.9076 21.0614 15.2981 20.4519C14.6886 19.8424 13.862 19.5 13 19.5ZM22.75 19.5C21.888 19.5 21.0614 19.8424 20.4519 20.4519C19.8424 21.0614 19.5 21.888 19.5 22.75C19.5 23.612 19.8424 24.4386 20.4519 25.0481C21.0614 25.6576 21.888 26 22.75 26C23.612 26 24.4386 25.6576 25.0481 25.0481C25.6576 24.4386 26 23.612 26 22.75C26 21.888 25.6576 21.0614 25.0481 20.4519C24.4386 19.8424 23.612 19.5 22.75 19.5ZM22.75 9.75C21.888 9.75 21.0614 10.0924 20.4519 10.7019C19.8424 11.3114 19.5 12.138 19.5 13C19.5 13.862 19.8424 14.6886 20.4519 15.2981C21.0614 15.9076 21.888 16.25 22.75 16.25C23.612 16.25 24.4386 15.9076 25.0481 15.2981C25.6576 14.6886 26 13.862 26 13C26 12.138 25.6576 11.3114 25.0481 10.7019C24.4386 10.0924 23.612 9.75 22.75 9.75ZM13 9.75C12.138 9.75 11.3114 10.0924 10.7019 10.7019C10.0924 11.3114 9.75 12.138 9.75 13C9.75 13.862 10.0924 14.6886 10.7019 15.2981C11.3114 15.9076 12.138 16.25 13 16.25C13.862 16.25 14.6886 15.9076 15.2981 15.2981C15.9076 14.6886 16.25 13.862 16.25 13C16.25 12.138 15.9076 11.3114 15.2981 10.7019C14.6886 10.0924 13.862 9.75 13 9.75ZM13 0C12.138 0 11.3114 0.34241 10.7019 0.951903C10.0924 1.5614 9.75 2.38805 9.75 3.25C9.75 4.11195 10.0924 4.9386 10.7019 5.5481C11.3114 6.15759 12.138 6.5 13 6.5C13.862 6.5 14.6886 6.15759 15.2981 5.5481C15.9076 4.9386 16.25 4.11195 16.25 3.25C16.25 2.38805 15.9076 1.5614 15.2981 0.951903C14.6886 0.34241 13.862 0 13 0Z" fill="#0087FB"/>
</svg>
