<svg width="26" height="27" viewBox="0 0 26 27" fill="none" xmlns="http://www.w3.org/2000/svg">
<path d="M3.25 0.313232C2.38805 0.313232 1.5614 0.663893 0.951903 1.28807C0.34241 1.91225 0 2.75882 0 3.64155C0 4.52427 0.34241 5.37084 0.951903 5.99502C1.5614 6.6192 2.38805 6.96986 3.25 6.96986C4.11195 6.96986 4.9386 6.6192 5.5481 5.99502C6.15759 5.37084 6.5 4.52427 6.5 3.64155C6.5 2.75882 6.15759 1.91225 5.5481 1.28807C4.9386 0.663893 4.11195 0.313232 3.25 0.313232ZM3.25 10.2982C2.38805 10.2982 1.5614 10.6488 0.951903 11.273C0.34241 11.8972 0 12.7438 0 13.6265C0 14.5092 0.34241 15.3558 0.951903 15.98C1.5614 16.6041 2.38805 16.9548 3.25 16.9548C4.11195 16.9548 4.9386 16.6041 5.5481 15.98C6.15759 15.3558 6.5 14.5092 6.5 13.6265C6.5 12.7438 6.15759 11.8972 5.5481 11.273C4.9386 10.6488 4.11195 10.2982 3.25 10.2982ZM3.25 20.2831C2.38805 20.2831 1.5614 20.6338 0.951903 21.2579C0.34241 21.8821 0 22.7287 0 23.6114C0 24.4941 0.34241 25.3407 0.951903 25.9649C1.5614 26.5891 2.38805 26.9397 3.25 26.9397C4.11195 26.9397 4.9386 26.5891 5.5481 25.9649C6.15759 25.3407 6.5 24.4941 6.5 23.6114C6.5 22.7287 6.15759 21.8821 5.5481 21.2579C4.9386 20.6338 4.11195 20.2831 3.25 20.2831ZM22.75 6.96986C23.612 6.96986 24.4386 6.6192 25.0481 5.99502C25.6576 5.37084 26 4.52427 26 3.64155C26 2.75882 25.6576 1.91225 25.0481 1.28807C24.4386 0.663893 23.612 0.313232 22.75 0.313232C21.888 0.313232 21.0614 0.663893 20.4519 1.28807C19.8424 1.91225 19.5 2.75882 19.5 3.64155C19.5 4.52427 19.8424 5.37084 20.4519 5.99502C21.0614 6.6192 21.888 6.96986 22.75 6.96986ZM13 20.2831C12.138 20.2831 11.3114 20.6338 10.7019 21.2579C10.0924 21.8821 9.75 22.7287 9.75 23.6114C9.75 24.4941 10.0924 25.3407 10.7019 25.9649C11.3114 26.5891 12.138 26.9397 13 26.9397C13.862 26.9397 14.6886 26.5891 15.2981 25.9649C15.9076 25.3407 16.25 24.4941 16.25 23.6114C16.25 22.7287 15.9076 21.8821 15.2981 21.2579C14.6886 20.6338 13.862 20.2831 13 20.2831ZM22.75 20.2831C21.888 20.2831 21.0614 20.6338 20.4519 21.2579C19.8424 21.8821 19.5 22.7287 19.5 23.6114C19.5 24.4941 19.8424 25.3407 20.4519 25.9649C21.0614 26.5891 21.888 26.9397 22.75 26.9397C23.612 26.9397 24.4386 26.5891 25.0481 25.9649C25.6576 25.3407 26 24.4941 26 23.6114C26 22.7287 25.6576 21.8821 25.0481 21.2579C24.4386 20.6338 23.612 20.2831 22.75 20.2831ZM22.75 10.2982C21.888 10.2982 21.0614 10.6488 20.4519 11.273C19.8424 11.8972 19.5 12.7438 19.5 13.6265C19.5 14.5092 19.8424 15.3558 20.4519 15.98C21.0614 16.6041 21.888 16.9548 22.75 16.9548C23.612 16.9548 24.4386 16.6041 25.0481 15.98C25.6576 15.3558 26 14.5092 26 13.6265C26 12.7438 25.6576 11.8972 25.0481 11.273C24.4386 10.6488 23.612 10.2982 22.75 10.2982ZM13 10.2982C12.138 10.2982 11.3114 10.6488 10.7019 11.273C10.0924 11.8972 9.75 12.7438 9.75 13.6265C9.75 14.5092 10.0924 15.3558 10.7019 15.98C11.3114 16.6041 12.138 16.9548 13 16.9548C13.862 16.9548 14.6886 16.6041 15.2981 15.98C15.9076 15.3558 16.25 14.5092 16.25 13.6265C16.25 12.7438 15.9076 11.8972 15.2981 11.273C14.6886 10.6488 13.862 10.2982 13 10.2982ZM13 0.313232C12.138 0.313232 11.3114 0.663893 10.7019 1.28807C10.0924 1.91225 9.75 2.75882 9.75 3.64155C9.75 4.52427 10.0924 5.37084 10.7019 5.99502C11.3114 6.6192 12.138 6.96986 13 6.96986C13.862 6.96986 14.6886 6.6192 15.2981 5.99502C15.9076 5.37084 16.25 4.52427 16.25 3.64155C16.25 2.75882 15.9076 1.91225 15.2981 1.28807C14.6886 0.663893 13.862 0.313232 13 0.313232Z" fill="#757575"/>
</svg>
