<svg width="20" height="21" viewBox="0 0 20 21" fill="none" xmlns="http://www.w3.org/2000/svg">
<path d="M9.99984 6.5302C11.0607 6.5302 12.0781 6.96178 12.8283 7.73C13.5784 8.49822 13.9998 9.54015 13.9998 10.6266C13.9998 11.713 13.5784 12.7549 12.8283 13.5232C12.0781 14.2914 11.0607 14.723 9.99984 14.723C8.93897 14.723 7.92156 14.2914 7.17141 13.5232C6.42127 12.7549 5.99984 11.713 5.99984 10.6266C5.99984 9.54015 6.42127 8.49822 7.17141 7.73C7.92156 6.96178 8.93897 6.5302 9.99984 6.5302ZM9.99984 8.57839C9.46941 8.57839 8.9607 8.79418 8.58563 9.17829C8.21055 9.5624 7.99984 10.0834 7.99984 10.6266C7.99984 11.1698 8.21055 11.6908 8.58563 12.0749C8.9607 12.459 9.46941 12.6748 9.99984 12.6748C10.5303 12.6748 11.039 12.459 11.4141 12.0749C11.7891 11.6908 11.9998 11.1698 11.9998 10.6266C11.9998 10.0834 11.7891 9.5624 11.4141 9.17829C11.039 8.79418 10.5303 8.57839 9.99984 8.57839ZM7.99984 20.8675C7.74984 20.8675 7.53984 20.6832 7.49984 20.4374L7.12984 17.7236C6.49984 17.4675 5.95984 17.1194 5.43984 16.7097L2.94984 17.7441C2.72984 17.826 2.45984 17.7441 2.33984 17.5188L0.339839 13.9754C0.209839 13.7501 0.26984 13.4736 0.45984 13.32L2.56984 11.62L2.49984 10.6266L2.56984 9.60249L0.45984 7.93321C0.26984 7.7796 0.209839 7.50309 0.339839 7.27779L2.33984 3.73442C2.45984 3.50911 2.72984 3.41695 2.94984 3.50911L5.43984 4.53321C5.95984 4.13381 6.49984 3.78562 7.12984 3.5296L7.49984 0.815741C7.53984 0.569958 7.74984 0.38562 7.99984 0.38562H11.9998C12.2498 0.38562 12.4598 0.569958 12.4998 0.815741L12.8698 3.5296C13.4998 3.78562 14.0398 4.13381 14.5598 4.53321L17.0498 3.50911C17.2698 3.41695 17.5398 3.50911 17.6598 3.73442L19.6598 7.27779C19.7898 7.50309 19.7298 7.7796 19.5398 7.93321L17.4298 9.60249L17.4998 10.6266L17.4298 11.6507L19.5398 13.32C19.7298 13.4736 19.7898 13.7501 19.6598 13.9754L17.6598 17.5188C17.5398 17.7441 17.2698 17.8362 17.0498 17.7441L14.5598 16.72C14.0398 17.1194 13.4998 17.4675 12.8698 17.7236L12.4998 20.4374C12.4598 20.6832 12.2498 20.8675 11.9998 20.8675H7.99984ZM9.24984 2.43381L8.87984 5.1067C7.67984 5.36273 6.61984 6.01815 5.84984 6.9296L3.43984 5.86454L2.68984 7.19586L4.79984 8.78321C4.39984 9.9814 4.39984 11.282 4.79984 12.47L2.67984 14.0675L3.42984 15.3989L5.85984 14.3338C6.62984 15.235 7.67984 15.8904 8.86984 16.1362L9.23984 18.8194H10.7598L11.1298 16.1465C12.3198 15.8904 13.3698 15.235 14.1398 14.3338L16.5698 15.3989L17.3198 14.0675L15.1998 12.4802C15.5998 11.282 15.5998 9.9814 15.1998 8.78321L17.3098 7.19586L16.5598 5.86454L14.1498 6.9296C13.3798 6.01815 12.3198 5.36273 11.1198 5.11695L10.7498 2.43381H9.24984Z" fill="#757575"/>
</svg>
